<svg width="514" height="514" viewBox="0 0 514 514" xmlns="http://www.w3.org/2000/svg">
    <title>
        js-ipfs-logo-on
    </title>
    <g fill-rule="nonzero" fill="none">
        <path fill="#4A9EA1" d="M36.298 385l221.7 128 221.7-128V129L257.998 1.01l-221.7 128z"/>
        <path d="M235.113 31.84l-160.74 92.806a38.396 38.396 0 0 1 0 8.59l160.75 92.805c13.554-10 32.043-10 45.597 0l160.75-92.807a38.343 38.343 0 0 1-.001-8.588L280.729 31.84c-13.554 10.001-32.044 10.001-45.599 0h-.017zm221.79 127.03l-160.92 93.84c1.884 16.739-7.361 32.751-22.799 39.489l.18 184.58a38.386 38.386 0 0 1 7.439 4.294l160.75-92.805c-1.884-16.739 7.36-32.752 22.799-39.49v-185.61a38.397 38.397 0 0 1-7.44-4.294l-.009-.004zm-397.81 1.031a38.387 38.387 0 0 1-7.438 4.296v185.61c15.438 6.738 24.683 22.75 22.799 39.489l160.74 92.806a38.4 38.4 0 0 1 7.44-4.295v-185.61c-15.439-6.738-24.684-22.75-22.8-39.49l-160.74-92.81-.001.005z" fill="#63D3D7"/>
        <path d="M61.093 159.901a38.387 38.387 0 0 1-7.438 4.296v185.61c15.438 6.738 24.683 22.75 22.799 39.489l160.74 92.806a38.4 38.4 0 0 1 7.44-4.295v-185.61c-15.439-6.738-24.684-22.75-22.8-39.49l-160.74-92.81-.001.005z" fill="#F7DF1E"/>
        <path d="M118.807 368.296c2.778 7.406 5.308 13.776 11.415 17.358 5.854 3.402 9.552 2.87 9.582-7.489l.202-70.425 17.774 9.895-.168 70.907c-.05 21.513-10.895 25.169-26.684 16.028-14.259-8.445-22.503-21.967-26.664-34.807M181.786 402.102c3.805 9.345 8.76 17.357 17.54 21.999 7.382 3.853 12.093 1.959 12.098-4.01.007-7.162-4.824-12.19-12.959-20.604l-4.447-4.576c-12.833-13.237-21.336-25.869-21.303-42.813.03-15.605 10.21-22.065 26.08-13.734 11.3 5.818 19.422 14.571 25.256 29.604l-13.855 3.43c-3.043-7.98-6.342-12.216-11.423-14.85-5.208-2.722-8.516-.586-8.524 4.476-.009 6.255 3.292 10.53 10.911 18.392l4.446 4.543c15.121 15.345 23.636 27.39 23.629 44.866-.008 18.823-12.616 22.747-29.55 13.96-16.55-8.823-27.228-23.867-32.42-38.775" fill="#000"/>
        <g fill="#000">
            <path fill-opacity=".251" d="M258 513l221.7-128V129L258 257z"/>
            <path fill-opacity=".039" d="M258 513V257L36.3 129v256z"/>
            <path fill-opacity=".13" d="M36.298 129l221.7 128 221.7-128-221.7-128z"/>
        </g>
    </g>
</svg>
