<?xml version="1.0" encoding="UTF-8"?>
<svg width="20px" height="20px" viewBox="0 0 20 20" version="1.1" xmlns="http://www.w3.org/2000/svg" xmlns:xlink="http://www.w3.org/1999/xlink">
    <!-- Generator: Sketch 47.1 (45422) - http://www.bohemiancoding.com/sketch -->
    <title>Assets / Logo</title>
    <desc>Created with Sketch.</desc>
    <defs></defs>
    <g id="Symbols" stroke="none" stroke-width="1" fill="none" fill-rule="evenodd">
        <g id="Assets-/-Logo" stroke="#FFFFFF" stroke-width="2">
            <g id="Group" transform="translate(10.020815, 9.920310) rotate(-315.000000) translate(-10.020815, -9.920310) translate(3.020815, 2.920310)">
                <path d="M3.49818602,0 L3.49818602,0 L3.49818602,0 C5.43018082,-3.54901686e-16 6.99637205,1.56619123 6.99637205,3.49818602 L6.99637205,6.99637205 L3.49818602,6.99637205 L3.49818602,6.99637205 C1.56619123,6.99637205 2.36601124e-16,5.43018082 0,3.49818602 L0,3.49818602 L0,3.49818602 C-2.36601124e-16,1.56619123 1.56619123,3.54901686e-16 3.49818602,0 Z" id="Rectangle"></path>
                <path d="M10.4945581,6.99637205 L10.4945581,6.99637205 L10.4945581,6.99637205 C12.4265529,6.99637205 13.9927441,8.56256328 13.9927441,10.4945581 L13.9927441,13.9927441 L10.4945581,13.9927441 L10.4945581,13.9927441 C8.56256328,13.9927441 6.99637205,12.4265529 6.99637205,10.4945581 L6.99637205,10.4945581 L6.99637205,10.4945581 C6.99637205,8.56256328 8.56256328,6.99637205 10.4945581,6.99637205 Z" id="Rectangle" transform="translate(10.494558, 10.494558) scale(-1, -1) translate(-10.494558, -10.494558) "></path>
            </g>
        </g>
    </g>
</svg>