<?xml version="1.0" standalone="no"?>
<!DOCTYPE svg PUBLIC "-//W3C//DTD SVG 1.1//EN" "http://www.w3.org/Graphics/SVG/1.1/DTD/svg11.dtd" >
<svg xmlns="http://www.w3.org/2000/svg" xmlns:xlink="http://www.w3.org/1999/xlink" version="1.1">
<metadata></metadata>
<defs>
<font id="maven_probold" horiz-adv-x="1441" >
<font-face units-per-em="2048" ascent="1638" descent="-410" />
<missing-glyph horiz-adv-x="692" />
<glyph horiz-adv-x="0" />
<glyph horiz-adv-x="682" />
<glyph horiz-adv-x="0" />
<glyph horiz-adv-x="0" />
<glyph unicode=" "  horiz-adv-x="692" />
<glyph unicode="&#x09;" horiz-adv-x="692" />
<glyph unicode="&#xa0;" horiz-adv-x="692" />
<glyph unicode="!" horiz-adv-x="825" d="M283 1366h280l-45 -973h-190zM303 0v227h240v-227h-240z" />
<glyph unicode="&#x22;" horiz-adv-x="825" d="M166 1384h205l-35 -411h-133zM461 1384h205l-35 -411h-133z" />
<glyph unicode="#" horiz-adv-x="1216" d="M152 256v152h180l51 292h-174v152h201l36 217h162l-39 -217h232l39 217h159l-38 -217h133v-152h-158l-51 -292h153v-152h-178l-39 -217h-162l39 217h-231l-37 -217h-162l39 217h-155zM494 408h231l49 292h-229z" />
<glyph unicode="$" horiz-adv-x="1181" d="M150 987q0 90 31 161.5t87 118.5t127 75t156 38v209h119v-207q168 -5 334 -92v-239q-161 102 -334 104v-340q51 -15 85.5 -26.5t82.5 -32.5t80 -43.5t67.5 -57t56 -75t34.5 -96.5t14 -122q0 -154 -121 -257t-299 -117v-209h-119v209q-220 14 -383 114v250 q172 -128 383 -131v379q-41 12 -64.5 19.5t-62 21.5t-62.5 26t-56 31t-52 38t-42 46t-34 56.5t-20 67.5t-8 81zM395 993q0 -54 39 -85.5t117 -57.5v293q-70 -15 -113 -52t-43 -98zM670 229q174 25 174 150q0 68 -45 110.5t-129 73.5v-334z" />
<glyph unicode="%" horiz-adv-x="1777" d="M145 983q0 187 73 282t216 95q291 0 291 -377t-291 -377q-143 0 -216 95t-73 282zM305 983q0 -57 8 -99.5t20 -66t30.5 -37.5t34.5 -18t36 -4q21 0 37 4t34.5 18t30 37.5t19.5 66t8 99.5q0 72 -11 119.5t-31.5 69t-40 29t-46.5 7.5q-26 0 -45.5 -7.5t-40.5 -29t-32 -69 t-11 -119.5zM381 0l858 1366h174l-858 -1366h-174zM1065 383q0 187 73 282t216 95q291 0 291 -377t-291 -377q-143 0 -216 95t-73 282zM1225 383q0 -57 8 -99.5t20 -66t30.5 -37.5t34.5 -18t36 -4q21 0 37 4t34.5 18t30 37.5t19.5 66t8 99.5q0 72 -11 119.5t-31.5 69t-40 29 t-46.5 7.5q-26 0 -45.5 -7.5t-40.5 -29t-32 -69t-11 -119.5z" />
<glyph unicode="&#x26;" horiz-adv-x="1310" d="M113 389q0 42 3.5 74t18.5 77t41.5 83.5t75.5 83t117 84.5q-125 131 -125 249q0 88 34 161.5t109.5 123t181.5 49.5q139 0 232.5 -92.5t93.5 -226.5q0 -104 -50.5 -174.5t-172.5 -151.5q181 -216 229 -274q13 32 23.5 70.5t15.5 61.5l4 23h201q-27 -177 -109 -319 l244 -291h-262l-105 129q-152 -145 -364 -145q-91 0 -166.5 27t-124.5 70t-82.5 97.5t-48 107.5t-14.5 103zM307 383q0 -20 6 -45t23 -55.5t43 -55t71.5 -41t102.5 -16.5q136 0 242 106q-211 250 -301 361q-54 -29 -91.5 -60t-55.5 -54.5t-28 -54t-11 -45.5t-1 -40z M438 1059q0 -15 5 -32t10.5 -28.5t19 -31.5t19.5 -27.5t24.5 -30t22.5 -26.5q97 57 130 97t33 87q0 54 -37.5 90.5t-93.5 36.5t-94.5 -39t-38.5 -96z" />
<glyph unicode="'" horiz-adv-x="534" d="M166 1384h205l-35 -411h-133z" />
<glyph unicode="(" horiz-adv-x="751" d="M190 627q0 174 37.5 353t80 290t93.5 213h213q-51 -102 -93.5 -213t-80 -290t-37.5 -353q0 -436 211 -858h-213q-211 422 -211 858z" />
<glyph unicode=")" horiz-adv-x="751" d="M133 -231q37 73 70 154.5t67 192.5t54 244t20 267t-20 267t-54 243t-67 192.5t-70 153.5h213q51 -102 93.5 -213t80 -290t37.5 -353q0 -436 -211 -858h-213z" />
<glyph unicode="*" horiz-adv-x="845" d="M172 1133l166 57l-166 57l78 139l123 -104l-25 156h160l-25 -156l123 104l78 -139l-166 -57l166 -57l-78 -140l-123 105l25 -156h-160l25 156l-123 -105z" />
<glyph unicode="+" horiz-adv-x="1128" d="M199 520v182h272v275h182v-275h273v-182h-273v-270h-182v270h-272z" />
<glyph unicode="," horiz-adv-x="677" d="M152 -229l151 401h215l-182 -401h-184z" />
<glyph unicode="-" horiz-adv-x="950" d="M162 514v193h624v-193h-624z" />
<glyph unicode="." horiz-adv-x="759" d="M260 0v227h240v-227h-240z" />
<glyph unicode="/" horiz-adv-x="897" d="M-29 -201l752 1749h205l-754 -1749h-203z" />
<glyph unicode="0" horiz-adv-x="1345" d="M133 678q0 348 136 524t403 176q538 0 538 -700q0 -701 -538 -701q-267 0 -403 176.5t-136 524.5zM379 678q0 -126 18 -219t45 -144.5t68 -82t78 -39.5t84 -9t84 9t78 39.5t68 82t45 144.5t18 219t-18 218.5t-45 144t-68 82t-78 39.5t-84 9t-84 -9t-78 -39.5t-68 -82 t-45 -144t-18 -218.5z" />
<glyph unicode="1" horiz-adv-x="993" d="M211 936v262l266 168h223v-1366h-245v1085z" />
<glyph unicode="2" horiz-adv-x="1226" d="M158 0v201q73 54 149.5 117t167.5 150.5t160 170t115.5 173.5t46.5 163q0 69 -57 116.5t-185 47.5q-100 0 -206 -34t-179 -85v244q197 120 395 120q101 0 183 -24t135.5 -63t89.5 -93t51.5 -111t15.5 -118q0 -77 -28.5 -161t-74 -159t-109 -151.5t-127 -138.5 t-134.5 -121h494v-244h-903z" />
<glyph unicode="3" horiz-adv-x="1228" d="M166 84v250q181 -107 373 -107q290 0 290 189q0 89 -68.5 148t-230.5 59h-174v202h181q114 0 170.5 46.5t56.5 117.5q0 44 -23 75t-61.5 46.5t-77 22t-80.5 6.5q-176 0 -327 -90v251q179 84 342 84q76 0 142.5 -12t128 -40.5t106 -71.5t70.5 -110.5t26 -152.5 q0 -169 -168 -260q105 -37 168 -120.5t63 -204.5q0 -69 -17 -128.5t-46.5 -102.5t-71 -77.5t-87 -56.5t-97.5 -36.5t-100.5 -20.5t-98.5 -6q-203 0 -389 100z" />
<glyph unicode="4" horiz-adv-x="1234" d="M78 385v203l622 778h234v-762h178v-219h-178v-385h-246v385h-610zM365 604h323v420z" />
<glyph unicode="5" horiz-adv-x="1245" d="M170 709l74 657h751v-244h-542q-4 -49 -12 -123.5t-13 -126.5q101 19 184 19q56 0 107 -8t105.5 -26.5t98 -53t78.5 -82.5t54.5 -121t19.5 -164q0 -109 -28 -191.5t-72 -131.5t-106.5 -79.5t-122 -41t-128.5 -10.5q-227 0 -415 96v248q75 -47 181 -84t220 -37 q59 0 103 15.5t67.5 39t37.5 56t17 60.5t2 60q-10 219 -223 223q-83 2 -158 -16.5t-109 -37.5l-34 -19z" />
<glyph unicode="6" horiz-adv-x="1222" d="M131 629q0 141 25.5 256.5t66 192t97.5 134.5t113 90t121 51.5t112.5 25t95.5 5.5q106 0 235 -38v-218q-82 27 -221 27q-36 0 -75.5 -6.5t-91 -27t-94 -53t-78.5 -90.5t-50 -134q45 35 117 52t133 17q221 0 342 -120.5t121 -331.5q0 -68 -16 -133.5t-53 -128.5 t-91.5 -110t-138 -76t-185.5 -29q-485 0 -485 645zM379 623q-4 -103 11.5 -182t41 -123t61 -72t65 -36.5t58.5 -8.5q52 0 93 15t65.5 41t41.5 54t24 60t9.5 53t2.5 39q0 105 -62 167t-174 62q-135 0 -237 -69z" />
<glyph unicode="7" horiz-adv-x="1202" d="M141 1120v246h965v-195l-563 -1171h-291l545 1120h-656z" />
<glyph unicode="8" horiz-adv-x="1236" d="M129 408q0 73 25.5 133.5t62 94.5t73 57.5t62.5 31.5l25 8q-8 2 -21.5 7t-48.5 26.5t-61.5 50t-48 81.5t-21.5 118q0 172 119.5 270t325.5 98t325 -97.5t119 -270.5q0 -47 -11 -88t-28.5 -69t-38.5 -51t-42.5 -36.5t-39 -22.5t-28.5 -13l-11 -3q5 -1 14 -4t34.5 -14.5 t48.5 -26.5t51.5 -42t49 -59t34.5 -79t14 -100q0 -198 -128.5 -311t-362.5 -113t-363 113t-129 311zM375 416q0 -111 62 -175.5t184 -64.5q123 0 184 64t61 176q0 81 -63 140.5t-182 59.5t-182.5 -59.5t-63.5 -140.5zM422 1010q0 -51 18 -88.5t49 -57t63.5 -28.5t68.5 -9 t68.5 9t63 28.5t48.5 57t18 88.5q0 73 -50.5 123.5t-147.5 50.5t-148 -50.5t-51 -123.5z" />
<glyph unicode="9" horiz-adv-x="1234" d="M117 907q0 68 16 133.5t52.5 128.5t91 110t138 76t185.5 29q485 0 485 -645q0 -141 -25.5 -256.5t-65.5 -192t-97.5 -134.5t-113.5 -90t-120.5 -51.5t-112 -25t-95.5 -5.5q-104 0 -236 39v217q82 -27 221 -27q36 0 75.5 6.5t91 27t94 53t78.5 90.5t50 134 q-45 -35 -116.5 -52t-132.5 -17q-221 0 -342 120.5t-121 331.5zM365 905q0 -105 61.5 -167t173.5 -62q136 0 238 69q4 103 -11.5 182t-41.5 123t-61.5 72t-65 36.5t-58.5 8.5q-62 0 -108 -22.5t-69.5 -53t-37.5 -71t-17 -66.5t-3 -49z" />
<glyph unicode=":" horiz-adv-x="813" d="M293 78v223h235v-223h-235zM293 723v223h235v-223h-235z" />
<glyph unicode=";" horiz-adv-x="858" d="M182 -229l152 401h215l-182 -401h-185zM322 723v223h235v-223h-235z" />
<glyph unicode="&#x3c;" horiz-adv-x="1351" d="M246 477v148l850 379v-211l-617 -242l617 -242v-211z" />
<glyph unicode="=" horiz-adv-x="1306" d="M260 348v176h789v-176h-789zM260 698v176h789v-176h-789z" />
<glyph unicode="&#x3e;" horiz-adv-x="1329" d="M270 98v211l617 242l-617 242v211l850 -379v-148z" />
<glyph unicode="?" horiz-adv-x="1042" d="M164 1059v227q151 96 321 96q92 0 165.5 -22.5t121 -60t79 -89.5t45 -107.5t13.5 -117.5q0 -60 -16.5 -110t-43.5 -84.5t-59 -66t-64.5 -62t-59.5 -64t-43.5 -80.5t-16.5 -104v-21h-217v27q0 88 22.5 159.5t55.5 114.5t72.5 83t72.5 68t55.5 64.5t22.5 77.5q0 88 -55 135 t-166 47q-97 0 -176.5 -33t-128.5 -77zM379 0v227h239v-227h-239z" />
<glyph unicode="@" horiz-adv-x="1869" d="M170 371q0 148 51.5 285t139 241t199.5 181.5t238 118t249 40.5q59 0 122 -11.5t130.5 -37t130 -62.5t118.5 -92.5t97.5 -122.5t65.5 -157t24 -191q0 -96 -21.5 -186t-63.5 -165.5t-113 -121t-161 -45.5q-44 0 -79.5 18.5t-55.5 45.5t-30.5 50t-12.5 38 q-27 -65 -101.5 -108.5t-185.5 -43.5q-154 0 -242.5 69.5t-88.5 190.5q0 41 9 78t39 79t78 72t134 50t200 20q45 0 115 -4q0 36 -6 60.5t-23 47t-53 33.5t-92 11q-167 0 -279 -43q4 29 13.5 82t13.5 81q158 52 270 52q166 0 252 -77t86 -226q0 -51 -16 -155.5t-16 -162.5 q0 -133 92 -133q32 0 68.5 23.5t71.5 68.5t58 124t23 177q0 127 -53 234t-137.5 175t-185.5 106t-202 38q-143 0 -280 -60.5t-240 -161t-166 -240t-63 -289.5q0 -94 24 -175t63 -137t90.5 -101t103.5 -71.5t105.5 -44.5t94 -24.5t70.5 -6.5q262 0 465 99l-21 -131 q-189 -84 -442 -84q-58 0 -120 11t-128 36.5t-127 62.5t-116 93t-95.5 124t-64 159.5t-23.5 195.5zM762 309q0 -80 149 -80q119 0 165 51t54 175q-27 2 -90 2q-278 0 -278 -148z" />
<glyph unicode="A" d="M43 0l543 1366h270l543 -1366h-264l-125 328h-578l-125 -328h-264zM516 551h408l-203 536z" />
<glyph unicode="B" horiz-adv-x="1323" d="M178 0v1366h492q74 0 139 -11t127.5 -39t107.5 -71t72 -110.5t27 -153.5q0 -94 -45 -160t-117 -104q44 -16 82.5 -40t75.5 -61t58.5 -92.5t21.5 -122.5q0 -37 -4.5 -72t-18.5 -76.5t-36.5 -76t-61.5 -68t-90 -57t-125 -37.5t-164 -14h-541zM424 215h283q266 0 266 199 q0 46 -18.5 80.5t-44.5 52.5t-66 28.5t-72.5 13.5t-73.5 3h-274v-377zM424 809h260h6h7q200 0 200 164q0 180 -231 180h-242v-344z" />
<glyph unicode="C" horiz-adv-x="1286" d="M125 684q0 121 20.5 221t55 171.5t84 126.5t104 88.5t120 55t126 29.5t127.5 8q211 0 414 -81v-230q-195 90 -392 90q-50 0 -90.5 -4.5t-85 -17t-78 -34t-64.5 -58t-51 -86t-32 -120.5t-12 -159t12 -159t32 -120.5t51 -86t64.5 -58t78 -34t85 -17t90.5 -4.5q197 0 392 90 v-229q-206 -82 -414 -82q-67 0 -127.5 8t-126 29.5t-120 55t-104 88.5t-84 126.5t-55 171.5t-20.5 221z" />
<glyph unicode="D" horiz-adv-x="1419" d="M178 0v1366h471q317 0 481 -174t164 -510q0 -335 -164.5 -508.5t-480.5 -173.5h-471zM424 223h225q214 0 307 107t93 352q0 246 -93 353.5t-307 107.5h-225v-920z" />
<glyph unicode="E" horiz-adv-x="1204" d="M178 0v1366h909v-221h-663v-346h575v-232h-575v-346h663v-221h-909z" />
<glyph unicode="F" horiz-adv-x="1142" d="M178 0v1366h883v-221h-637v-346h551v-232h-551v-567h-246z" />
<glyph unicode="G" horiz-adv-x="1406" d="M125 682q0 121 20.5 221t55 171.5t84 126.5t104 88.5t120 55t126 29.5t127.5 8q216 0 450 -92v-225q-222 98 -426 98q-72 0 -126.5 -9t-111.5 -39t-93.5 -80.5t-60 -139.5t-23.5 -211t23.5 -211.5t60 -140.5t93.5 -81t111.5 -39t126.5 -9q109 0 242 35v327h-321v217h548 v-682q-237 -116 -493 -116q-67 0 -127.5 8t-126 29.5t-120 55t-104 88.5t-84 126t-55 171t-20.5 220z" />
<glyph unicode="H" horiz-adv-x="1429" d="M178 0v1366h246v-567h580v567h245v-1366h-245v567h-580v-567h-246z" />
<glyph unicode="I" horiz-adv-x="600" d="M178 0v1366h246v-1366h-246z" />
<glyph unicode="J" horiz-adv-x="1003" d="M59 72v243q126 -102 281 -102q57 0 95 9.5t68.5 34.5t45 72.5t14.5 119.5v917h246v-909q0 -118 -31 -207t-76 -138t-108 -79.5t-115.5 -39.5t-109.5 -9q-169 0 -310 88z" />
<glyph unicode="K" horiz-adv-x="1415" d="M178 0v1366h246v-578l516 578h330l-551 -600l608 -766h-307l-459 592l-137 -150v-442h-246z" />
<glyph unicode="L" horiz-adv-x="1124" d="M178 0v1366h246v-1133h657v-233h-903z" />
<glyph unicode="M" horiz-adv-x="1695" d="M178 0v1366h273l395 -571l395 571h272v-1366h-245v1010l-422 -604l-422 604v-1010h-246z" />
<glyph unicode="N" horiz-adv-x="1587" d="M178 0v1366h279l702 -1012v1012h246v-1366h-275l-706 1020v-1020h-246z" />
<glyph unicode="O" horiz-adv-x="1538" d="M125 682q0 121 20.5 221t55 171.5t84 126.5t104 88.5t120 55t126 29.5t127.5 8q95 0 179 -16.5t171 -63.5t148.5 -122.5t101 -203t39.5 -294.5t-39.5 -294t-101 -202t-148.5 -122t-171 -63.5t-179 -16.5q-67 0 -127.5 8t-126 29.5t-120 55t-104 88.5t-84 126t-55 171 t-20.5 220zM371 684q0 -89 11.5 -161t30.5 -122t48.5 -87t61 -58.5t73.5 -34.5t80 -17.5t86 -4.5t86.5 4.5t80.5 17.5t74 34.5t61.5 58.5t48.5 87t30.5 122t11.5 161t-11.5 160t-30.5 121t-48.5 86.5t-61.5 58t-74 34t-80.5 17t-86.5 4.5t-86 -4.5t-80 -17t-73.5 -34 t-61 -58t-48.5 -86.5t-30.5 -121t-11.5 -160z" />
<glyph unicode="P" horiz-adv-x="1277" d="M176 0v1366h510q241 0 373.5 -120.5t132.5 -338.5t-132.5 -338t-373.5 -120h-264v-449h-246zM422 672h246q84 0 140.5 16t86.5 49t41.5 73t11.5 97q0 56 -11.5 95.5t-41.5 72t-86.5 48.5t-140.5 16h-246v-467z" />
<glyph unicode="Q" horiz-adv-x="1529" d="M125 682q0 121 20.5 221t55 171.5t84 126.5t104.5 88.5t120.5 55t126.5 29.5t128 8q95 0 179 -16.5t171 -63.5t148.5 -122.5t101 -203t39.5 -294.5q0 -151 -32 -269.5t-83.5 -193.5t-125.5 -126.5t-148.5 -75t-161.5 -31.5q0 -50 21.5 -86.5t57 -55.5t74.5 -28t82 -9 v-188q-207 0 -322.5 90t-115.5 279q-83 11 -154.5 36t-141.5 77.5t-119 127.5t-79 191t-30 262zM371 682q0 -104 14.5 -183.5t42.5 -131.5t62 -86t81.5 -51.5t91.5 -24t101 -6.5q48 0 86 4.5t80 17t74 34t62 58.5t49 87t30.5 121.5t11.5 160.5t-11.5 160.5t-30.5 121.5 t-49 87t-62 58.5t-74 34t-80 17t-86 4.5q-57 0 -101 -6.5t-91.5 -24t-81.5 -51.5t-62 -86t-42.5 -131.5t-14.5 -183.5z" />
<glyph unicode="R" horiz-adv-x="1337" d="M178 0v1366h524q239 0 372.5 -113t133.5 -325q0 -75 -18.5 -138t-48 -105.5t-70.5 -76.5t-79.5 -53.5t-82.5 -32.5l359 -522h-297l-326 481h-221v-481h-246zM424 707h272q59 0 102.5 8.5t83 30.5t60.5 66t21 110t-21 110.5t-61 66.5t-83 30t-102 8h-272v-430z" />
<glyph unicode="S" horiz-adv-x="1189" d="M125 985q0 101 39.5 179t108.5 124.5t154.5 70t184.5 23.5q186 0 367 -94v-239q-159 104 -338 104q-71 0 -128.5 -14t-99.5 -52t-42 -96q0 -40 23.5 -69t64 -47.5t92.5 -34t109.5 -32.5t115 -38t109.5 -55t92.5 -79.5t64 -116t23.5 -159.5q0 -110 -65 -197t-172 -133 t-234 -46q-262 0 -451 116v250q175 -131 394 -131q282 0 282 158q0 48 -23.5 84.5t-64 59.5t-92.5 42t-109.5 35.5t-115 36t-109.5 48.5t-92.5 67.5t-64 98.5t-23.5 136z" />
<glyph unicode="T" horiz-adv-x="1169" d="M25 1120v246h1120v-246h-438v-1120h-246v1120h-436z" />
<glyph unicode="U" horiz-adv-x="1511" d="M178 578v788h246v-809q0 -181 78.5 -264.5t247.5 -83.5q170 0 248.5 83.5t78.5 264.5v809h246v-788q0 -283 -149.5 -438.5t-423.5 -155.5q-272 0 -422 155.5t-150 438.5z" />
<glyph unicode="V" horiz-adv-x="1347" d="M25 1366h262l387 -1061l387 1061h262l-522 -1366h-252z" />
<glyph unicode="W" horiz-adv-x="2045" d="M25 1366h258l307 -1010l325 1010h215l326 -1010l309 1010h256l-438 -1366h-254l-305 952l-307 -952h-254z" />
<glyph unicode="X" horiz-adv-x="1329" d="M25 0l485 690l-473 676h299l326 -461l323 461h289l-469 -666l491 -700h-299l-344 487l-344 -487h-284z" />
<glyph unicode="Y" horiz-adv-x="1368" d="M25 1366h297l362 -555l360 555h297l-534 -780v-586h-246v586z" />
<glyph unicode="Z" horiz-adv-x="1271" d="M131 0v225l684 895h-676v246h981v-219l-688 -901h688v-246h-989z" />
<glyph unicode="[" horiz-adv-x="808" d="M244 -238v1663h395v-190h-207v-1282h207v-191h-395z" />
<glyph unicode="\" horiz-adv-x="829" d="M-76 1548h205l752 -1749h-203z" />
<glyph unicode="]" horiz-adv-x="808" d="M172 -47h207v1282h-207v190h395v-1663h-395v191z" />
<glyph unicode="^" horiz-adv-x="1146" d="M264 969l223 444h113l225 -444h-170l-110 260l-111 -260h-170z" />
<glyph unicode="_" horiz-adv-x="1118" d="M0 -49h1118v-141h-1118v141z" />
<glyph unicode="`" horiz-adv-x="522" d="M92 1395h201l127 -240h-137z" />
<glyph unicode="a" horiz-adv-x="1110" d="M115 334q0 31 5.5 63.5t32 81.5t70 85.5t130 63.5t202.5 27q84 0 180 -14q0 193 -217 193q-172 0 -299 -52v199q140 57 313 57q218 0 334.5 -111.5t116.5 -322.5v-276q0 -66 -23.5 -124.5t-72 -109t-134.5 -80.5t-200 -30q-94 0 -169.5 20t-125 54t-82.5 79.5t-47 94.5 t-14 102zM358 365q0 -164 193 -164q186 0 186 155v129q-93 13 -147 13q-232 0 -232 -133z" />
<glyph unicode="b" horiz-adv-x="1181" d="M170 328v1085h246v-391q88 16 168 16q229 0 352 -133t123 -383q0 -100 -18.5 -182t-48 -137t-71.5 -96.5t-82.5 -64t-88 -36.5t-82 -18t-68.5 -4q-114 0 -200 30t-134.5 80.5t-72 109t-23.5 124.5zM416 305q0 -61 47.5 -85.5t136.5 -24.5q116 0 163.5 80.5t47.5 259.5 q0 171 -60.5 240t-175.5 69q-86 0 -159 -17v-522z" />
<glyph unicode="c" horiz-adv-x="966" d="M119 510q0 255 125 391.5t358 136.5q152 0 295 -57v-205q-120 49 -254 49q-70 0 -117 -12.5t-85.5 -45.5t-57 -96.5t-18.5 -160.5q0 -77 13 -133t35 -91t58 -55.5t76.5 -28t95.5 -7.5q129 0 254 51v-205q-143 -57 -295 -57q-233 0 -358 135.5t-125 390.5z" />
<glyph unicode="d" horiz-adv-x="1167" d="M129 522q0 250 122 383t351 133q82 0 170 -16v391h246v-1085q0 -65 -23.5 -124t-72.5 -109.5t-135.5 -80.5t-200.5 -30q-34 0 -68.5 4t-81.5 18t-87.5 36.5t-82 64t-71 96.5t-48 137t-18.5 182zM375 535q0 -179 47.5 -259.5t163.5 -80.5q90 0 138 24.5t48 85.5v522 q-76 17 -162 17q-115 0 -175 -69t-60 -240z" />
<glyph unicode="e" horiz-adv-x="1144" d="M129 500q0 118 25 213.5t77.5 170t142.5 115.5t212 41q115 0 205 -41t143.5 -111t80.5 -157t27 -186q0 -86 -4 -127h-657q4 -57 21.5 -98.5t41.5 -65t59 -37.5t66.5 -18t71.5 -4q182 0 348 79v-198q-170 -92 -385 -92q-47 0 -90.5 5.5t-92 21t-89.5 40t-79.5 64.5 t-65 92.5t-42.5 127.5t-16 165zM381 588h412q-10 107 -62.5 179.5t-144.5 72.5q-93 0 -144 -59.5t-61 -192.5z" />
<glyph unicode="f" horiz-adv-x="731" d="M82 811v211h174q3 424 381 424q48 0 100 -10v-193q-36 4 -55 4q-97 0 -138.5 -46t-41.5 -179h235v-211h-235v-811h-246v811h-174z" />
<glyph unicode="g" horiz-adv-x="1122" d="M123 514q0 98 18 178t46.5 133t69 93.5t80 62.5t85 35.5t79 17.5t66.5 4q90 0 162 -19.5t119 -52t78.5 -76.5t45 -90.5t13.5 -97.5v-727q0 -48 -9 -93t-38.5 -98t-77.5 -92t-134.5 -65t-201.5 -26q-163 0 -295 41v219q125 -41 267 -41q70 0 118.5 10.5t72.5 24t36.5 38.5 t14 39.5t1.5 42.5v56q-87 -17 -155 -17q-223 0 -342 129t-119 371zM369 510q0 -90 15 -149.5t46 -90.5t69 -43t93 -12q75 0 147 14v476q0 114 -172 114q-97 0 -147.5 -71.5t-50.5 -237.5z" />
<glyph unicode="h" horiz-adv-x="1228" d="M193 0v1411h245v-407q84 34 205 34q214 0 333.5 -112t119.5 -312v-614h-244v635q0 32 -4 54.5t-18.5 49t-40.5 43.5t-73.5 28t-113.5 11q-96 0 -164 -30v-791h-245z" />
<glyph unicode="i" horiz-adv-x="638" d="M193 1161v225h251v-225h-251zM197 0v1022h245v-1022h-245z" />
<glyph unicode="j" horiz-adv-x="593" d="M6 -205q32 2 58 6.5t45 9t33.5 14.5t23.5 16.5t15.5 21.5t9.5 22.5t4.5 27t1.5 27v29.5v1053h245v-1036q0 -45 -3.5 -80.5t-15 -75.5t-30.5 -70t-52 -59.5t-78 -48.5t-110.5 -31.5t-146.5 -15.5v190zM193 1161v225h251v-225h-251z" />
<glyph unicode="k" horiz-adv-x="1226" d="M188 0v1405h246v-758l344 375h326l-445 -455l492 -567h-311l-338 403l-68 -69v-334h-246z" />
<glyph unicode="l" horiz-adv-x="659" d="M207 0v1411h246v-1411h-246z" />
<glyph unicode="m" horiz-adv-x="1908" d="M193 0v924q228 114 450 114q167 0 277 -75q186 75 368 75q206 0 322 -112.5t116 -311.5v-614h-245v631q0 48 -9.5 81.5t-34 61.5t-72 41.5t-118.5 13.5q-108 0 -209 -24q5 -6 12 -18t19 -61t12 -112v-614h-243v637q0 94 -48.5 141t-181.5 47q-88 0 -170 -16v-809h-245z " />
<glyph unicode="n" horiz-adv-x="1273" d="M168 0v926q224 112 469 112q214 0 333.5 -112t119.5 -312v-614h-244v635q0 40 -7 68t-29.5 57.5t-74 45t-131.5 15.5q-91 0 -190 -18v-803h-246z" />
<glyph unicode="o" horiz-adv-x="1159" d="M100 510q0 255 125 390.5t359 135.5q233 0 358 -135.5t125 -390.5t-125 -390.5t-358 -135.5q-234 0 -359 135.5t-125 390.5zM346 510q0 -99 16 -164t49.5 -99.5t73.5 -47.5t99 -13t99 13t73 47.5t49 99.5t16 164t-16 164t-49 99.5t-73 47.5t-99 13t-99 -13t-73.5 -47.5 t-49.5 -99.5t-16 -164z" />
<glyph unicode="p" horiz-adv-x="1175" d="M168 -379v1071q0 66 23.5 124.5t72 109t134.5 80.5t200 30q34 0 68.5 -4t82 -18t88 -36.5t82.5 -64t71.5 -96.5t48 -137t18.5 -182q0 -250 -123 -384t-352 -134q-86 0 -168 18v-377h-246zM414 182q86 -12 151 -12q120 0 182 69.5t62 245.5q0 179 -47.5 259.5t-163.5 80.5 q-89 0 -136.5 -24.5t-47.5 -85.5v-533z" />
<glyph unicode="q" horiz-adv-x="1171" d="M115 498q0 100 18.5 182t47.5 137t70.5 96.5t82 64t87.5 36.5t81.5 18t68.5 4q114 0 200.5 -30t135.5 -80.5t73 -109.5t24 -124v-1071h-246v377q-82 -18 -170 -18q-229 0 -351 133.5t-122 384.5zM360 485q0 -91 17 -153.5t51 -97.5t76.5 -49.5t99.5 -14.5q68 0 154 12 v533q0 61 -48.5 85.5t-138.5 24.5q-116 0 -163.5 -80.5t-47.5 -259.5z" />
<glyph unicode="r" horiz-adv-x="741" d="M166 0v930q9 4 25.5 11t69.5 25t109 32t140 26t166 14v-213q-153 -2 -264 -34v-791h-246z" />
<glyph unicode="s" horiz-adv-x="923" d="M100 719q0 103 53 177t137 108t189 34q152 0 279 -73v-187q-103 49 -236 49q-176 0 -176 -86q0 -32 27 -53t70 -34.5t95 -27t104 -38t95 -59.5t70 -98t27 -148q0 -130 -104.5 -214.5t-276.5 -84.5q-177 0 -324 84v219q136 -90 289 -90q57 0 93 7t52 22t20.5 30t4.5 39 q0 34 -27 57.5t-70 38.5t-95 29.5t-104 36.5t-95 52.5t-70 84t-27 125.5z" />
<glyph unicode="t" horiz-adv-x="794" d="M49 811v211h172v303h246v-303h242v-211h-242v-504q0 -66 27.5 -89t97.5 -23q65 0 117 22v-203q-73 -30 -162 -30q-152 0 -239 90t-87 248v489h-172z" />
<glyph unicode="u" horiz-adv-x="1259" d="M168 463v559h248v-592q0 -123 49.5 -177t163.5 -54q115 0 165 54t50 177v592h248v-559q0 -226 -122.5 -352.5t-340.5 -126.5q-217 0 -339 126.5t-122 352.5z" />
<glyph unicode="v" horiz-adv-x="1169" d="M66 1022h262l256 -772l256 772h264l-391 -1022h-256z" />
<glyph unicode="w" horiz-adv-x="1710" d="M78 1022h260l217 -737l195 737h211l194 -737l217 737h260l-362 -1022h-246l-168 588l-170 -588h-246z" />
<glyph unicode="x" horiz-adv-x="1142" d="M57 0l363 516l-354 506h301l204 -291l205 291h273l-342 -483l378 -539h-301l-229 326l-231 -326h-267z" />
<glyph unicode="y" horiz-adv-x="1107" d="M63 1022h261l229 -713l225 713h260l-389 -1047q-35 -96 -76.5 -167t-78.5 -110.5t-79 -63t-74.5 -30.5t-68.5 -7q-76 0 -155 28v205q63 -25 116 -25q42 0 83.5 44.5t67 94.5t46.5 109z" />
<glyph unicode="z" horiz-adv-x="999" d="M92 0v229l471 570h-461v223h777v-227l-478 -572h478v-223h-787z" />
<glyph unicode="{" horiz-adv-x="784" d="M186 506v194q4 1 11 2.5t25 9.5t31.5 19.5t24.5 33t11 48.5v293q0 146 81 236t242 90h41v-185h-24q-35 0 -59 -9t-36.5 -21t-19 -33t-7.5 -35t-1 -37v-289q0 -86 -51.5 -142t-118.5 -79q66 -21 118 -77t52 -142v-289q0 -23 1 -37t7.5 -35t19 -33t36.5 -21t59 -9h24v-184 h-41q-161 0 -242 89.5t-81 235.5v293q0 26 -10.5 47.5t-25.5 33t-30.5 19.5t-26.5 11z" />
<glyph unicode="|" horiz-adv-x="954" d="M379 -203v1569h219v-1569h-219z" />
<glyph unicode="}" horiz-adv-x="784" d="M156 -41h22q35 0 59 9t36.5 21t19 33t7.5 35t1 37v289q0 86 52.5 142t117.5 77q-66 24 -118 79.5t-52 141.5v289q0 23 -1 37t-7.5 35t-19 33t-36.5 21t-59 9h-22v185h39q163 0 244 -90t81 -236v-293q0 -43 26 -71t52 -35l25 -7v-194q-4 -1 -11 -2.5t-25 -10t-31.5 -20 t-24.5 -33t-11 -47.5v-293q0 -146 -81 -235.5t-244 -89.5h-39v184z" />
<glyph unicode="~" horiz-adv-x="1071" d="M201 457v168q42 49 91.5 65.5t97 6.5t97 -31t99.5 -42.5t97 -31.5t96 6.5t91 65.5v-168q-42 -49 -91 -65.5t-96 -6.5t-97 31.5t-99.5 42.5t-97 31t-97 -6.5t-91.5 -65.5z" />
<glyph unicode="&#xa1;" horiz-adv-x="825" d="M283 -344l45 973h190l45 -973h-280zM303 795v227h240v-227h-240z" />
<glyph unicode="&#xa2;" horiz-adv-x="976" d="M117 682q0 246 116 381.5t334 146.5v156h119v-160q103 -11 209 -53v-205q-96 41 -209 47v-626q108 6 209 49v-205q-106 -42 -209 -53v-160h-119v156q-219 11 -334.5 145.5t-115.5 380.5zM362 682q0 -158 51.5 -228t153.5 -83v622q-102 -13 -153.5 -82.5t-51.5 -228.5z " />
<glyph unicode="&#xa3;" horiz-adv-x="1153" d="M100 -31v209q27 20 60.5 34t51 19t62.5 15v319h-174v195h174v235q0 74 23.5 140.5t72.5 123t135.5 90t201.5 33.5q167 0 331 -94v-211q-152 113 -313 113q-117 0 -178.5 -56.5t-61.5 -152.5v-221h377v-195h-377v-325q16 -4 67 -18t71.5 -19t67 -15t72 -11.5t67.5 -2.5 t72 5t66.5 18.5t69.5 31.5v-215q-65 -33 -135 -41.5t-132.5 2t-128 28t-131 32t-130.5 19t-138 -16t-143 -68.5z" />
<glyph unicode="&#xa5;" horiz-adv-x="1396" d="M37 1366h297l362 -555l361 555h297l-410 -598h162v-184h-287v-160h287v-184h-287v-240h-246v240h-288v184h288v160h-288v184h161z" />
<glyph unicode="&#xa7;" horiz-adv-x="1247" d="M137 709q0 66 41 115.5t96.5 71.5t116.5 24q-46 21 -78 70t-32 102q0 65 25.5 116.5t67 84t98.5 53.5t116 29.5t123 8.5q183 0 344 -92v-211q-164 78 -314 78q-31 0 -61.5 -4t-62.5 -13.5t-52 -29t-20 -47.5q0 -24 31.5 -44t81.5 -37t110 -35.5t120.5 -44.5t110.5 -59 t81.5 -84.5t31.5 -115.5q0 -86 -65.5 -137.5t-161.5 -61.5q37 -23 60.5 -67t23.5 -100q0 -133 -116.5 -214t-315.5 -81q-214 0 -394 120v230q163 -133 369 -133q82 0 141.5 22t59.5 70q0 26 -32 46.5t-82.5 36.5t-112 33t-123 42t-112 57t-82.5 84t-32 117zM401 719 q0 -41 80 -79q54 -26 242 -89q62 7 93.5 33.5t31.5 54.5q0 23 -24 44.5t-63.5 37.5t-79 29t-82 26t-60.5 21q-25 -3 -54 -10.5t-56.5 -26t-27.5 -41.5z" />
<glyph unicode="&#xa8;" horiz-adv-x="856" d="M162 1155v195h207v-195h-207zM489 1155v195h207v-195h-207z" />
<glyph unicode="&#xa9;" horiz-adv-x="1593" d="M98 682q0 190 94 351.5t255 255t350 93.5q143 0 272.5 -55.5t223 -149t149 -223t55.5 -272.5q0 -142 -55.5 -271t-149 -222.5t-223 -149t-272.5 -55.5q-189 0 -350 93.5t-255 254.5t-94 350zM203 682q0 -161 79.5 -298t216.5 -216.5t298 -79.5q162 0 299.5 79.5 t217 216.5t79.5 298q0 122 -47 232t-127 190t-190 127t-232 47q-161 0 -298 -79.5t-216.5 -217t-79.5 -299.5zM440 682q0 71 12 129.5t32 100.5t49 74t60.5 52t69.5 32.5t73.5 17t74.5 4.5q123 0 242 -48v-135q-118 54 -230 54q-42 0 -73.5 -5t-64.5 -22.5t-53.5 -47 t-34 -82t-13.5 -124.5q0 -71 13.5 -123t34 -81.5t53.5 -47t64.5 -22.5t73.5 -5q119 0 230 54v-135q-119 -48 -242 -48q-56 0 -104.5 9.5t-99 37t-86.5 71.5t-58.5 118.5t-22.5 171.5z" />
<glyph unicode="&#xaa;" horiz-adv-x="808" d="M154 989q0 18 3 36t17.5 45.5t38.5 48t72 35.5t112 15q39 0 101 -8q0 107 -121 107q-97 0 -166 -29v111q78 32 174 32q122 0 187 -62t65 -179v-154q0 -79 -59 -135.5t-181 -56.5q-125 0 -184 57t-59 137zM289 1008q0 -93 106 -93q105 0 105 89v71q-75 6 -82 6 q-129 0 -129 -73z" />
<glyph unicode="&#xab;" horiz-adv-x="1247" d="M66 522l346 389h286l-372 -389l372 -391h-286zM522 522l346 389h287l-373 -389l373 -391h-287z" />
<glyph unicode="&#xac;" horiz-adv-x="1273" d="M199 492v192h876v-389h-176v197h-700z" />
<glyph unicode="&#xad;" horiz-adv-x="950" d="M162 514v193h624v-193h-624z" />
<glyph unicode="&#xae;" horiz-adv-x="1593" d="M100 682q0 190 94 351.5t255 255t350 93.5q143 0 272.5 -55.5t223 -149t149 -223t55.5 -272.5q0 -142 -55.5 -271t-149 -222.5t-223 -149t-272.5 -55.5q-189 0 -350 93.5t-255 254.5t-94 350zM205 682q0 -161 79.5 -298t216.5 -216.5t298 -79.5q162 0 299.5 79.5 t217 216.5t79.5 298q0 122 -47 232t-127 190t-190 127t-232 47q-161 0 -298 -79.5t-216.5 -217t-79.5 -299.5zM528 285v796h306q139 0 216.5 -66.5t77.5 -189.5q0 -54 -15.5 -97t-42.5 -69.5t-55 -42.5t-61 -26l209 -305h-174l-188 280h-129v-280h-144zM672 696h157 q72 0 114 26t42 99q0 39 -12 65.5t-35.5 39t-49 17.5t-59.5 5h-157v-252z" />
<glyph unicode="&#xaf;" horiz-adv-x="825" d="M176 1180v145h479v-145h-479z" />
<glyph unicode="&#xb0;" horiz-adv-x="792" d="M168 1143q0 110 57.5 168.5t165.5 58.5t165.5 -58.5t57.5 -168.5q0 -109 -58 -167t-165 -58t-165 58t-58 167zM276 1145q0 -67 27.5 -97t87.5 -30t86.5 30t26.5 97q0 66 -26.5 95.5t-86.5 29.5t-87.5 -29.5t-27.5 -95.5z" />
<glyph unicode="&#xb1;" horiz-adv-x="1198" d="M242 61v166h727v-166h-727zM242 604v182h272v275h182v-275h273v-182h-273v-270h-182v270h-272z" />
<glyph unicode="&#xb2;" horiz-adv-x="696" d="M109 948v109q51 38 104 84t110.5 104.5t93.5 120t36 109.5q0 37 -30 62.5t-99 25.5q-54 0 -112 -18.5t-97 -47.5v133q107 64 213 64q130 0 193 -65t63 -154q0 -99 -74 -203t-180 -193h266v-131h-487z" />
<glyph unicode="&#xb3;" horiz-adv-x="686" d="M111 993v135q95 -57 200 -57q158 0 158 100q0 48 -37.5 80.5t-124.5 32.5h-94v109h98q60 0 90.5 25.5t30.5 62.5q0 44 -39 62t-90 18q-100 0 -176 -48v136q95 45 184 45q51 0 94.5 -11t80.5 -34t58 -65t21 -99q0 -89 -90 -139q56 -20 90.5 -66t34.5 -111q0 -63 -26 -110 t-69.5 -71.5t-90 -36t-95.5 -11.5q-111 0 -208 53z" />
<glyph unicode="&#xb4;" horiz-adv-x="528" d="M121 1155l127 240h201l-191 -240h-137z" />
<glyph unicode="&#xb5;" horiz-adv-x="1323" d="M203 -430v1452h243v-635q0 -40 7 -68t29.5 -57.5t74 -45t131.5 -15.5q92 0 191 18v803h245v-926q-224 -112 -469 -112q-129 0 -209 51v-465h-243z" />
<glyph unicode="&#xb6;" horiz-adv-x="911" d="M78 946q0 203 121.5 311.5t349.5 108.5h299v-1366h-232v524h-67q-228 0 -349.5 109t-121.5 313z" />
<glyph unicode="&#xb7;" horiz-adv-x="663" d="M211 444v228h240v-228h-240z" />
<glyph unicode="&#xb8;" horiz-adv-x="563" d="M119 -256l178 246h160l-127 -246h-211z" />
<glyph unicode="&#xb9;" horiz-adv-x="512" d="M109 1452v141l143 90h121v-735h-133v586z" />
<glyph unicode="&#xba;" horiz-adv-x="854" d="M152 1092q0 141 70 216.5t200 75.5t200 -75.5t70 -216.5q0 -143 -70 -219t-200 -76t-200 76t-70 219zM289 1092q0 -107 32.5 -145t100.5 -38q67 0 100 38t33 145q0 105 -33 142.5t-100 37.5q-68 0 -100.5 -37.5t-32.5 -142.5z" />
<glyph unicode="&#xbb;" horiz-adv-x="1277" d="M106 131l373 389l-373 391h287l346 -391l-346 -389h-287zM563 131l373 389l-373 391h287l346 -391l-346 -389h-287z" />
<glyph unicode="&#xbc;" horiz-adv-x="1476" d="M109 1149v141l143 90h121v-735h-133v586zM168 -45l895 1448h164l-895 -1448h-164zM825 209v108l336 418h125v-409h96v-117h-96v-209h-131v209h-330zM981 326h174v227z" />
<glyph unicode="&#xbd;" horiz-adv-x="1527" d="M109 1149v141l143 90h121v-735h-133v586zM168 -45l895 1448h164l-895 -1448h-164zM936 0v109q52 38 104.5 83.5t110 104t93.5 120t36 109.5q0 37 -30 62.5t-99 25.5q-54 0 -112 -18.5t-97 -46.5v133q105 63 213 63q130 0 193 -65t63 -154q0 -99 -73.5 -202t-180.5 -193 h266v-131h-487z" />
<glyph unicode="&#xbe;" horiz-adv-x="1691" d="M135 688v135q95 -57 201 -57q158 0 158 100q0 48 -37.5 80.5t-124.5 32.5h-94v108h98q60 0 90.5 26t30.5 63q0 44 -38.5 61.5t-90.5 17.5q-101 0 -176 -47v135q98 46 184 46q51 0 94.5 -11t80.5 -34t58 -65t21 -99q0 -90 -90 -140q56 -20 90.5 -65.5t34.5 -110.5 q0 -63 -26 -110t-69.5 -71.5t-90 -36t-95.5 -11.5q-112 0 -209 53zM369 -45l895 1448h163l-895 -1448h-163zM1032 209v108l336 418h125v-409h96v-117h-96v-209h-131v209h-330zM1188 326h174v227z" />
<glyph unicode="&#xbf;" horiz-adv-x="1042" d="M156 37q0 60 16.5 110t43.5 84.5t59 66t64.5 62t59.5 64t43.5 80.5t16.5 104v21h217v-27q0 -88 -22.5 -159.5t-55.5 -114.5t-72.5 -83t-72.5 -68t-55.5 -64.5t-22.5 -77.5q0 -88 55 -135t166 -47q97 0 176.5 33t128.5 77v-227q-151 -96 -321 -96q-92 0 -165.5 22.5 t-121 60t-79 89.5t-45 107.5t-13.5 117.5zM446 795v227h240v-227h-240z" />
<glyph unicode="&#xc0;" d="M43 0l543 1366h270l543 -1366h-264l-125 328h-578l-125 -328h-264zM459 1722h200l127 -239h-137zM516 551h408l-203 536z" />
<glyph unicode="&#xc1;" d="M43 0l543 1366h270l543 -1366h-264l-125 328h-578l-125 -328h-264zM516 551h408l-203 536zM655 1483l127 239h201l-190 -239h-138z" />
<glyph unicode="&#xc2;" d="M43 0l543 1366h270l543 -1366h-264l-125 328h-578l-125 -328h-264zM485 1483l187 250h98l188 -250h-163l-74 114l-74 -114h-162zM516 551h408l-203 536z" />
<glyph unicode="&#xc3;" d="M43 0l543 1366h270l543 -1366h-264l-125 328h-578l-125 -328h-264zM410 1481v155q42 49 89 65.5t90 6.5t88 -31t89.5 -42.5t87.5 -31.5t89.5 6.5t88.5 65.5v-155q-42 -49 -88.5 -65.5t-89.5 -6.5t-87.5 31.5t-89.5 42.5t-88 31t-90 -6.5t-89 -65.5zM516 551h408l-203 536 z" />
<glyph unicode="&#xc4;" d="M43 0l543 1366h270l543 -1366h-264l-125 328h-578l-125 -328h-264zM455 1483v194h207v-194h-207zM516 551h408l-203 536zM782 1483v194h207v-194h-207z" />
<glyph unicode="&#xc5;" d="M43 0l543 1366h270l543 -1366h-264l-125 328h-578l-125 -328h-264zM516 551h408l-203 536zM543 1599q0 83 46.5 130t131.5 47q86 0 132 -46.5t46 -130.5q0 -85 -46 -130.5t-132 -45.5q-85 0 -131.5 45.5t-46.5 130.5zM651 1599q0 -50 15.5 -69t54.5 -19t54.5 19t15.5 69 q0 49 -16 69t-54 20t-54 -20t-16 -69z" />
<glyph unicode="&#xc6;" horiz-adv-x="2039" d="M51 0l864 1366h1002v-221h-664v-346h576v-232h-576v-346h664v-221h-909v307h-478l-188 -307h-291zM655 512h353v578z" />
<glyph unicode="&#xc7;" horiz-adv-x="1286" d="M125 684q0 121 20.5 221t55 171.5t84 126.5t104 88.5t120 55t126 29.5t127.5 8q212 0 412 -81v-230q-192 90 -390 90q-50 0 -90.5 -4.5t-85 -17t-78 -34t-64.5 -58t-51 -86t-32 -120.5t-12 -159t12 -159t32 -120.5t51 -86t64.5 -58t78 -34t85 -17t90.5 -4.5q198 0 390 90 v-229q-170 -72 -349 -80l-123 -242h-213l177 244q-60 7 -114 20.5t-109.5 40t-101.5 63t-86.5 91t-69 122.5t-44.5 159.5t-16 199.5z" />
<glyph unicode="&#xc8;" horiz-adv-x="1204" d="M178 0v1366h909v-221h-663v-346h575v-232h-575v-346h663v-221h-909zM397 1722h201l127 -239h-137z" />
<glyph unicode="&#xc9;" horiz-adv-x="1204" d="M178 0v1366h909v-221h-663v-346h575v-232h-575v-346h663v-221h-909zM555 1483l127 239h201l-191 -239h-137z" />
<glyph unicode="&#xca;" horiz-adv-x="1204" d="M178 0v1366h909v-221h-663v-346h575v-232h-575v-346h663v-221h-909zM414 1483l186 250h98l189 -250h-164l-74 114l-74 -114h-161z" />
<glyph unicode="&#xcb;" horiz-adv-x="1204" d="M178 0v1366h909v-221h-663v-346h575v-232h-575v-346h663v-221h-909zM389 1483v194h207v-194h-207zM717 1483v194h207v-194h-207z" />
<glyph unicode="&#xcc;" horiz-adv-x="600" d="M35 1722h201l126 -239h-137zM178 0h246v1366h-246v-1366z" />
<glyph unicode="&#xcd;" horiz-adv-x="600" d="M178 0h246v1366h-246v-1366zM240 1483l127 239h200l-190 -239h-137z" />
<glyph unicode="&#xce;" horiz-adv-x="600" d="M63 1483l187 250h98l189 -250h-164l-74 114l-74 -114h-162zM178 0h246v1366h-246v-1366z" />
<glyph unicode="&#xcf;" horiz-adv-x="600" d="M33 1483v194h207v-194h-207zM178 0h246v1366h-246v-1366zM360 1483v194h207v-194h-207z" />
<glyph unicode="&#xd0;" horiz-adv-x="1509" d="M106 598v168h162v600h471q317 0 481 -174t164 -510q0 -335 -164.5 -508.5t-480.5 -173.5h-471v598h-162zM514 223h225q214 0 307 107t93 352q0 246 -93 353.5t-307 107.5h-225v-377h242v-168h-242v-375z" />
<glyph unicode="&#xd1;" horiz-adv-x="1587" d="M178 0v1366h279l702 -1012v1012h246v-1366h-275l-706 1020v-1020h-246zM481 1481v155q42 49 89 65.5t90 6.5t88 -31t90 -42.5t88 -31.5t89.5 6.5t88.5 65.5v-155q-42 -49 -88.5 -65.5t-89.5 -6.5t-88 31.5t-90 42.5t-88 31t-90 -6.5t-89 -65.5z" />
<glyph unicode="&#xd2;" horiz-adv-x="1538" d="M125 682q0 121 20.5 221t55 171.5t84 126.5t104 88.5t120 55t126 29.5t127.5 8q95 0 179 -16.5t171 -63.5t148.5 -122.5t101 -203t39.5 -294.5t-39.5 -294t-101 -202t-148.5 -122t-171 -63.5t-179 -16.5q-67 0 -127.5 8t-126 29.5t-120 55t-104 88.5t-84 126t-55 171 t-20.5 220zM371 684q0 -89 11.5 -161t30.5 -122t48.5 -87t61 -58.5t73.5 -34.5t80 -17.5t86 -4.5t86.5 4.5t80.5 17.5t74 34.5t61.5 58.5t48.5 87t30.5 122t11.5 161t-11.5 160t-30.5 121t-48.5 86.5t-61.5 58t-74 34t-80.5 17t-86.5 4.5t-86 -4.5t-80 -17t-73.5 -34 t-61 -58t-48.5 -86.5t-30.5 -121t-11.5 -160zM518 1722h201l127 -239h-137z" />
<glyph unicode="&#xd3;" horiz-adv-x="1538" d="M125 682q0 121 20.5 221t55 171.5t84 126.5t104 88.5t120 55t126 29.5t127.5 8q95 0 179 -16.5t171 -63.5t148.5 -122.5t101 -203t39.5 -294.5t-39.5 -294t-101 -202t-148.5 -122t-171 -63.5t-179 -16.5q-67 0 -127.5 8t-126 29.5t-120 55t-104 88.5t-84 126t-55 171 t-20.5 220zM371 684q0 -89 11.5 -161t30.5 -122t48.5 -87t61 -58.5t73.5 -34.5t80 -17.5t86 -4.5t86.5 4.5t80.5 17.5t74 34.5t61.5 58.5t48.5 87t30.5 122t11.5 161t-11.5 160t-30.5 121t-48.5 86.5t-61.5 58t-74 34t-80.5 17t-86.5 4.5t-86 -4.5t-80 -17t-73.5 -34 t-61 -58t-48.5 -86.5t-30.5 -121t-11.5 -160zM680 1483l127 239h201l-191 -239h-137z" />
<glyph unicode="&#xd4;" horiz-adv-x="1538" d="M125 682q0 121 20.5 221t55 171.5t84 126.5t104 88.5t120 55t126 29.5t127.5 8q95 0 179 -16.5t171 -63.5t148.5 -122.5t101 -203t39.5 -294.5t-39.5 -294t-101 -202t-148.5 -122t-171 -63.5t-179 -16.5q-67 0 -127.5 8t-126 29.5t-120 55t-104 88.5t-84 126t-55 171 t-20.5 220zM371 684q0 -89 11.5 -161t30.5 -122t48.5 -87t61 -58.5t73.5 -34.5t80 -17.5t86 -4.5t86.5 4.5t80.5 17.5t74 34.5t61.5 58.5t48.5 87t30.5 122t11.5 161t-11.5 160t-30.5 121t-48.5 86.5t-61.5 58t-74 34t-80.5 17t-86.5 4.5t-86 -4.5t-80 -17t-73.5 -34 t-61 -58t-48.5 -86.5t-30.5 -121t-11.5 -160zM526 1483l187 250h98l188 -250h-163l-74 114l-74 -114h-162z" />
<glyph unicode="&#xd5;" horiz-adv-x="1538" d="M125 682q0 121 20.5 221t55 171.5t84 126.5t104 88.5t120 55t126 29.5t127.5 8q95 0 179 -16.5t171 -63.5t148.5 -122.5t101 -203t39.5 -294.5t-39.5 -294t-101 -202t-148.5 -122t-171 -63.5t-179 -16.5q-67 0 -127.5 8t-126 29.5t-120 55t-104 88.5t-84 126t-55 171 t-20.5 220zM371 684q0 -89 11.5 -161t30.5 -122t48.5 -87t61 -58.5t73.5 -34.5t80 -17.5t86 -4.5t86.5 4.5t80.5 17.5t74 34.5t61.5 58.5t48.5 87t30.5 122t11.5 161t-11.5 160t-30.5 121t-48.5 86.5t-61.5 58t-74 34t-80.5 17t-86.5 4.5t-86 -4.5t-80 -17t-73.5 -34 t-61 -58t-48.5 -86.5t-30.5 -121t-11.5 -160zM451 1481v155q42 49 89 65.5t90 6.5t88 -31t89.5 -42.5t87.5 -31.5t89.5 6.5t88.5 65.5v-155q-42 -49 -88.5 -65.5t-89.5 -6.5t-87.5 31.5t-89.5 42.5t-88 31t-90 -6.5t-89 -65.5z" />
<glyph unicode="&#xd6;" horiz-adv-x="1538" d="M125 682q0 121 20.5 221t55 171.5t84 126.5t104 88.5t120 55t126 29.5t127.5 8q95 0 179 -16.5t171 -63.5t148.5 -122.5t101 -203t39.5 -294.5t-39.5 -294t-101 -202t-148.5 -122t-171 -63.5t-179 -16.5q-67 0 -127.5 8t-126 29.5t-120 55t-104 88.5t-84 126t-55 171 t-20.5 220zM371 684q0 -89 11.5 -161t30.5 -122t48.5 -87t61 -58.5t73.5 -34.5t80 -17.5t86 -4.5t86.5 4.5t80.5 17.5t74 34.5t61.5 58.5t48.5 87t30.5 122t11.5 161t-11.5 160t-30.5 121t-48.5 86.5t-61.5 58t-74 34t-80.5 17t-86.5 4.5t-86 -4.5t-80 -17t-73.5 -34 t-61 -58t-48.5 -86.5t-30.5 -121t-11.5 -160zM496 1483v194h206v-194h-206zM823 1483v194h207v-194h-207z" />
<glyph unicode="&#xd7;" horiz-adv-x="1062" d="M156 160l282 364l-282 365h184l190 -246l193 246h182l-280 -365l280 -364h-182l-193 243l-190 -243h-184z" />
<glyph unicode="&#xd8;" horiz-adv-x="1529" d="M68 0l178 211q-121 173 -121 471q0 121 20.5 221t55 171.5t84 126.5t104 88.5t120 55t126 29.5t127.5 8q235 0 385 -102l74 86h237l-180 -213q123 -176 123 -471q0 -167 -39.5 -294t-101 -202t-148.5 -122t-171 -63.5t-179 -16.5q-233 0 -387 100l-70 -84h-237zM371 684 q0 -169 39 -278l594 702q-85 57 -242 57q-48 0 -86 -4.5t-80 -17t-73.5 -34t-61 -58t-48.5 -86.5t-30.5 -121t-11.5 -160zM520 256q85 -57 242 -57q48 0 86.5 4.5t80.5 17.5t74 34.5t61.5 58.5t48.5 87t30.5 122t11.5 161q0 162 -41 274z" />
<glyph unicode="&#xd9;" horiz-adv-x="1511" d="M178 578v788h246v-809q0 -181 78.5 -264.5t247.5 -83.5q170 0 248.5 83.5t78.5 264.5v809h246v-788q0 -283 -149.5 -438.5t-423.5 -155.5q-272 0 -422 155.5t-150 438.5zM506 1722h201l127 -239h-138z" />
<glyph unicode="&#xda;" horiz-adv-x="1511" d="M178 578v788h246v-809q0 -181 78.5 -264.5t247.5 -83.5q170 0 248.5 83.5t78.5 264.5v809h246v-788q0 -283 -149.5 -438.5t-423.5 -155.5q-272 0 -422 155.5t-150 438.5zM668 1483l127 239h200l-190 -239h-137z" />
<glyph unicode="&#xdb;" horiz-adv-x="1511" d="M178 578v788h246v-809q0 -181 78.5 -264.5t247.5 -83.5q170 0 248.5 83.5t78.5 264.5v809h246v-788q0 -283 -149.5 -438.5t-423.5 -155.5q-272 0 -422 155.5t-150 438.5zM514 1483l186 250h99l188 -250h-164l-73 114l-74 -114h-162z" />
<glyph unicode="&#xdc;" horiz-adv-x="1511" d="M178 578v788h246v-809q0 -181 78.5 -264.5t247.5 -83.5q170 0 248.5 83.5t78.5 264.5v809h246v-788q0 -283 -149.5 -438.5t-423.5 -155.5q-272 0 -422 155.5t-150 438.5zM483 1483v194h207v-194h-207zM811 1483v194h207v-194h-207z" />
<glyph unicode="&#xdd;" horiz-adv-x="1368" d="M25 1366h297l362 -555l360 555h297l-534 -780v-586h-246v586zM594 1483l127 239h201l-191 -239h-137z" />
<glyph unicode="&#xde;" horiz-adv-x="1253" d="M176 0v1366h246v-172h209q241 0 373.5 -120.5t132.5 -338.5t-132.5 -338.5t-373.5 -120.5h-209v-276h-246zM422 500h190q84 0 141 16t86.5 49t41.5 73t12 97q0 56 -12 95.5t-41.5 72t-86.5 48.5t-141 16h-190v-467z" />
<glyph unicode="&#xdf;" horiz-adv-x="1255" d="M180 0v856q0 105 18.5 190t52 140.5t75.5 95.5t94 61t101 30t104 9q114 0 205.5 -33t146.5 -88t84 -121t29 -136q0 -108 -63 -186t-134 -105q28 -8 54 -18.5t65.5 -36t68 -56.5t49.5 -82.5t21 -113.5q0 -201 -159.5 -309.5t-413.5 -96.5v199q51 -1 95.5 3.5t92 19 t81.5 37.5t55.5 63t21.5 92q0 41 -16.5 74t-46.5 54.5t-63.5 36.5t-75.5 23t-75 11.5t-69 4.5v181q47 0 90 7t92.5 26t79.5 60.5t30 102.5q0 213 -219 213q-40 0 -71.5 -7t-65 -29.5t-55.5 -60t-36.5 -104t-14.5 -157.5v-850h-228z" />
<glyph unicode="&#xe0;" horiz-adv-x="1110" d="M115 334q0 31 5.5 63.5t32 81.5t70 85.5t130 63.5t202.5 27q84 0 180 -14q0 193 -217 193q-172 0 -299 -52v199q140 57 313 57q218 0 334.5 -111.5t116.5 -322.5v-276q0 -66 -23.5 -124.5t-72 -109t-134.5 -80.5t-200 -30q-94 0 -169.5 20t-125 54t-82.5 79.5t-47 94.5 t-14 102zM313 1395h201l127 -240h-137zM358 365q0 -164 193 -164q186 0 186 155v129q-93 13 -147 13q-232 0 -232 -133z" />
<glyph unicode="&#xe1;" horiz-adv-x="1110" d="M115 334q0 31 5.5 63.5t32 81.5t70 85.5t130 63.5t202.5 27q84 0 180 -14q0 193 -217 193q-172 0 -299 -52v199q140 57 313 57q218 0 334.5 -111.5t116.5 -322.5v-276q0 -66 -23.5 -124.5t-72 -109t-134.5 -80.5t-200 -30q-94 0 -169.5 20t-125 54t-82.5 79.5t-47 94.5 t-14 102zM358 365q0 -164 193 -164q186 0 186 155v129q-93 13 -147 13q-232 0 -232 -133zM459 1155l127 240h200l-190 -240h-137z" />
<glyph unicode="&#xe2;" horiz-adv-x="1110" d="M115 334q0 31 5.5 63.5t32 81.5t70 85.5t130 63.5t202.5 27q84 0 180 -14q0 193 -217 193q-172 0 -299 -52v199q140 57 313 57q218 0 334.5 -111.5t116.5 -322.5v-276q0 -66 -23.5 -124.5t-72 -109t-134.5 -80.5t-200 -30q-94 0 -169.5 20t-125 54t-82.5 79.5t-47 94.5 t-14 102zM338 1155l186 250h99l188 -250h-164l-74 115l-73 -115h-162zM358 365q0 -164 193 -164q186 0 186 155v129q-93 13 -147 13q-232 0 -232 -133z" />
<glyph unicode="&#xe3;" horiz-adv-x="1110" d="M115 334q0 31 5.5 63.5t32 81.5t70 85.5t130 63.5t202.5 27q84 0 180 -14q0 193 -217 193q-172 0 -299 -52v199q140 57 313 57q218 0 334.5 -111.5t116.5 -322.5v-276q0 -66 -23.5 -124.5t-72 -109t-134.5 -80.5t-200 -30q-94 0 -169.5 20t-125 54t-82.5 79.5t-47 94.5 t-14 102zM258 1153v156q42 49 89 65.5t90 6.5t88 -31t90 -42.5t88 -31.5t89.5 6.5t88.5 65.5v-156q-42 -49 -88.5 -65.5t-89.5 -6.5t-88 31.5t-90 42.5t-88 31t-90 -6.5t-89 -65.5zM358 365q0 -164 193 -164q186 0 186 155v129q-93 13 -147 13q-232 0 -232 -133z" />
<glyph unicode="&#xe4;" horiz-adv-x="1110" d="M115 334q0 31 5.5 63.5t32 81.5t70 85.5t130 63.5t202.5 27q84 0 180 -14q0 193 -217 193q-172 0 -299 -52v199q140 57 313 57q218 0 334.5 -111.5t116.5 -322.5v-276q0 -66 -23.5 -124.5t-72 -109t-134.5 -80.5t-200 -30q-94 0 -169.5 20t-125 54t-82.5 79.5t-47 94.5 t-14 102zM287 1155v195h207v-195h-207zM358 365q0 -164 193 -164q186 0 186 155v129q-93 13 -147 13q-232 0 -232 -133zM614 1155v195h207v-195h-207z" />
<glyph unicode="&#xe5;" horiz-adv-x="1110" d="M115 334q0 31 5.5 63.5t32 81.5t70 85.5t130 63.5t202.5 27q84 0 180 -14q0 193 -217 193q-172 0 -299 -52v199q140 57 313 57q218 0 334.5 -111.5t116.5 -322.5v-276q0 -66 -23.5 -124.5t-72 -109t-134.5 -80.5t-200 -30q-94 0 -169.5 20t-125 54t-82.5 79.5t-47 94.5 t-14 102zM358 365q0 -164 193 -164q186 0 186 155v129q-93 13 -147 13q-232 0 -232 -133zM389 1272q0 83 46.5 129.5t131.5 46.5q86 0 132 -46t46 -130q0 -85 -46 -130.5t-132 -45.5q-85 0 -131.5 45.5t-46.5 130.5zM498 1272q0 -50 15 -69t54 -19t54.5 19t15.5 69 q0 49 -15.5 68.5t-54.5 19.5q-38 0 -53.5 -19.5t-15.5 -68.5z" />
<glyph unicode="&#xe6;" horiz-adv-x="1792" d="M109 334q0 31 5.5 63.5t32 81.5t70 85.5t130 63.5t202.5 27q84 0 180 -14q0 193 -217 193q-172 0 -299 -52v199q140 57 313 57q115 0 203 -38.5t135 -104.5q34 58 120 101.5t200 43.5q115 0 205 -41t143.5 -111t80.5 -157t27 -186q0 -86 -4 -127h-657q4 -57 21.5 -98.5 t41.5 -65t59 -37.5t66.5 -18t71.5 -4q182 0 348 79v-198q-170 -92 -385 -92q-105 0 -194 43t-134 102q-106 -145 -327 -145q-94 0 -169.5 20t-125 54t-82.5 79.5t-47 94.5t-14 102zM352 365q0 -164 193 -164q186 0 186 155v129q-93 13 -147 13q-232 0 -232 -133zM979 588 h412q-10 107 -62.5 179.5t-144.5 72.5q-93 0 -144 -59.5t-61 -192.5z" />
<glyph unicode="&#xe7;" horiz-adv-x="966" d="M119 510q0 255 125 391.5t358 136.5q152 0 295 -57v-205q-120 49 -254 49q-70 0 -117 -12.5t-85.5 -45.5t-57 -96.5t-18.5 -160.5q0 -77 13 -133t35 -91t58 -55.5t76.5 -28t95.5 -7.5q129 0 254 51v-205q-107 -44 -227 -53l-123 -244h-213l176 246q-191 25 -291 158 t-100 362z" />
<glyph unicode="&#xe8;" horiz-adv-x="1144" d="M129 500q0 118 25 213.5t77.5 170t142.5 115.5t212 41q115 0 205 -41t143.5 -111t80.5 -157t27 -186q0 -86 -4 -127h-657q4 -57 21.5 -98.5t41.5 -65t59 -37.5t66.5 -18t71.5 -4q182 0 348 79v-198q-170 -92 -385 -92q-47 0 -90.5 5.5t-92 21t-89.5 40t-79.5 64.5 t-65 92.5t-42.5 127.5t-16 165zM334 1395h201l127 -240h-138zM381 588h412q-10 107 -62.5 179.5t-144.5 72.5q-93 0 -144 -59.5t-61 -192.5z" />
<glyph unicode="&#xe9;" horiz-adv-x="1144" d="M129 500q0 118 25 213.5t77.5 170t142.5 115.5t212 41q115 0 205 -41t143.5 -111t80.5 -157t27 -186q0 -86 -4 -127h-657q4 -57 21.5 -98.5t41.5 -65t59 -37.5t66.5 -18t71.5 -4q182 0 348 79v-198q-170 -92 -385 -92q-47 0 -90.5 5.5t-92 21t-89.5 40t-79.5 64.5 t-65 92.5t-42.5 127.5t-16 165zM381 588h412q-10 107 -62.5 179.5t-144.5 72.5q-93 0 -144 -59.5t-61 -192.5zM496 1155l127 240h200l-190 -240h-137z" />
<glyph unicode="&#xea;" horiz-adv-x="1144" d="M129 500q0 118 25 213.5t77.5 170t142.5 115.5t212 41q115 0 205 -41t143.5 -111t80.5 -157t27 -186q0 -86 -4 -127h-657q4 -57 21.5 -98.5t41.5 -65t59 -37.5t66.5 -18t71.5 -4q182 0 348 79v-198q-170 -92 -385 -92q-47 0 -90.5 5.5t-92 21t-89.5 40t-79.5 64.5 t-65 92.5t-42.5 127.5t-16 165zM346 1155l186 250h99l188 -250h-164l-73 115l-74 -115h-162zM381 588h412q-10 107 -62.5 179.5t-144.5 72.5q-93 0 -144 -59.5t-61 -192.5z" />
<glyph unicode="&#xeb;" horiz-adv-x="1144" d="M129 500q0 118 25 213.5t77.5 170t142.5 115.5t212 41q115 0 205 -41t143.5 -111t80.5 -157t27 -186q0 -86 -4 -127h-657q4 -57 21.5 -98.5t41.5 -65t59 -37.5t66.5 -18t71.5 -4q182 0 348 79v-198q-170 -92 -385 -92q-47 0 -90.5 5.5t-92 21t-89.5 40t-79.5 64.5 t-65 92.5t-42.5 127.5t-16 165zM309 1155v195h207v-195h-207zM381 588h412q-10 107 -62.5 179.5t-144.5 72.5q-93 0 -144 -59.5t-61 -192.5zM637 1155v195h207v-195h-207z" />
<glyph unicode="&#xec;" horiz-adv-x="638" d="M63 1395h201l127 -240h-137zM197 0h245v1022h-245v-1022z" />
<glyph unicode="&#xed;" horiz-adv-x="638" d="M197 0h245v1022h-245v-1022zM248 1155l127 240h200l-190 -240h-137z" />
<glyph unicode="&#xee;" horiz-adv-x="638" d="M84 1155l186 250h99l188 -250h-164l-74 115l-73 -115h-162zM197 0h245v1022h-245v-1022z" />
<glyph unicode="&#xef;" horiz-adv-x="638" d="M53 1155v195h207v-195h-207zM197 0h245v1022h-245v-1022zM381 1155v195h207v-195h-207z" />
<glyph unicode="&#xf0;" horiz-adv-x="1232" d="M117 461q0 211 121 331.5t342 120.5q61 0 132.5 -17t116.5 -52q-26 152 -145 237l-180 -123l-78 113l104 74q-41 10 -90 10q-81 0 -145 -10v219q92 20 160 20q178 0 315 -75l162 112l78 -114l-123 -84q198 -194 198 -594q0 -645 -485 -645q-102 0 -185.5 29t-138 76 t-91 110t-52.5 128.5t-16 133.5zM365 463q0 -23 3 -49t17 -66.5t37.5 -71t69.5 -53t108 -22.5q20 0 40.5 4t45.5 16.5t47.5 31.5t43 52t35 75.5t22 105t4.5 137.5q-102 69 -238 69q-112 0 -173.5 -62t-61.5 -167z" />
<glyph unicode="&#xf1;" horiz-adv-x="1273" d="M168 0v926q224 112 469 112q214 0 333.5 -112t119.5 -312v-614h-244v635q0 40 -7 68t-29.5 57.5t-74 45t-131.5 15.5q-91 0 -190 -18v-803h-246zM326 1153v156q42 49 89 65.5t90 6.5t88 -31t89.5 -42.5t87.5 -31.5t89.5 6.5t88.5 65.5v-156q-42 -49 -88.5 -65.5 t-89.5 -6.5t-87.5 31.5t-89.5 42.5t-88 31t-90 -6.5t-89 -65.5z" />
<glyph unicode="&#xf2;" horiz-adv-x="1159" d="M100 510q0 255 125 390.5t359 135.5q233 0 358 -135.5t125 -390.5t-125 -390.5t-358 -135.5q-234 0 -359 135.5t-125 390.5zM326 1395h200l127 -240h-137zM346 510q0 -99 16 -164t49.5 -99.5t73.5 -47.5t99 -13t99 13t73 47.5t49 99.5t16 164t-16 164t-49 99.5t-73 47.5 t-99 13t-99 -13t-73.5 -47.5t-49.5 -99.5t-16 -164z" />
<glyph unicode="&#xf3;" horiz-adv-x="1159" d="M100 510q0 255 125 390.5t359 135.5q233 0 358 -135.5t125 -390.5t-125 -390.5t-358 -135.5q-234 0 -359 135.5t-125 390.5zM346 510q0 -99 16 -164t49.5 -99.5t73.5 -47.5t99 -13t99 13t73 47.5t49 99.5t16 164t-16 164t-49 99.5t-73 47.5t-99 13t-99 -13t-73.5 -47.5 t-49.5 -99.5t-16 -164zM514 1155l127 240h201l-191 -240h-137z" />
<glyph unicode="&#xf4;" horiz-adv-x="1159" d="M100 510q0 255 125 390.5t359 135.5q233 0 358 -135.5t125 -390.5t-125 -390.5t-358 -135.5q-234 0 -359 135.5t-125 390.5zM346 510q0 -99 16 -164t49.5 -99.5t73.5 -47.5t99 -13t99 13t73 47.5t49 99.5t16 164t-16 164t-49 99.5t-73 47.5t-99 13t-99 -13t-73.5 -47.5 t-49.5 -99.5t-16 -164zM348 1155l187 250h98l188 -250h-164l-73 115l-74 -115h-162z" />
<glyph unicode="&#xf5;" horiz-adv-x="1159" d="M100 510q0 255 125 390.5t359 135.5q233 0 358 -135.5t125 -390.5t-125 -390.5t-358 -135.5q-234 0 -359 135.5t-125 390.5zM272 1153v156q42 49 89 65.5t90 6.5t88 -31t90 -42.5t88 -31.5t89.5 6.5t88.5 65.5v-156q-42 -49 -88.5 -65.5t-89.5 -6.5t-88 31.5t-90 42.5 t-88 31t-90 -6.5t-89 -65.5zM346 510q0 -99 16 -164t49.5 -99.5t73.5 -47.5t99 -13t99 13t73 47.5t49 99.5t16 164t-16 164t-49 99.5t-73 47.5t-99 13t-99 -13t-73.5 -47.5t-49.5 -99.5t-16 -164z" />
<glyph unicode="&#xf6;" horiz-adv-x="1159" d="M100 510q0 255 125 390.5t359 135.5q233 0 358 -135.5t125 -390.5t-125 -390.5t-358 -135.5q-234 0 -359 135.5t-125 390.5zM317 1155v195h207v-195h-207zM346 510q0 -99 16 -164t49.5 -99.5t73.5 -47.5t99 -13t99 13t73 47.5t49 99.5t16 164t-16 164t-49 99.5t-73 47.5 t-99 13t-99 -13t-73.5 -47.5t-49.5 -99.5t-16 -164zM645 1155v195h207v-195h-207z" />
<glyph unicode="&#xf7;" horiz-adv-x="1286" d="M211 446v164h866v-164h-866zM541 129v193h207v-193h-207zM541 737v193h207v-193h-207z" />
<glyph unicode="&#xf8;" horiz-adv-x="1175" d="M39 0l147 176q-82 133 -82 334q0 255 125 390.5t359 135.5q165 0 270 -63l43 49h238l-150 -176q82 -128 82 -336q0 -255 -125 -390.5t-358 -135.5q-159 0 -271 65l-41 -49h-237zM350 510q0 -67 10 -129l361 426q-50 27 -133 27q-59 0 -99 -13t-73.5 -47.5t-49.5 -99.5 t-16 -164zM457 215q54 -29 131 -29q59 0 99 13t73 47.5t49 99.5t16 164q0 82 -8 131z" />
<glyph unicode="&#xf9;" horiz-adv-x="1259" d="M168 463v559h248v-592q0 -123 49.5 -177t163.5 -54q115 0 165 54t50 177v592h248v-559q0 -226 -122.5 -352.5t-340.5 -126.5q-217 0 -339 126.5t-122 352.5zM381 1395h201l127 -240h-138z" />
<glyph unicode="&#xfa;" horiz-adv-x="1259" d="M168 463v559h248v-592q0 -123 49.5 -177t163.5 -54q115 0 165 54t50 177v592h248v-559q0 -226 -122.5 -352.5t-340.5 -126.5q-217 0 -339 126.5t-122 352.5zM551 1155l127 240h201l-191 -240h-137z" />
<glyph unicode="&#xfb;" horiz-adv-x="1259" d="M168 463v559h248v-592q0 -123 49.5 -177t163.5 -54q115 0 165 54t50 177v592h248v-559q0 -226 -122.5 -352.5t-340.5 -126.5q-217 0 -339 126.5t-122 352.5zM393 1155l187 250h98l188 -250h-164l-73 115l-74 -115h-162z" />
<glyph unicode="&#xfc;" horiz-adv-x="1259" d="M168 463v559h248v-592q0 -123 49.5 -177t163.5 -54q115 0 165 54t50 177v592h248v-559q0 -226 -122.5 -352.5t-340.5 -126.5q-217 0 -339 126.5t-122 352.5zM362 1155v195h207v-195h-207zM690 1155v195h207v-195h-207z" />
<glyph unicode="&#xfd;" horiz-adv-x="1107" d="M63 1022h261l229 -713l225 713h260l-389 -1047q-35 -96 -76.5 -167t-78.5 -110.5t-79 -63t-74.5 -30.5t-68.5 -7q-76 0 -155 28v205q63 -25 116 -25q42 0 83.5 44.5t67 94.5t46.5 109zM473 1155l127 240h201l-191 -240h-137z" />
<glyph unicode="&#xfe;" horiz-adv-x="1157" d="M170 -377v1778h246v-389q88 16 168 16q229 0 352 -133t123 -383t-123 -383t-352 -133q-80 0 -168 16v-389h-246zM416 207q73 -17 159 -17q115 0 175.5 71t60.5 251t-60.5 251t-175.5 71q-86 0 -159 -17v-610z" />
<glyph unicode="&#xff;" horiz-adv-x="1107" d="M63 1022h261l229 -713l225 713h260l-389 -1047q-35 -96 -76.5 -167t-78.5 -110.5t-79 -63t-74.5 -30.5t-68.5 -7q-76 0 -155 28v205q63 -25 116 -25q42 0 83.5 44.5t67 94.5t46.5 109zM285 1155v195h207v-195h-207zM612 1155v195h207v-195h-207z" />
<glyph unicode="&#x152;" horiz-adv-x="2074" d="M123 682q0 121 20.5 221t55 171.5t84 126.5t104 88.5t120 55t126 29.5t127.5 8q148 0 270 -43v27h909v-221h-663v-346h575v-232h-575v-346h663v-221h-909v27q-115 -43 -270 -43q-67 0 -127.5 8t-126 29.5t-120 55t-104 88.5t-84 126t-55 171t-20.5 220zM369 684 q0 -89 12.5 -161t33 -122t52.5 -87t66.5 -58.5t80 -34.5t87 -17.5t92.5 -4.5q145 0 237 37v884q-109 45 -237 45q-74 0 -129 -9t-113.5 -38.5t-96 -80.5t-61.5 -140.5t-24 -212.5z" />
<glyph unicode="&#x153;" horiz-adv-x="1853" d="M98 512q0 255 125 390.5t359 135.5q229 0 356 -133q119 135 338 135q115 0 205 -41t144 -111t81 -157t27 -186q0 -86 -4 -127h-658q4 -57 21.5 -98.5t41.5 -65t59 -37.5t66.5 -18t71.5 -4q182 0 348 79v-198q-170 -92 -385 -92q-235 0 -356 135q-124 -133 -356 -133 q-234 0 -359 135.5t-125 390.5zM344 512q0 -99 16 -164t49.5 -99.5t73.5 -47.5t99 -13t99 13t73 47.5t49 99.5t16 164t-16 164t-49 99.5t-73 47.5t-99 13t-99 -13t-73.5 -47.5t-49.5 -99.5t-16 -164zM1071 588h412q-10 107 -62.5 179.5t-144.5 72.5q-93 0 -144 -59.5 t-61 -192.5z" />
<glyph unicode="&#x178;" horiz-adv-x="1368" d="M25 1366h297l362 -555l360 555h297l-534 -780v-586h-246v586zM418 1483v194h207v-194h-207zM745 1483v194h207v-194h-207z" />
<glyph unicode="&#x2c6;" horiz-adv-x="874" d="M201 1155l186 250h98l189 -250h-164l-74 115l-74 -115h-161z" />
<glyph unicode="&#x2dc;" horiz-adv-x="1058" d="M215 1153v156q42 49 89 65.5t90 6.5t88 -31t90 -42.5t88 -31.5t89.5 6.5t88.5 65.5v-156q-42 -49 -88.5 -65.5t-89.5 -6.5t-88 31.5t-90 42.5t-88 31t-90 -6.5t-89 -65.5z" />
<glyph unicode="&#x2000;" horiz-adv-x="888" />
<glyph unicode="&#x2001;" horiz-adv-x="1776" />
<glyph unicode="&#x2002;" horiz-adv-x="888" />
<glyph unicode="&#x2003;" horiz-adv-x="1776" />
<glyph unicode="&#x2004;" horiz-adv-x="592" />
<glyph unicode="&#x2005;" horiz-adv-x="444" />
<glyph unicode="&#x2006;" horiz-adv-x="296" />
<glyph unicode="&#x2007;" horiz-adv-x="296" />
<glyph unicode="&#x2008;" horiz-adv-x="222" />
<glyph unicode="&#x2009;" horiz-adv-x="355" />
<glyph unicode="&#x200a;" horiz-adv-x="98" />
<glyph unicode="&#x2010;" horiz-adv-x="950" d="M162 514v193h624v-193h-624z" />
<glyph unicode="&#x2011;" horiz-adv-x="950" d="M162 514v193h624v-193h-624z" />
<glyph unicode="&#x2012;" horiz-adv-x="950" d="M162 514v193h624v-193h-624z" />
<glyph unicode="&#x2013;" horiz-adv-x="1146" d="M141 500v192h860v-192h-860z" />
<glyph unicode="&#x2014;" horiz-adv-x="1824" d="M162 500v192h1501v-192h-1501z" />
<glyph unicode="&#x2018;" horiz-adv-x="552" d="M96 1384h215l152 -401h-184z" />
<glyph unicode="&#x2019;" horiz-adv-x="552" d="M96 983l152 401h215l-182 -401h-185z" />
<glyph unicode="&#x201a;" horiz-adv-x="651" d="M147 -229l152 401h215l-182 -401h-185z" />
<glyph unicode="&#x201c;" horiz-adv-x="858" d="M96 1384h215l152 -401h-184zM408 1384h215l151 -401h-184z" />
<glyph unicode="&#x201d;" horiz-adv-x="858" d="M96 983l152 401h215l-182 -401h-185zM408 983l151 401h215l-182 -401h-184z" />
<glyph unicode="&#x201e;" horiz-adv-x="948" d="M147 -229l152 401h215l-182 -401h-185zM459 -229l151 401h215l-182 -401h-184z" />
<glyph unicode="&#x2022;" horiz-adv-x="890" d="M172 662q0 114 80 193t194 79q113 0 192 -79t79 -193t-79 -193.5t-192 -79.5q-114 0 -194 79.5t-80 193.5z" />
<glyph unicode="&#x2026;" horiz-adv-x="1726" d="M219 0v227h240v-227h-240zM743 0v227h240v-227h-240zM1266 0v227h239v-227h-239z" />
<glyph unicode="&#x202f;" horiz-adv-x="355" />
<glyph unicode="&#x2039;" horiz-adv-x="770" d="M63 522l347 389h286l-372 -389l372 -391h-286z" />
<glyph unicode="&#x203a;" horiz-adv-x="815" d="M111 131l372 389l-372 391h286l346 -391l-346 -389h-286z" />
<glyph unicode="&#x205f;" horiz-adv-x="444" />
<glyph unicode="&#x20ac;" d="M102 412v178h162q-4 58 -4 94t4 94h-162v178h191q27 100 76 177t107.5 123.5t132 76t142.5 40.5t146 11q211 0 414 -81v-230q-195 90 -391 90q-65 0 -115.5 -8t-102 -29t-91 -64t-64.5 -106h530v-178h-567q-4 -58 -4 -94t4 -94h567v-178h-530q25 -63 64.5 -106t91 -64 t102 -29t115.5 -8q196 0 391 90v-229q-206 -82 -414 -82q-77 0 -146 10.5t-142.5 40t-132 76t-107.5 123.5t-76 178h-191z" />
<glyph unicode="&#x2122;" horiz-adv-x="1572" d="M100 1245v121h559v-121h-219v-561h-121v561h-219zM762 684v682h137l197 -285l196 285h138v-682h-123v506l-211 -303l-211 303v-506h-123z" />
<glyph unicode="&#x25fc;" horiz-adv-x="1024" d="M0 0v1024h1024v-1024h-1024z" />
<glyph unicode="&#xfb01;" horiz-adv-x="1333" d="M82 811v211h174q3 424 381 424q48 0 100 -10v-193q-36 4 -55 4q-97 0 -138.5 -46t-41.5 -179h235v-211h-235v-811h-246v811h-174zM950 1161h252v225h-252v-225zM954 0h246v1022h-246v-1022z" />
<glyph unicode="&#xfb02;" horiz-adv-x="1333" d="M82 811v211h174q3 424 381 424q48 0 100 -10v-193q-36 4 -55 4q-97 0 -138.5 -46t-41.5 -179h235v-211h-235v-811h-246v811h-174zM958 0h246v1411h-246v-1411z" />
</font>
</defs>
</svg>
