<?xml version="1.0" standalone="no"?>
<!DOCTYPE svg PUBLIC "-//W3C//DTD SVG 1.1//EN" "http://www.w3.org/Graphics/SVG/1.1/DTD/svg11.dtd" >
<svg xmlns="http://www.w3.org/2000/svg" xmlns:xlink="http://www.w3.org/1999/xlink" version="1.1">
<metadata></metadata>
<defs>
<font id="maven_promedium" horiz-adv-x="580" >
<font-face units-per-em="1000" ascent="800" descent="-200" />
<missing-glyph horiz-adv-x="338" />
<glyph unicode="B" horiz-adv-x="625" d="M458 349c0 0 118 -37 118 -158c0 -74 -31 -191 -239 -191h-250v667h231c191 0 219 -112 219 -182c0 -103 -79 -136 -79 -136zM180 584v-199h137c73 0 127 17 127 97c0 81 -53 102 -136 102h-128zM331 83c101 0 152 31 152 112c0 89 -68 107 -159 107h-144v-220z" />
<glyph unicode="A" horiz-adv-x="664" d="M543 0l-72 188h-278l-72 -188h-100l266 667h91l265 -667h-100zM332 551l-106 -277h212z" />
<glyph unicode=" "  horiz-adv-x="338" />
<glyph unicode="&#x09;" horiz-adv-x="338" />
<glyph unicode="&#xa0;" horiz-adv-x="338" />
<glyph unicode="C" horiz-adv-x="628" d="M382 76c72 0 137 17 193 42v-86c-60 -24 -128 -40 -204 -40c-141 0 -310 59 -310 342s169 342 310 342c76 0 144 -16 204 -40v-86c-56 25 -121 42 -193 42c-158 0 -225 -77 -225 -258c0 -180 67 -258 225 -258z" />
<glyph unicode="D" horiz-adv-x="674" d="M300 667c205 0 313 -115 313 -334c0 -218 -108 -333 -313 -333h-213v667h213zM285 82c163 0 236 78 236 251c0 174 -73 252 -236 252h-105v-503h105z" />
<glyph unicode="E" d="M522 580h-342v-203h301v-87h-301v-203h342v-87h-435v667h435v-87z" />
<glyph unicode="F" horiz-adv-x="549" d="M87 667h420v-87h-327v-203h288v-87h-288v-290h-93v667z" />
<glyph unicode="G" horiz-adv-x="677" d="M380 370h226v-325c-74 -35 -153 -53 -235 -53c-142 0 -310 59 -310 342c0 282 168 341 310 341c73 0 144 -13 210 -39v-85c-63 26 -130 40 -201 40c-105 0 -226 -29 -226 -257c0 -229 122 -258 228 -258c46 0 91 7 134 19v188h-136v87z" />
<glyph unicode="H" horiz-adv-x="678" d="M499 667h92v-667h-92v290h-320v-290h-92v667h92v-290h320v290z" />
<glyph unicode="I" horiz-adv-x="266" d="M179 667v-667h-92v667h92z" />
<glyph unicode="J" horiz-adv-x="455" d="M274 667h92v-464c0 -184 -122 -212 -196 -212c-56 0 -103 17 -140 41v97c32 -26 75 -47 131 -47c68 0 113 19 113 115v470z" />
<glyph unicode="K" horiz-adv-x="674" d="M319 365l308 -365h-115l-254 300l-79 -84v-216h-92v667h92v-323l306 323h117z" />
<glyph unicode="L" horiz-adv-x="532" d="M179 87h332v-87h-424v667h92v-580z" />
<glyph unicode="M" horiz-adv-x="813" d="M626 667h100v-667h-92v526l-228 -299l-227 299v-526h-92v667h100l219 -288z" />
<glyph unicode="N" horiz-adv-x="738" d="M566 667h93v-667h-103l-376 534v-534h-93v667h106l373 -531v531z" />
<glyph unicode="O" horiz-adv-x="747" d="M371 676c141 0 310 -59 310 -342s-169 -342 -310 -342s-310 59 -310 342s169 342 310 342zM371 76c101 0 217 29 217 258s-116 258 -217 258s-217 -29 -217 -258s116 -258 217 -258z" />
<glyph unicode="P" horiz-adv-x="600" d="M326 667c148 0 233 -77 233 -210s-85 -210 -233 -210h-147v-247h-93v667h240zM318 329c131 0 149 64 149 127s-18 127 -149 127h-139v-254h139z" />
<glyph unicode="Q" horiz-adv-x="747" d="M681 334c0 -249 -131 -325 -259 -339c0 -50 34 -100 100 -100v-71c-113 0 -191 77 -191 170c-131 11 -270 83 -270 340c0 282 169 341 310 341c142 0 310 -59 310 -341zM371 76c101 0 218 30 218 258s-117 257 -218 257s-217 -29 -217 -257s116 -258 217 -258z" />
<glyph unicode="R" horiz-adv-x="634" d="M424 268l177 -268h-110l-161 253h-150v-253h-93v667h246c146 0 240 -70 240 -202c0 -119 -75 -176 -149 -197zM329 341c128 0 151 61 151 121s-27 122 -155 122h-145v-243h149z" />
<glyph unicode="S" horiz-adv-x="564" d="M154 485c0 -116 355 -74 355 -310c0 -114 -90 -183 -241 -183c-73 0 -140 20 -198 49v96c53 -32 118 -56 190 -56c71 0 156 16 156 94c0 173 -355 92 -355 310c0 92 61 190 233 190c71 0 129 -20 172 -42v-92c-35 21 -90 44 -161 44c-69 0 -151 -17 -151 -100z" />
<glyph unicode="T" horiz-adv-x="568" d="M555 667v-87h-226v-580h-92v580h-225v87h543z" />
<glyph unicode="U" horiz-adv-x="720" d="M540 667h93v-392c0 -180 -100 -284 -273 -284c-174 0 -273 104 -273 284v392h93v-400c0 -131 57 -192 180 -192s180 61 180 192v400z" />
<glyph unicode="V" horiz-adv-x="629" d="M518 667h99l-256 -667h-93l-256 667h99l203 -550z" />
<glyph unicode="W" horiz-adv-x="958" d="M846 667h97l-214 -667h-95l-156 501l-157 -501h-95l-214 667h97l165 -532l164 532h79l165 -532z" />
<glyph unicode="X" horiz-adv-x="612" d="M594 667l-236 -324l242 -343h-114l-180 257l-181 -257h-113l239 334l-233 333h113l175 -249l175 249h113z" />
<glyph unicode="Y" horiz-adv-x="623" d="M611 667l-254 -368v-299h-92v298l-253 369h112l187 -273l187 273h113z" />
<glyph unicode="Z" horiz-adv-x="609" d="M536 584l-350 -492h350v-92h-472v81l352 493h-342v93h462v-83z" />
<glyph unicode="a" horiz-adv-x="534" d="M257 507c139 0 217 -74 217 -209v-144c0 -38 -15 -162 -207 -162c-196 0 -211 126 -211 165c0 99 88 158 235 158c32 0 62 -2 91 -6c-4 82 -40 118 -138 118c-57 0 -106 -14 -138 -25v78c37 14 87 27 151 27zM382 155v81c-24 4 -54 6 -87 6c-43 0 -148 -13 -148 -84 c0 -57 41 -85 120 -85c76 0 115 27 115 82z" />
<glyph unicode="b" horiz-adv-x="570" d="M281 507c104 0 229 -44 229 -251c0 -230 -138 -264 -221 -264c-191 0 -206 124 -206 162v535h91v-197c35 10 70 15 107 15zM289 73c60 0 129 21 129 183c0 149 -66 170 -137 170c-37 0 -73 -7 -107 -21v-257c0 -50 39 -75 115 -75z" />
<glyph unicode="c" horiz-adv-x="472" d="M301 75c52 0 99 13 139 32v-87c-43 -17 -93 -28 -147 -28c-152 0 -235 92 -235 258s83 257 235 257c54 0 104 -11 147 -28v-87c-40 19 -87 33 -139 33c-76 0 -147 -22 -147 -175c0 -154 71 -175 147 -175z" />
<glyph unicode="d" horiz-adv-x="562" d="M63 256c0 207 125 251 229 251c37 0 72 -5 107 -15v197h91v-535c0 -38 -15 -162 -206 -162c-83 0 -221 34 -221 264zM154 256c0 -162 69 -183 130 -183c76 0 115 25 115 75v257c-34 14 -70 21 -107 21c-71 0 -138 -21 -138 -170z" />
<glyph unicode="e" horiz-adv-x="555" d="M298 70c74 0 130 15 172 37v-83c-47 -20 -106 -33 -177 -33c-105 0 -230 44 -230 252c0 65 0 264 221 264c134 0 220 -95 220 -241c0 -24 -1 -47 -3 -69h-344c14 -104 75 -127 141 -127zM284 425c-84 0 -120 -38 -128 -145h256c-5 58 -29 145 -128 145z" />
<glyph unicode="f" horiz-adv-x="330" d="M293 627c-47 0 -92 0 -92 -104v-24h129v-80h-129v-419h-91v419h-70v80h70v24c0 123 55 186 166 186c21 0 39 -3 54 -7v-79c-10 2 -22 4 -37 4z" />
<glyph unicode="g" horiz-adv-x="538" d="M274 508c119 0 200 -55 200 -158v-371c0 -80 -38 -175 -219 -175c-54 0 -103 8 -148 21v87c42 -13 89 -22 140 -22c136 0 136 56 136 89v44c-33 -9 -67 -14 -101 -14c-143 0 -222 87 -222 244c0 145 62 255 214 255zM383 111v245c0 18 0 70 -109 70 c-57 0 -122 -19 -122 -173c0 -142 62 -161 130 -161c35 0 69 6 101 19z" />
<glyph unicode="h" d="M318 507c124 0 195 -77 195 -213v-294h-92v297c0 109 -60 122 -112 122c-48 0 -92 -12 -123 -24v-395h-92v689h92v-207c36 14 81 25 132 25z" />
<glyph unicode="i" horiz-adv-x="288" d="M98 0v499h92v-499h-92zM193 673v-97h-98v97h98z" />
<glyph unicode="j" horiz-adv-x="257" d="M86 576v97h97v-97h-97zM180 499v-528c0 -112 -58 -167 -177 -167v78c77 0 86 41 86 89v528h91z" />
<glyph unicode="k" horiz-adv-x="588" d="M306 291l246 -291h-122l-185 232l-62 -60v-172h-91v689h91v-399l216 209h124z" />
<glyph unicode="l" horiz-adv-x="294" d="M101 689h92v-689h-92v689z" />
<glyph unicode="m" horiz-adv-x="905" d="M618 508c126 0 200 -70 200 -187v-321h-91v327c0 47 -13 96 -103 96c-57 0 -105 -16 -134 -28c8 -22 12 -47 12 -74v-321h-92v326c0 47 -13 95 -115 95c-41 0 -79 -7 -109 -15v-406h-92v458c18 9 102 50 208 50c55 0 100 -14 133 -38c37 15 104 38 183 38z" />
<glyph unicode="n" horiz-adv-x="585" d="M174 0h-92v456c4 2 96 52 213 52c126 0 201 -70 201 -186v-322h-92v328c0 47 -13 95 -113 95c-45 0 -86 -8 -117 -18v-405z" />
<glyph unicode="o" horiz-adv-x="567" d="M284 506c107 0 235 -45 235 -257s-128 -257 -235 -257s-235 45 -235 257s128 257 235 257zM284 73c75 0 143 21 143 176s-68 176 -143 176s-143 -21 -143 -176s68 -176 143 -176z" />
<glyph unicode="p" horiz-adv-x="570" d="M510 244c0 -208 -125 -252 -230 -252c-36 0 -72 5 -106 15v-197h-92v536c0 38 15 161 207 161c82 0 221 -34 221 -263zM418 244c0 162 -69 183 -129 183c-76 0 -115 -25 -115 -75v-258c34 -13 69 -20 106 -20c72 0 138 20 138 170z" />
<glyph unicode="q" horiz-adv-x="565" d="M285 -8c-105 0 -229 44 -229 252c0 229 138 263 220 263c192 0 207 -123 207 -161v-536h-92v197c-34 -10 -70 -15 -106 -15zM276 427c-60 0 -129 -21 -129 -183c0 -150 66 -170 138 -170c37 0 73 7 106 20v258c0 50 -38 75 -115 75z" />
<glyph unicode="r" horiz-adv-x="343" d="M173 402v-402h-92v457c5 2 109 50 243 50v-84c-59 -1 -112 -11 -151 -21z" />
<glyph unicode="s" horiz-adv-x="436" d="M229 507c48 0 94 -13 134 -33v-79c-37 17 -79 30 -123 30c-81 0 -99 -30 -99 -64c0 -80 255 -34 255 -222c0 -69 -49 -147 -186 -147c-61 0 -109 16 -144 35v83c32 -18 78 -37 140 -37c68 0 98 29 98 62c0 112 -254 51 -254 223c0 72 47 149 179 149z" />
<glyph unicode="t" horiz-adv-x="374" d="M335 422h-133v-290c0 -43 28 -59 75 -59c26 0 45 7 58 15v-82c-20 -8 -43 -14 -71 -14c-32 0 -153 11 -153 146v284h-87v77h87v149h91v-149h133v-77z" />
<glyph unicode="u" horiz-adv-x="590" d="M412 499h92v-289c0 -139 -77 -219 -211 -219s-211 80 -211 219v289h91v-296c0 -91 37 -131 120 -131c82 0 119 40 119 131v296z" />
<glyph unicode="v" horiz-adv-x="541" d="M411 499h98l-192 -499h-94l-191 499h98l140 -389z" />
<glyph unicode="w" horiz-adv-x="809" d="M669 499h101l-165 -499h-91l-109 347l-110 -347h-91l-165 499h101l112 -369l110 369h85l111 -369z" />
<glyph unicode="x" horiz-adv-x="524" d="M316 256l180 -256h-112l-122 173l-122 -173h-112l180 249l-176 250h112l118 -167l118 167h112z" />
<glyph unicode="y" horiz-adv-x="524" d="M395 499h98l-205 -552c-44 -119 -108 -144 -155 -144c-23 0 -47 3 -70 8v82c19 -5 38 -8 56 -8c50 0 82 60 100 115l-188 499h98l134 -374z" />
<glyph unicode="z" horiz-adv-x="470" d="M51 499h365v-84l-253 -329h253v-86h-371v84l254 330h-248v85z" />
<glyph horiz-adv-x="0" />
<glyph horiz-adv-x="0" />
<glyph unicode="1" horiz-adv-x="452" d="M212 667h101v-667h-93v576l-117 -68v97z" />
<glyph unicode="2" horiz-adv-x="581" d="M491 483c0 -142 -141 -292 -253 -390h260v-93h-421v74c126 96 323 274 323 408c0 89 -81 107 -148 107c-74 0 -130 -27 -164 -50v88c43 25 102 48 176 48c167 0 227 -99 227 -192z" />
<glyph unicode="3" horiz-adv-x="583" d="M390 357c52 -23 112 -71 112 -162c0 -98 -66 -203 -250 -203c-69 0 -126 18 -171 39v91c38 -22 94 -45 163 -45c76 0 165 20 165 117c0 96 -95 117 -175 117h-58v82h56c66 0 144 17 144 97c0 81 -78 98 -144 98c-57 0 -103 -16 -136 -34v89c39 18 88 32 147 32 c167 0 226 -95 226 -185c0 -68 -39 -109 -79 -133z" />
<glyph unicode="4" horiz-adv-x="591" d="M435 293h95v-83h-95v-210h-93v210h-304v83l293 374h104v-374zM148 293h194v241z" />
<glyph unicode="5" horiz-adv-x="600" d="M121 667h369v-86h-288l-16 -170c30 8 64 13 101 13c155 0 237 -75 237 -216c0 -142 -82 -216 -237 -216c-87 0 -151 22 -196 50v100c32 -30 89 -61 188 -61c126 0 152 51 152 127c0 77 -27 128 -162 128c-54 0 -99 -10 -135 -24l-47 49z" />
<glyph unicode="6" horiz-adv-x="587" d="M370 675c39 0 74 -6 103 -14v-84c-24 7 -55 12 -89 12c-119 0 -195 -69 -220 -189c0 0 54 35 139 35c170 0 223 -111 223 -214c0 -114 -71 -229 -230 -229c-153 0 -231 106 -231 314c0 333 213 369 305 369zM296 350c-77 0 -120 -32 -138 -49c3 -225 94 -225 138 -225 c124 0 137 102 137 145c0 85 -47 129 -137 129z" />
<glyph unicode="7" horiz-adv-x="581" d="M70 667h464v-88l-279 -579h-103l283 575h-365v92z" />
<glyph unicode="8" horiz-adv-x="584" d="M296 312c-65 0 -142 -19 -142 -110c0 -38 14 -125 142 -125s142 87 142 125c0 91 -78 110 -142 110zM178 499c0 -31 12 -103 118 -103s117 72 117 103c0 60 -39 91 -117 91s-118 -31 -118 -91zM432 360c43 -23 98 -69 98 -157c0 -105 -72 -211 -234 -211 s-235 106 -235 211c0 72 46 127 100 156c-39 25 -75 68 -75 138c0 86 55 178 210 178s210 -92 210 -178c0 -73 -37 -114 -74 -137z" />
<glyph unicode="9" horiz-adv-x="592" d="M214 -8c-39 0 -74 6 -103 14v84c25 -7 55 -12 89 -12c119 0 195 69 220 189c0 0 -54 -35 -139 -35c-170 0 -223 111 -223 214c0 114 71 229 231 229c153 0 230 -106 230 -314c0 -333 -213 -369 -305 -369zM289 317c76 0 120 32 138 49c-3 225 -94 225 -138 225 c-125 0 -138 -102 -138 -145c0 -85 48 -129 138 -129z" />
<glyph unicode="0" horiz-adv-x="660" d="M331 675c121 0 265 -59 265 -341c0 -283 -144 -342 -265 -342c-122 0 -266 59 -266 342c0 282 144 341 266 341zM331 76c80 0 172 29 172 258c0 228 -92 257 -172 257c-81 0 -173 -29 -173 -257c0 -229 92 -258 173 -258z" />
<glyph unicode="!" horiz-adv-x="391" d="M239 85v-85h-91v85h91zM146 667h95l-8 -504h-79z" />
<glyph unicode="~" horiz-adv-x="500" d="M402 250c-101 -119 -202 100 -304 -19v66c102 119 203 -100 304 19v-66z" />
<glyph unicode="@" horiz-adv-x="913" d="M510 601c128 0 331 -88 331 -324c0 -119 -50 -247 -166 -247c-52 0 -78 29 -91 62c-22 -31 -63 -62 -143 -62c-94 0 -152 45 -152 117c0 55 28 147 218 147c25 0 48 -1 69 -4c0 5 1 10 1 16c0 39 -8 78 -100 78c-48 0 -91 -11 -123 -24l9 63c33 11 76 22 123 22 c102 0 157 -49 157 -139c0 -107 -50 -219 36 -219c52 0 105 55 105 188c0 197 -169 269 -278 269c-180 0 -368 -161 -368 -366c0 -219 202 -273 273 -273c95 0 165 23 216 50l-9 -65c-54 -24 -122 -40 -209 -40c-126 0 -326 90 -326 331c0 248 225 420 427 420zM563 196 c1 12 2 24 4 36c-18 2 -38 3 -60 3c-101 0 -153 -28 -153 -86c0 -44 47 -53 87 -53c101 0 114 45 122 100z" />
<glyph unicode="#" horiz-adv-x="591" d="M412 522h70l-19 -108h67v-66h-78l-27 -155h77v-66h-88l-19 -108h-70l19 108h-126l-18 -108h-70l19 108h-78v66h89l27 155h-88v66h99l19 108h70l-19 -108h125zM355 193l27 155h-125l-27 -155h125z" />
<glyph unicode="$" horiz-adv-x="585" d="M525 175c0 -101 -71 -167 -193 -180v-103h-62v101c-68 2 -130 21 -184 48v96c51 -31 114 -54 184 -56v228c-94 29 -193 61 -193 176c0 85 51 174 193 189v102h62v-101c61 -4 111 -22 150 -42v-92c-33 20 -84 42 -150 44v-204c94 -34 193 -81 193 -206zM170 485 c0 -40 43 -61 100 -82v179c-53 -9 -100 -34 -100 -97zM332 85c53 9 100 33 100 90c0 61 -44 90 -100 112v-202z" />
<glyph unicode="%" horiz-adv-x="886" d="M216 664c98 0 145 -72 145 -185s-47 -184 -145 -184s-145 71 -145 184s47 185 145 185zM216 351c60 0 81 44 81 128c0 85 -21 128 -81 128s-81 -43 -81 -128c0 -84 21 -128 81 -128zM619 667h74l-419 -667h-74zM676 3c-98 0 -145 72 -145 185c0 112 47 184 145 184 s145 -72 145 -184c0 -113 -47 -185 -145 -185zM676 316c-60 0 -81 -44 -81 -128c0 -85 21 -128 81 -128s81 43 81 128c0 84 -21 128 -81 128z" />
<glyph unicode="^" horiz-adv-x="560" d="M293 690l106 -217h-70l-63 148l-63 -148h-70l105 217h55z" />
<glyph unicode="&#x26;" horiz-adv-x="647" d="M502 139l116 -139h-111l-57 69c-45 -45 -105 -77 -184 -77c-154 0 -212 120 -212 196c0 60 16 134 129 199c-29 36 -62 88 -62 133c0 86 70 156 156 156c88 0 156 -67 156 -152c0 -74 -38 -116 -117 -162l130 -156c18 41 26 86 26 86h86c-7 -43 -24 -100 -56 -153z M278 602c-42 0 -75 -34 -75 -76c0 -21 26 -63 56 -99c83 47 93 69 93 103c0 41 -32 72 -74 72zM268 70c57 0 100 26 132 60l-160 193c-103 -54 -103 -106 -103 -138s23 -115 131 -115z" />
<glyph unicode="*" horiz-adv-x="411" d="M327 615l-78 -35l78 -34l-31 -55l-68 50l7 -81h-61l9 81l-68 -50l-31 55l79 34l-79 35l31 53l68 -49l-9 82h61l-7 -82l68 49z" />
<glyph unicode="+" horiz-adv-x="562" d="M311 335h144v-69h-144v-144h-69v144h-145v69h145v145h69v-145z" />
<glyph unicode="(" horiz-adv-x="353" d="M286 724c-41 -81 -103 -234 -103 -418c0 -185 62 -337 103 -419h-90c-41 82 -103 234 -103 419c0 184 62 337 103 418h90z" />
<glyph unicode=")" horiz-adv-x="353" d="M65 -113c42 82 103 234 103 419c0 184 -61 337 -103 418h90c41 -81 103 -234 103 -418c0 -185 -62 -337 -103 -419h-90z" />
<glyph unicode="_" horiz-adv-x="546" d="M0 -24h546v-56h-546v56z" />
<glyph unicode="," horiz-adv-x="326" d="M148 84h94l-84 -196h-84z" />
<glyph unicode="&#x201d;" horiz-adv-x="404" d="M121 676h94l-84 -196h-84zM364 676l-84 -196h-84l74 196h94z" />
<glyph unicode="&#x201c;" horiz-adv-x="412" d="M290 676l74 -196h-84l-84 196h94zM47 676h94l74 -196h-84z" />
<glyph unicode="&#x22;" horiz-adv-x="401" d="M318 676l-18 -201h-58l-17 201h93zM81 676h93l-17 -201h-58z" />
<glyph unicode="'" horiz-adv-x="256" d="M81 676h93l-17 -201h-58z" />
<glyph unicode="=" horiz-adv-x="638" d="M127 256h385v-78h-385v78zM127 419h385v-78h-385v78z" />
<glyph unicode="-" horiz-adv-x="464" d="M79 337h305v-78h-305v78z" />
<glyph unicode="}" horiz-adv-x="371" d="M152 193c0 40 24 77 58 102c-34 24 -58 61 -58 101v150c0 64 -25 76 -76 76v77h9c100 0 156 -55 156 -156v-153c0 -39 29 -55 52 -62v-67c-23 -7 -52 -23 -52 -62v-152c0 -101 -56 -157 -156 -157h-9v77c51 1 76 13 76 76v150z" />
<glyph unicode="{" horiz-adv-x="373" d="M232 396c0 -40 -24 -77 -58 -101c34 -25 58 -62 58 -102v-150c0 -63 26 -75 76 -76v-77h-8c-101 0 -156 56 -156 157v152c0 39 -29 55 -53 62v67c24 7 53 23 53 62v153c0 101 55 156 156 156h8v-77c-50 0 -76 -12 -76 -76v-150z" />
<glyph unicode="|" horiz-adv-x="462" d="M277 -99h-92v766h92v-766z" />
<glyph unicode="[" horiz-adv-x="383" d="M196 622v-664h104v-74h-181v812h181v-74h-104z" />
<glyph unicode="]" horiz-adv-x="381" d="M187 622h-103v74h180v-812h-180v74h103v664z" />
<glyph unicode="\" horiz-adv-x="392" d="M50 756l367 -854h-86l-368 854h87z" />
<glyph unicode="/" horiz-adv-x="425" d="M353 756h87l-368 -854h-86z" />
<glyph unicode="?" horiz-adv-x="509" d="M444 481c0 -147 -148 -143 -148 -279v-34h-88v37c0 182 147 191 147 277c0 71 -45 107 -126 107c-70 0 -123 -37 -149 -60v99c39 25 92 47 157 47c155 0 207 -98 207 -194zM301 91v-91h-98v91h98z" />
<glyph unicode=":" horiz-adv-x="397" d="M247 134v-88h-94v88h94zM247 450v-88h-94v88h94z" />
<glyph unicode="&#x3c;" horiz-adv-x="663" d="M535 490v-88l-314 -133l314 -133v-88l-415 185v72z" />
<glyph unicode="&#x3e;" horiz-adv-x="653" d="M132 48v88l313 133l-313 133v88l414 -185v-72z" />
<glyph unicode=";" horiz-adv-x="419" d="M260 450v-88h-94v88h94zM164 84h94l-84 -196h-84z" />
<glyph unicode="`" horiz-adv-x="240" d="M196 564h-57l-95 117h90z" />
<glyph unicode="." horiz-adv-x="348" d="M222 89v-89h-95v89h95z" />
<glyph unicode="&#x2019;" horiz-adv-x="270" d="M121 676h94l-84 -196h-84z" />
<glyph unicode="&#x2018;" horiz-adv-x="270" d="M47 676h94l74 -196h-84z" />
<glyph unicode="&#xa5;" horiz-adv-x="634" d="M617 667l-212 -307h105v-75h-147v-79h147v-75h-147v-131h-92v131h-147v75h147v79h-147v75h105l-211 307h112l187 -273l187 273h113z" />
<glyph unicode="&#x2020;" horiz-adv-x="484" d="M392 537v-60h-119v-380h-60v380h-119v60h119v130h60v-130h119z" />
<glyph unicode="&#xb0;" horiz-adv-x="387" d="M191 669c70 0 109 -39 109 -111c0 -71 -39 -110 -109 -110s-109 39 -109 110c0 72 39 111 109 111zM191 489c45 0 63 20 63 69s-18 69 -63 69s-64 -20 -64 -69s19 -69 64 -69z" />
<glyph unicode="&#xa2;" horiz-adv-x="477" d="M439 476c-34 16 -73 29 -116 32v-348c43 3 82 15 116 31v-87c-35 -14 -74 -24 -116 -27v-77h-60v77c-134 11 -206 102 -206 257s72 245 206 256v77h60v-77c42 -4 81 -13 116 -27v-87zM153 334c0 -129 49 -164 110 -173v346c-61 -9 -110 -45 -110 -173z" />
<glyph unicode="&#xa3;" horiz-adv-x="564" d="M358 589c-86 0 -129 -34 -129 -102v-126h190v-82h-190v-179c93 -17 186 -65 279 -13v-89c-153 -84 -305 97 -457 -24v89c29 23 59 35 88 40v176h-88v82h88v126c0 91 55 187 210 187c66 0 120 -21 159 -44v-94c-29 22 -81 53 -150 53z" />
<glyph unicode="&#xa7;" horiz-adv-x="585" d="M529 314c0 -63 -55 -96 -110 -110c19 -14 35 -37 35 -64c0 -72 -53 -148 -203 -148c-71 0 -133 23 -183 52v93c46 -31 104 -57 170 -57c36 0 120 5 120 60c0 65 -294 42 -294 214c0 62 55 94 110 110c-21 16 -35 41 -35 68c0 72 53 144 202 144c60 0 113 -16 157 -38v-88 c-40 22 -88 39 -142 39c-36 0 -121 -5 -121 -61c0 -65 294 -42 294 -214zM337 252c58 5 96 27 96 59c0 56 -95 70 -177 101c-58 -5 -96 -28 -96 -59c0 -57 95 -70 177 -101z" />
<glyph unicode="&#x2022;" horiz-adv-x="422" d="M328 334c0 -68 -55 -123 -122 -123c-68 0 -123 55 -123 123s55 122 123 122c67 0 122 -54 122 -122z" />
<glyph unicode="&#xb6;" horiz-adv-x="459" d="M274 667h116v-667h-83v246h-33c-153 0 -236 75 -236 211c0 135 83 210 236 210z" />
<glyph unicode="&#xdf;" horiz-adv-x="613" d="M433 348c55 -16 124 -55 124 -154c0 -124 -109 -194 -269 -194v85c68 1 174 18 174 113c0 91 -102 110 -174 113v70c66 1 143 20 143 107c0 71 -44 107 -130 107c-62 0 -119 -22 -119 -178v-417h-94v421c0 211 116 255 213 255c165 0 224 -98 224 -191 c0 -70 -41 -112 -92 -137z" />
<glyph unicode="&#xb4;" horiz-adv-x="253" d="M117 564h-57l62 117h90z" />
<glyph unicode="&#xa8;" horiz-adv-x="406" d="M318 649v-85h-91v85h91zM170 649v-85h-91v85h91z" />
<glyph unicode="&#xc6;" horiz-adv-x="992" d="M924 580h-342v-203h301v-87h-301v-203h342v-87h-435v202h-235l-126 -202h-103l419 667h480v-87zM309 289h180v287z" />
<glyph unicode="&#xd8;" horiz-adv-x="747" d="M699 667l-82 -97c39 -52 64 -127 64 -236c0 -283 -169 -342 -310 -342c-66 0 -137 13 -195 55l-40 -47h-93l82 98c-39 52 -64 127 -64 236c0 283 169 342 310 342c66 0 137 -13 195 -55l40 46h93zM154 334c0 -74 12 -126 31 -164l325 385c-40 30 -91 37 -139 37 c-101 0 -217 -29 -217 -258zM588 334c0 73 -12 126 -31 164l-325 -385c40 -31 91 -37 139 -37c101 0 217 29 217 258z" />
<glyph unicode="&#xb1;" horiz-adv-x="593" d="M334 372h147v-73h-147v-148h-73v148h-148v73h148v147h73v-147zM113 27v73h368v-73h-368z" />
<glyph unicode="&#xb5;" horiz-adv-x="612" d="M421 500h92v-456c-4 -2 -96 -52 -213 -52c-42 0 -79 8 -109 23v-225h-92v710h92v-328c0 -47 13 -95 113 -95c45 0 86 8 117 18v405z" />
<glyph unicode="&#xaa;" horiz-adv-x="397" d="M188 676c77 0 120 -41 120 -116v-80c0 -21 -8 -90 -115 -90c-109 0 -117 70 -117 91c0 55 49 88 131 88c17 0 34 -1 50 -3c-2 45 -22 66 -77 66c-31 0 -58 -8 -76 -14v43c25 9 54 15 84 15zM257 480v45c-13 3 -30 4 -48 4c-24 0 -82 -8 -82 -47c0 -32 22 -47 66 -47 c43 0 64 15 64 45z" />
<glyph unicode="&#xba;" horiz-adv-x="422" d="M207 676c60 0 132 -25 132 -144c0 -118 -72 -144 -132 -144c-59 0 -131 26 -131 144c0 119 72 144 131 144zM207 434c42 0 80 11 80 98s-38 99 -80 99s-80 -12 -80 -99s38 -98 80 -98z" />
<glyph unicode="&#x2260;" horiz-adv-x="611" d="M498 294h-131l-48 -85h179v-78h-222l-68 -122l-57 32l50 90h-88v78h131l48 85h-179v78h222l68 121l57 -32l-50 -89h88v-78z" />
<glyph unicode="&#x2264;" horiz-adv-x="579" d="M108 132v70h363v-70h-363zM471 239l-363 151v62l363 150v-75l-264 -106l264 -106v-76z" />
<glyph unicode="&#x2265;" horiz-adv-x="579" d="M108 132v70h363v-70h-363zM108 602l363 -151v-62l-363 -150v75l264 107l-264 105v76z" />
<glyph unicode="&#xe6;" horiz-adv-x="880" d="M819 266c0 -24 -1 -47 -3 -69h-344c14 -104 75 -127 141 -127c77 0 133 18 172 37v-83c-47 -20 -106 -33 -177 -33c-59 0 -125 14 -171 64c-28 -34 -79 -63 -172 -63c-196 0 -211 126 -211 165c0 99 88 158 235 158c32 0 62 -2 91 -6c-4 82 -40 118 -138 118 c-57 0 -106 -14 -138 -25v78c46 16 97 27 151 27c79 0 138 -24 174 -70c32 41 85 70 170 70c134 0 220 -95 220 -241zM380 155v81c-24 4 -54 6 -87 6c-43 0 -148 -13 -148 -84c0 -57 41 -85 120 -85c76 0 115 27 115 82zM471 280h256c-5 58 -29 145 -128 145 c-84 0 -120 -38 -128 -145z" />
<glyph unicode="&#xf8;" horiz-adv-x="574" d="M541 499l-66 -79c27 -39 44 -94 44 -171c0 -212 -128 -257 -235 -257c-47 0 -98 9 -140 36l-24 -28h-93l66 78c-27 39 -44 94 -44 171c0 212 128 257 235 257c47 0 97 -9 139 -36l25 29h93zM141 249c0 -41 5 -73 13 -97l215 254c-24 15 -54 19 -85 19 c-75 0 -143 -21 -143 -176zM427 249c0 42 -5 74 -14 98l-215 -255c24 -15 55 -19 86 -19c75 0 143 21 143 176z" />
<glyph unicode="&#xbf;" horiz-adv-x="514" d="M85 18c0 147 148 143 148 279v34h88v-37c0 -182 -147 -191 -147 -277c0 -71 45 -107 126 -107c70 0 123 37 149 60v-99c-39 -25 -92 -47 -157 -47c-155 0 -207 98 -207 194zM228 408v91h98v-91h-98z" />
<glyph unicode="&#xa1;" horiz-adv-x="385" d="M148 414v85h91v-85h-91zM241 -168h-95l8 503h79z" />
<glyph unicode="&#x2248;" horiz-adv-x="624" d="M518 260v-75c-132 -138 -290 125 -421 -22v74c132 138 290 -124 421 23zM518 406v-74c-132 -138 -290 124 -421 -23v75c132 138 290 -125 421 22z" />
<glyph unicode="&#x2026;" horiz-adv-x="785" d="M438 85v-85h-91v85h91zM198 85v-85h-91v85h91zM677 85v-85h-91v85h91z" />
<glyph unicode="&#x153;" horiz-adv-x="921" d="M867 267c0 -24 -1 -47 -3 -69h-344c14 -104 75 -127 141 -127c77 0 133 17 172 36v-82c-47 -20 -106 -33 -177 -33c-65 0 -139 17 -185 81c-47 -64 -121 -81 -187 -81c-107 0 -235 45 -235 257s128 257 235 257c65 0 138 -17 186 -78c31 45 85 80 177 80 c134 0 220 -95 220 -241zM284 73c75 0 143 21 143 176s-68 176 -143 176s-143 -21 -143 -176s68 -176 143 -176zM519 281h256c-5 58 -29 145 -128 145c-84 0 -120 -38 -128 -145z" />
<glyph unicode="&#x152;" horiz-adv-x="1004" d="M939 580h-342v-203h301v-87h-301v-203h342v-87h-435v14c-43 -16 -89 -22 -133 -22c-141 0 -310 59 -310 342s169 342 310 342c44 0 90 -6 133 -22v13h435v-87zM371 76c45 0 94 6 133 33v450c-39 27 -88 33 -133 33c-101 0 -217 -29 -217 -258s116 -258 217 -258z" />
<glyph unicode="&#x2013;" horiz-adv-x="560" d="M69 330h420v-78h-420v78z" />
<glyph unicode="&#x2014;" horiz-adv-x="891" d="M79 330h733v-78h-733v78z" />
<glyph unicode="&#x2039;" horiz-adv-x="358" d="M309 445l-178 -190l178 -191h-109l-169 191l169 190h109z" />
<glyph unicode="&#x203a;" horiz-adv-x="387" d="M245 255l-178 190h109l169 -190l-169 -191h-109z" />
<glyph unicode="&#xbb;" horiz-adv-x="592" d="M279 445h109l169 -190l-169 -191h-109l178 191zM67 445h109l169 -190l-169 -191h-109l178 191z" />
<glyph unicode="&#xab;" horiz-adv-x="572" d="M309 445l-178 -190l178 -191h-109l-169 191l169 190h109zM521 445l-178 -190l178 -191h-109l-169 191l169 190h109z" />
<glyph unicode="&#xf7;" horiz-adv-x="628" d="M111 295h406v-74h-406v74zM359 155v-85h-91v85h91zM359 446v-85h-91v85h91z" />
<glyph unicode="&#x2044;" horiz-adv-x="365" d="M366 685h63l-437 -707h-63z" />
<glyph unicode="&#xfb01;" horiz-adv-x="587" d="M293 627c-47 0 -92 0 -92 -104v-23h129v-81h-129v-419h-91v419h-70v81h70v23c0 123 55 186 166 186c21 0 39 -3 54 -7v-79c-10 2 -22 4 -37 4zM430 0v499h92v-499h-92zM525 673v-97h-98v97h98z" />
<glyph unicode="&#xfb02;" horiz-adv-x="596" d="M293 627c-47 0 -92 0 -92 -104v-23h129v-81h-129v-419h-91v419h-70v81h70v23c0 123 55 186 166 186c21 0 39 -3 54 -7v-79c-10 2 -22 4 -37 4zM430 689h92v-689h-92v689z" />
<glyph unicode="&#x2021;" horiz-adv-x="504" d="M428 403h-145v-189h145v-69h-145v-145h-69v145h-146v69h146v189h-146v69h146v145h69v-145h145v-69z" />
<glyph unicode="&#xb7;" horiz-adv-x="324" d="M207 315v-85h-91v85h91z" />
<glyph unicode="&#x201a;" horiz-adv-x="314" d="M146 84h94l-84 -196h-84z" />
<glyph unicode="&#x201e;" horiz-adv-x="459" d="M146 84h94l-84 -196h-84zM389 84l-84 -196h-84l74 196h94z" />
<glyph unicode="&#x131;" horiz-adv-x="288" d="M98 0v499h92v-499h-92z" />
<glyph unicode="&#xae;" horiz-adv-x="778" d="M455 296l103 -157h-64l-94 148h-88v-148h-54v389h144c85 0 140 -41 140 -118c0 -69 -44 -102 -87 -114zM399 338c75 0 88 36 88 71s-15 71 -90 71h-85v-142h87zM390 676c189 0 342 -154 342 -342c0 -189 -153 -342 -342 -342s-342 153 -342 342c0 188 153 342 342 342z M390 36c164 0 297 133 297 298c0 164 -133 297 -297 297c-165 0 -298 -133 -298 -297c0 -165 133 -298 298 -298z" />
<glyph unicode="&#xa9;" horiz-adv-x="778" d="M398 182c42 0 80 10 113 24v-50c-35 -14 -75 -23 -119 -23c-82 0 -181 34 -181 199s99 200 181 200c44 0 84 -9 119 -23v-51c-33 15 -71 25 -113 25c-92 0 -131 -45 -131 -151c0 -105 39 -150 131 -150zM388 673c188 0 341 -153 341 -341s-153 -340 -341 -340 s-340 152 -340 340s152 341 340 341zM388 36c164 0 297 133 297 296c0 164 -133 297 -297 297c-163 0 -296 -133 -296 -297c0 -163 133 -296 296 -296z" />
<glyph unicode="&#x2030;" horiz-adv-x="1168" d="M216 664c98 0 145 -72 145 -185s-47 -184 -145 -184s-145 71 -145 184s47 185 145 185zM216 351c60 0 81 44 81 128c0 85 -21 128 -81 128s-81 -43 -81 -128c0 -84 21 -128 81 -128zM626 372c98 0 145 -72 145 -184c0 -113 -47 -185 -145 -185s-145 72 -145 185 c0 112 47 184 145 184zM626 60c60 0 81 43 81 128c0 84 -21 128 -81 128s-81 -44 -81 -128c0 -85 21 -128 81 -128zM962 372c98 0 145 -72 145 -184c0 -113 -47 -185 -145 -185s-145 72 -145 185c0 112 47 184 145 184zM962 60c60 0 81 43 81 128c0 84 -21 128 -81 128 s-81 -44 -81 -128c0 -85 21 -128 81 -128zM593 667h74l-419 -667h-74z" />
<glyph unicode="&#x2c6;" horiz-adv-x="431" d="M213 629l-42 -65h-70l88 122h48l89 -122h-71z" />
<glyph unicode="&#x2d9;" horiz-adv-x="338" d="M216 649v-85h-91v85h91z" />
<glyph unicode="&#x2da;" horiz-adv-x="421" d="M203 535c-55 0 -87 31 -87 86c0 54 32 86 87 86c56 0 87 -32 87 -86c0 -55 -31 -86 -87 -86zM203 666c-29 0 -39 -12 -39 -45c0 -34 10 -45 39 -45s39 11 39 45c0 33 -10 45 -39 45z" />
<glyph unicode="&#xaf;" horiz-adv-x="403" d="M319 636v-60h-233v60h233z" />
<glyph unicode="&#x2d8;" horiz-adv-x="442" d="M222 545c-69 0 -111 40 -111 107h60c0 -35 15 -49 51 -49c37 0 51 14 51 49h60c0 -67 -41 -107 -111 -107z" />
<glyph unicode="&#xb8;" horiz-adv-x="271" d="M145 -5h71l-69 -123h-91z" />
<glyph unicode="&#x2dd;" horiz-adv-x="396" d="M60 564l62 117h90l-95 -117h-57zM187 564l62 117h90l-95 -117h-57z" />
<glyph unicode="&#x2db;" horiz-adv-x="362" d="M231 -95h43c-10 -45 -54 -80 -110 -80c-18 0 -72 0 -72 67c0 60 84 106 88 108h84c-41 -23 -92 -60 -92 -94c0 -18 7 -28 20 -28c16 0 30 15 39 27z" />
<glyph unicode="&#x2c7;" horiz-adv-x="425" d="M214 621l42 65h70l-88 -122h-48l-89 122h71z" />
<glyph unicode="&#x2122;" horiz-adv-x="766" d="M49 667h271v-43h-113v-290h-46v290h-112v43zM641 667h50v-333h-46v263l-114 -150l-113 150v-263h-46v333h50l109 -144z" />
<glyph unicode="&#x20ac;" horiz-adv-x="684" d="M439 592c-119 0 -187 -44 -213 -143h300v-69h-310c-1 -15 -2 -30 -2 -46s0 -31 2 -45h310v-69h-300c26 -100 94 -144 213 -144c72 0 137 17 193 42v-86c-60 -24 -128 -40 -204 -40c-120 0 -259 42 -299 228h-79v69h69c-1 14 -1 29 -1 45s1 31 2 46h-70v69h79 c40 185 180 227 299 227c76 0 144 -16 204 -40v-86c-56 25 -121 42 -193 42z" />
<glyph unicode="&#x2dc;" horiz-adv-x="527" d="M409 582c-101 -119 -202 100 -304 -19v66c102 119 203 -100 304 19v-66z" />
<glyph unicode="&#xf6c3;" horiz-adv-x="269" d="M121 -49h64c0 -79 -39 -132 -102 -144v59c29 8 38 40 38 85z" />
<glyph unicode="&#xc4;" horiz-adv-x="664" d="M212 724v85h92v-85h-92zM360 724v85h92v-85h-92zM543 0l-72 188h-278l-72 -188h-100l266 667h91l265 -667h-100zM332 551l-106 -277h212z" />
<glyph unicode="&#xe4;" horiz-adv-x="537" d="M397 649v-85h-91v85h91zM249 649v-85h-91v85h91zM257 507c139 0 216 -74 216 -209v-144c0 -38 -14 -162 -206 -162c-196 0 -211 126 -211 165c0 99 88 158 235 158c32 0 62 -2 91 -6c-4 82 -40 118 -138 118c-57 0 -106 -14 -138 -25v78c46 16 97 27 151 27zM382 155v81 c-24 4 -54 6 -87 6c-43 0 -148 -13 -148 -84c0 -57 41 -85 120 -85c76 0 115 27 115 82z" />
<glyph unicode="&#xcb;" d="M522 580h-342v-203h301v-87h-301v-203h342v-87h-435v667h435v-87zM433 809v-85h-91v85h91zM285 809v-85h-91v85h91z" />
<glyph unicode="&#xeb;" horiz-adv-x="555" d="M403 649v-85h-91v85h91zM255 649v-85h-91v85h91zM504 267c0 -24 -1 -47 -3 -69h-344c14 -104 75 -127 141 -127c76 0 133 17 172 36v-82c-47 -20 -106 -33 -177 -33c-105 0 -230 44 -230 252c0 65 0 264 221 264c134 0 220 -95 220 -241zM156 281h256 c-5 58 -29 145 -128 145c-84 0 -120 -38 -128 -145z" />
<glyph unicode="&#xcf;" horiz-adv-x="266" d="M252 809v-85h-91v85h91zM104 809v-85h-91v85h91zM179 0v667h-92v-667h92z" />
<glyph unicode="&#xef;" horiz-adv-x="288" d="M263 649v-85h-91v85h91zM115 649v-85h-91v85h91zM190 0v499h-92v-499h92z" />
<glyph unicode="&#xd6;" horiz-adv-x="747" d="M490 809v-85h-91v85h91zM342 809v-85h-91v85h91zM371 676c141 0 310 -59 310 -342s-169 -342 -310 -342s-310 59 -310 342s169 342 310 342zM371 76c101 0 217 29 217 258s-116 258 -217 258s-217 -29 -217 -258s116 -258 217 -258z" />
<glyph unicode="&#xf6;" horiz-adv-x="564" d="M403 649v-85h-91v85h91zM255 649v-85h-91v85h91zM284 506c107 0 235 -45 235 -257s-128 -257 -235 -257s-235 45 -235 257s128 257 235 257zM284 73c75 0 143 21 143 176s-68 176 -143 176s-143 -21 -143 -176s68 -176 143 -176z" />
<glyph unicode="&#xdc;" horiz-adv-x="721" d="M479 809v-85h-91v85h91zM331 809v-85h-91v85h91zM540 667h93v-392c0 -180 -100 -284 -273 -284c-174 0 -273 104 -273 284v392h93v-400c0 -131 57 -192 180 -192s180 61 180 192v400z" />
<glyph unicode="&#xfc;" horiz-adv-x="590" d="M412 649v-85h-91v85h91zM264 649v-85h-91v85h91zM412 499h92v-289c0 -139 -77 -219 -211 -219s-211 80 -211 219v289h91v-296c0 -91 37 -131 120 -131c82 0 119 40 119 131v296z" />
<glyph unicode="&#x1e84;" horiz-adv-x="958" d="M597 809v-85h-91v85h91zM449 809v-85h-91v85h91zM846 667h97l-214 -667h-95l-156 501l-157 -501h-95l-214 667h97l165 -532l164 532h79l165 -532z" />
<glyph unicode="&#x178;" horiz-adv-x="624" d="M431 809v-85h-91v85h91zM283 809v-85h-91v85h91zM611 667l-254 -368v-299h-92v298l-253 369h112l187 -273l187 273h113z" />
<glyph unicode="&#xff;" horiz-adv-x="522" d="M381 649v-85h-91v85h91zM233 649v-85h-91v85h91zM395 499h98l-205 -552c-44 -119 -108 -144 -155 -144c-23 0 -47 3 -70 8v82c19 -5 38 -8 56 -8c50 0 82 60 100 115l-188 499h98l134 -374z" />
<glyph unicode="&#x100;" horiz-adv-x="664" d="M449 796v-60h-233v60h233zM543 0l-72 188h-278l-72 -188h-100l266 667h91l265 -667h-100zM332 551l-106 -277h212z" />
<glyph unicode="&#x101;" horiz-adv-x="537" d="M389 636v-60h-233v60h233zM257 507c139 0 216 -74 216 -209v-144c0 -38 -14 -162 -206 -162c-196 0 -211 126 -211 165c0 99 88 158 235 158c32 0 62 -2 91 -6c-4 82 -40 118 -138 118c-57 0 -106 -14 -138 -25v78c46 16 97 27 151 27zM382 155v81c-24 4 -54 6 -87 6 c-43 0 -148 -13 -148 -84c0 -57 41 -85 120 -85c76 0 115 27 115 82z" />
<glyph unicode="&#x112;" d="M430 796v-60h-233v60h233zM522 580h-342v-203h301v-87h-301v-203h342v-87h-435v667h435v-87z" />
<glyph unicode="&#x113;" horiz-adv-x="555" d="M400 636v-60h-233v60h233zM504 267c0 -24 -1 -47 -3 -69h-344c14 -104 75 -127 141 -127c76 0 133 17 172 36v-82c-47 -20 -106 -33 -177 -33c-105 0 -230 44 -230 252c0 65 0 264 221 264c134 0 220 -95 220 -241zM156 281h256c-5 58 -29 145 -128 145 c-84 0 -120 -38 -128 -145z" />
<glyph unicode="&#x12a;" horiz-adv-x="266" d="M249 796v-60h-233v60h233zM179 0v667h-92v-667h92z" />
<glyph unicode="&#x12b;" horiz-adv-x="288" d="M260 636v-60h-233v60h233zM190 0v499h-92v-499h92z" />
<glyph unicode="&#x14c;" horiz-adv-x="747" d="M487 796v-60h-233v60h233zM371 676c141 0 310 -59 310 -342s-169 -342 -310 -342s-310 59 -310 342s169 342 310 342zM371 76c101 0 217 29 217 258s-116 258 -217 258s-217 -29 -217 -258s116 -258 217 -258z" />
<glyph unicode="&#x14d;" horiz-adv-x="564" d="M400 636v-60h-233v60h233zM284 506c107 0 235 -45 235 -257s-128 -257 -235 -257s-235 45 -235 257s128 257 235 257zM284 73c75 0 143 21 143 176s-68 176 -143 176s-143 -21 -143 -176s68 -176 143 -176z" />
<glyph unicode="&#x16a;" horiz-adv-x="721" d="M476 796v-60h-233v60h233zM540 667h93v-392c0 -180 -100 -284 -273 -284c-174 0 -273 104 -273 284v392h93v-400c0 -131 57 -192 180 -192s180 61 180 192v400z" />
<glyph unicode="&#x16b;" horiz-adv-x="587" d="M409 636v-60h-233v60h233zM412 499h92v-289c0 -139 -77 -219 -211 -219s-211 80 -211 219v289h91v-296c0 -91 37 -131 120 -131c82 0 119 40 119 131v296z" />
<glyph unicode="&#xc0;" horiz-adv-x="664" d="M296 841l63 -117h-57l-95 117h89zM543 0l-72 188h-278l-72 -188h-100l266 667h91l265 -667h-100zM332 551l-106 -277h212z" />
<glyph unicode="&#xe0;" horiz-adv-x="537" d="M306 564h-57l-95 117h90zM257 507c139 0 216 -74 216 -209v-144c0 -38 -14 -162 -206 -162c-196 0 -211 126 -211 165c0 99 88 158 235 158c32 0 62 -2 91 -6c-4 82 -40 118 -138 118c-57 0 -106 -14 -138 -25v78c46 16 97 27 151 27zM382 155v81c-24 4 -54 6 -87 6 c-43 0 -148 -13 -148 -84c0 -57 41 -85 120 -85c76 0 115 27 115 82z" />
<glyph unicode="&#xc8;" d="M522 580h-342v-203h301v-87h-301v-203h342v-87h-435v667h435v-87zM353 724h-57l-95 117h90z" />
<glyph unicode="&#xe8;" horiz-adv-x="555" d="M504 267c0 -24 -1 -47 -3 -69h-344c14 -104 75 -127 141 -127c76 0 133 17 172 36v-82c-47 -20 -106 -33 -177 -33c-105 0 -230 44 -230 252c0 65 0 264 221 264c134 0 220 -95 220 -241zM156 281h256c-5 58 -29 145 -128 145c-84 0 -120 -38 -128 -145zM321 564h-57 l-95 117h90z" />
<glyph unicode="&#xcc;" horiz-adv-x="266" d="M159 724h-57l-95 117h90zM87 667v-667h92v667h-92z" />
<glyph unicode="&#xec;" horiz-adv-x="288" d="M172 564h-57l-95 117h90zM98 499v-499h92v499h-92z" />
<glyph unicode="&#xd2;" horiz-adv-x="747" d="M408 724h-57l-95 117h90zM61 334c0 283 169 342 310 342s310 -59 310 -342s-169 -342 -310 -342s-310 59 -310 342zM154 334c0 -229 116 -258 217 -258s217 29 217 258s-116 258 -217 258s-217 -29 -217 -258z" />
<glyph unicode="&#xf2;" horiz-adv-x="564" d="M308 564h-57l-95 117h90zM49 249c0 212 128 257 235 257s235 -45 235 -257s-128 -257 -235 -257s-235 45 -235 257zM141 249c0 -155 68 -176 143 -176s143 21 143 176s-68 176 -143 176s-143 -21 -143 -176z" />
<glyph unicode="&#xd9;" horiz-adv-x="721" d="M395 724h-57l-95 117h90zM87 667h93v-400c0 -131 57 -192 180 -192s180 61 180 192v400h93v-392c0 -180 -99 -284 -273 -284c-173 0 -273 104 -273 284v392z" />
<glyph unicode="&#xf9;" horiz-adv-x="590" d="M327 564h-57l-95 117h90zM82 499h92v-296c0 -91 37 -131 119 -131c83 0 120 40 120 131v296h91v-289c0 -139 -77 -219 -211 -219s-211 80 -211 219v289z" />
<glyph unicode="&#xc2;" horiz-adv-x="664" d="M332 789l-42 -65h-70l88 122h48l89 -122h-71zM543 0l-72 188h-278l-72 -188h-100l266 667h91l265 -667h-100zM332 551l-106 -277h212z" />
<glyph unicode="&#xe2;" horiz-adv-x="537" d="M277 629l-42 -65h-70l88 122h48l89 -122h-71zM257 507c139 0 216 -74 216 -209v-144c0 -38 -14 -162 -206 -162c-196 0 -211 126 -211 165c0 99 88 158 235 158c32 0 62 -2 91 -6c-4 82 -40 118 -138 118c-57 0 -106 -14 -138 -25v78c46 16 97 27 151 27zM382 155v81 c-24 4 -54 6 -87 6c-43 0 -148 -13 -148 -84c0 -57 41 -85 120 -85c76 0 115 27 115 82z" />
<glyph unicode="&#x108;" horiz-adv-x="628" d="M366 789l-42 -65h-71l89 122h48l88 -122h-70zM382 76c72 0 137 17 193 42v-86c-60 -24 -128 -40 -204 -40c-141 0 -310 59 -310 342s169 342 310 342c76 0 144 -16 204 -40v-86c-56 25 -121 42 -193 42c-158 0 -225 -77 -225 -258c0 -180 67 -258 225 -258z" />
<glyph unicode="&#x109;" horiz-adv-x="472" d="M280 629l-41 -65h-71l89 122h47l89 -122h-71zM301 75c52 0 99 13 139 32v-87c-43 -17 -93 -28 -147 -28c-152 0 -235 92 -235 258s83 257 235 257c54 0 104 -11 147 -28v-87c-40 19 -87 33 -139 33c-76 0 -147 -22 -147 -175c0 -154 71 -175 147 -175z" />
<glyph unicode="&#xca;" d="M522 580h-342v-203h301v-87h-301v-203h342v-87h-435v667h435v-87zM315 789l-42 -65h-70l88 122h48l89 -122h-71z" />
<glyph unicode="&#xea;" horiz-adv-x="555" d="M504 267c0 -24 -1 -47 -3 -69h-344c14 -104 75 -127 141 -127c76 0 133 17 172 36v-82c-47 -20 -106 -33 -177 -33c-105 0 -230 44 -230 252c0 65 0 264 221 264c134 0 220 -95 220 -241zM156 281h256c-5 58 -29 145 -128 145c-84 0 -120 -38 -128 -145zM283 629l-42 -65 h-70l88 122h48l89 -122h-71z" />
<glyph unicode="&#x11c;" horiz-adv-x="677" d="M357 789l-42 -65h-70l88 122h48l89 -122h-71zM380 370h226v-325c-74 -35 -153 -53 -235 -53c-142 0 -310 59 -310 342c0 282 168 341 310 341c73 0 144 -13 210 -39v-85c-63 26 -130 40 -201 40c-105 0 -226 -29 -226 -257c0 -229 122 -258 228 -258c46 0 91 7 134 19 v188h-136v87z" />
<glyph unicode="&#x11d;" horiz-adv-x="538" d="M280 629l-42 -65h-70l88 122h48l89 -122h-71zM274 508c119 0 200 -55 200 -158v-371c0 -80 -38 -175 -219 -175c-54 0 -103 8 -148 21v87c42 -13 89 -22 140 -22c136 0 136 56 136 89v44c-33 -9 -67 -14 -101 -14c-143 0 -222 87 -222 244c0 145 62 255 214 255zM383 111 v245c0 18 0 70 -109 70c-57 0 -122 -19 -122 -173c0 -142 62 -161 130 -161c35 0 69 6 101 19z" />
<glyph unicode="&#x124;" horiz-adv-x="678" d="M338 789l-42 -65h-70l88 122h48l89 -122h-71zM499 667h92v-667h-92v290h-320v-290h-92v667h92v-290h320v290z" />
<glyph unicode="&#xce;" horiz-adv-x="266" d="M132 789l-42 -65h-70l88 122h48l89 -122h-71zM179 0v667h-92v-667h92z" />
<glyph unicode="&#xee;" horiz-adv-x="288" d="M143 629l-42 -65h-70l88 122h48l89 -122h-71zM190 0v499h-92v-499h92z" />
<glyph unicode="&#xd4;" horiz-adv-x="747" d="M370 789l-42 -65h-70l88 122h48l89 -122h-71zM371 676c141 0 310 -59 310 -342s-169 -342 -310 -342s-310 59 -310 342s169 342 310 342zM371 76c101 0 217 29 217 258s-116 258 -217 258s-217 -29 -217 -258s116 -258 217 -258z" />
<glyph unicode="&#xf4;" horiz-adv-x="564" d="M283 629l-42 -65h-70l88 122h48l89 -122h-71zM284 506c107 0 235 -45 235 -257s-128 -257 -235 -257s-235 45 -235 257s128 257 235 257zM284 73c75 0 143 21 143 176s-68 176 -143 176s-143 -21 -143 -176s68 -176 143 -176z" />
<glyph unicode="&#x15c;" horiz-adv-x="564" d="M154 485c0 -116 355 -74 355 -310c0 -114 -90 -183 -241 -183c-73 0 -140 20 -198 49v96c53 -32 118 -56 190 -56c71 0 156 16 156 94c0 173 -355 92 -355 310c0 92 61 190 233 190c71 0 129 -20 172 -42v-92c-35 21 -90 44 -161 44c-69 0 -151 -17 -151 -100zM290 789 l-42 -65h-70l88 122h48l89 -122h-71z" />
<glyph unicode="&#x15d;" horiz-adv-x="436" d="M222 629l-42 -65h-70l88 122h48l89 -122h-71zM229 507c48 0 94 -13 134 -33v-79c-37 17 -79 30 -123 30c-81 0 -99 -30 -99 -64c0 -80 255 -34 255 -222c0 -69 -49 -147 -186 -147c-61 0 -109 16 -144 35v83c32 -18 78 -37 140 -37c68 0 98 29 98 62 c0 112 -254 51 -254 223c0 72 47 149 179 149z" />
<glyph unicode="&#xdb;" horiz-adv-x="721" d="M359 789l-42 -65h-70l88 122h48l89 -122h-71zM540 667h93v-392c0 -180 -100 -284 -273 -284c-174 0 -273 104 -273 284v392h93v-400c0 -131 57 -192 180 -192s180 61 180 192v400z" />
<glyph unicode="&#xfb;" horiz-adv-x="590" d="M292 629l-42 -65h-70l88 122h48l89 -122h-71zM412 499h92v-289c0 -139 -77 -219 -211 -219s-211 80 -211 219v289h91v-296c0 -91 37 -131 120 -131c82 0 119 40 119 131v296z" />
<glyph unicode="&#x174;" horiz-adv-x="958" d="M477 789l-42 -65h-70l88 122h48l89 -122h-71zM846 667h97l-214 -667h-95l-156 501l-157 -501h-95l-214 667h97l165 -532l164 532h79l165 -532z" />
<glyph unicode="&#x177;" horiz-adv-x="524" d="M261 629l-42 -65h-70l88 122h48l89 -122h-71zM395 499h98l-205 -552c-44 -119 -108 -144 -155 -144c-23 0 -47 3 -70 8v82c19 -5 38 -8 56 -8c50 0 82 60 100 115l-188 499h98l134 -374z" />
<glyph unicode="&#xc1;" horiz-adv-x="664" d="M305 724l63 117h89l-95 -117h-57zM543 0l-72 188h-278l-72 -188h-100l266 667h91l265 -667h-100zM332 551l-106 -277h212z" />
<glyph unicode="&#xe1;" horiz-adv-x="537" d="M225 564l62 117h90l-95 -117h-57zM257 507c139 0 216 -74 216 -209v-144c0 -38 -14 -162 -206 -162c-196 0 -211 126 -211 165c0 99 88 158 235 158c32 0 62 -2 91 -6c-4 82 -40 118 -138 118c-57 0 -106 -14 -138 -25v78c46 16 97 27 151 27zM382 155v81 c-24 4 -54 6 -87 6c-43 0 -148 -13 -148 -84c0 -57 41 -85 120 -85c76 0 115 27 115 82z" />
<glyph unicode="&#x106;" horiz-adv-x="628" d="M332 724l63 117h89l-95 -117h-57zM382 76c72 0 137 17 193 42v-86c-60 -24 -128 -40 -204 -40c-141 0 -310 59 -310 342s169 342 310 342c76 0 144 -16 204 -40v-86c-56 25 -121 42 -193 42c-158 0 -225 -77 -225 -258c0 -180 67 -258 225 -258z" />
<glyph unicode="&#x107;" horiz-adv-x="472" d="M260 564l62 117h90l-95 -117h-57zM301 75c52 0 99 13 139 32v-87c-43 -17 -93 -28 -147 -28c-152 0 -235 92 -235 258s83 257 235 257c54 0 104 -11 147 -28v-87c-40 19 -87 33 -139 33c-76 0 -147 -22 -147 -175c0 -154 71 -175 147 -175z" />
<glyph unicode="&#xc9;" d="M522 580h-342v-203h301v-87h-301v-203h342v-87h-435v667h435v-87zM284 724l62 117h90l-95 -117h-57z" />
<glyph unicode="&#xe9;" horiz-adv-x="555" d="M504 267c0 -24 -1 -47 -3 -69h-344c14 -104 75 -127 141 -127c76 0 133 17 172 36v-82c-47 -20 -106 -33 -177 -33c-105 0 -230 44 -230 252c0 65 0 264 221 264c134 0 220 -95 220 -241zM156 281h256c-5 58 -29 145 -128 145c-84 0 -120 -38 -128 -145zM247 564l62 117 h90l-95 -117h-57z" />
<glyph unicode="&#x1f4;" horiz-adv-x="677" d="M324 724l62 117h90l-95 -117h-57zM380 370h226v-325c-74 -35 -153 -53 -235 -53c-142 0 -310 59 -310 342c0 282 168 341 310 341c73 0 144 -13 210 -39v-85c-63 26 -130 40 -201 40c-105 0 -226 -29 -226 -257c0 -229 122 -258 228 -258c46 0 91 7 134 19v188h-136v87z " />
<glyph unicode="&#xcd;" horiz-adv-x="266" d="M106 724l62 117h90l-95 -117h-57zM179 0h-92v667h92v-667z" />
<glyph unicode="&#xed;" horiz-adv-x="288" d="M115 564l62 117h90l-95 -117h-57zM190 0h-92v499h92v-499z" />
<glyph unicode="&#x139;" horiz-adv-x="532" d="M106 724l62 117h90l-95 -117h-57zM179 87h332v-87h-424v667h92v-580z" />
<glyph unicode="&#x13a;" horiz-adv-x="294" d="M120 724l62 117h90l-95 -117h-57zM101 689h92v-689h-92v689z" />
<glyph unicode="&#x143;" horiz-adv-x="738" d="M348 724l62 117h90l-95 -117h-57zM566 667h93v-667h-103l-376 534v-534h-93v667h106l373 -531v531z" />
<glyph unicode="&#x144;" horiz-adv-x="585" d="M258 564l62 117h90l-95 -117h-57zM174 0h-92v456c4 2 96 52 213 52c126 0 201 -70 201 -186v-322h-92v328c0 47 -13 95 -113 95c-45 0 -86 -8 -117 -18v-405z" />
<glyph unicode="&#xd3;" horiz-adv-x="747" d="M334 724l62 117h90l-95 -117h-57zM371 676c141 0 310 -59 310 -342s-169 -342 -310 -342s-310 59 -310 342s169 342 310 342zM371 76c101 0 217 29 217 258s-116 258 -217 258s-217 -29 -217 -258s116 -258 217 -258z" />
<glyph unicode="&#xf3;" horiz-adv-x="564" d="M260 564l62 117h90l-95 -117h-57zM284 506c107 0 235 -45 235 -257s-128 -257 -235 -257s-235 45 -235 257s128 257 235 257zM284 73c75 0 143 21 143 176s-68 176 -143 176s-143 -21 -143 -176s68 -176 143 -176z" />
<glyph unicode="&#x154;" horiz-adv-x="634" d="M259 724l62 117h90l-95 -117h-57zM424 268l177 -268h-110l-161 253h-150v-253h-93v667h246c146 0 240 -70 240 -202c0 -119 -75 -176 -149 -197zM329 341c128 0 151 61 151 121s-27 122 -155 122h-145v-243h149z" />
<glyph unicode="&#x155;" horiz-adv-x="343" d="M177 564l62 117h90l-95 -117h-57zM173 394v-394h-92v449c5 2 109 50 243 50v-84c-59 -1 -112 -11 -151 -21z" />
<glyph unicode="&#x15a;" horiz-adv-x="564" d="M154 485c0 -116 355 -74 355 -310c0 -114 -90 -183 -241 -183c-73 0 -140 20 -198 49v96c53 -32 118 -56 190 -56c71 0 156 16 156 94c0 173 -355 92 -355 310c0 92 61 190 233 190c71 0 129 -20 172 -42v-92c-35 21 -90 44 -161 44c-69 0 -151 -17 -151 -100zM244 724 l63 117h89l-95 -117h-57z" />
<glyph unicode="&#x15b;" horiz-adv-x="436" d="M182 564l62 117h90l-95 -117h-57zM229 507c48 0 94 -13 134 -33v-79c-37 17 -79 30 -123 30c-81 0 -99 -30 -99 -64c0 -80 255 -34 255 -222c0 -69 -49 -147 -186 -147c-61 0 -109 16 -144 35v83c32 -18 78 -37 140 -37c68 0 98 29 98 62c0 112 -254 51 -254 223 c0 72 47 149 179 149z" />
<glyph unicode="&#xda;" horiz-adv-x="721" d="M325 724l62 117h90l-95 -117h-57zM540 667h93v-392c0 -180 -100 -284 -273 -284c-174 0 -273 104 -273 284v392h93v-400c0 -131 57 -192 180 -192s180 61 180 192v400z" />
<glyph unicode="&#xfa;" horiz-adv-x="590" d="M258 564l62 117h90l-95 -117h-57zM412 499h92v-289c0 -139 -77 -219 -211 -219s-211 80 -211 219v289h91v-296c0 -91 37 -131 120 -131c82 0 119 40 119 131v296z" />
<glyph unicode="&#x179;" horiz-adv-x="609" d="M269 724l62 117h90l-95 -117h-57zM536 584l-350 -492h350v-92h-472v81l352 493h-342v93h462v-83z" />
<glyph unicode="&#x17a;" horiz-adv-x="470" d="M204 564l62 117h90l-95 -117h-57zM51 499h365v-84l-253 -323h253v-92h-371v84l254 324h-248v91z" />
<glyph unicode="&#xc3;" horiz-adv-x="664" d="M484 808v-66c-101 -119 -202 100 -304 -19v66c102 119 203 -100 304 19zM543 0l-72 188h-278l-72 -188h-100l266 667h91l265 -667h-100zM332 551l-106 -277h212z" />
<glyph unicode="&#xe3;" horiz-adv-x="537" d="M426 582c-101 -119 -202 100 -304 -19v66c102 119 203 -100 304 19v-66zM257 507c139 0 216 -74 216 -209v-144c0 -38 -14 -162 -206 -162c-196 0 -211 126 -211 165c0 99 88 158 235 158c32 0 62 -2 91 -6c-4 82 -40 118 -138 118c-57 0 -106 -14 -138 -25v78 c46 16 97 27 151 27zM382 155v81c-24 4 -54 6 -87 6c-43 0 -148 -13 -148 -84c0 -57 41 -85 120 -85c76 0 115 27 115 82z" />
<glyph unicode="&#x128;" horiz-adv-x="266" d="M285 742c-101 -119 -202 100 -304 -19v66c102 119 203 -100 304 19v-66zM179 0v667h-92v-667h92z" />
<glyph unicode="&#x129;" horiz-adv-x="288" d="M296 582c-101 -119 -202 100 -304 -19v66c102 119 203 -100 304 19v-66zM190 0v499h-92v-499h92z" />
<glyph unicode="&#xd1;" horiz-adv-x="738" d="M525 742c-101 -119 -202 100 -304 -19v66c102 119 203 -100 304 19v-66zM566 667h93v-667h-103l-376 534v-534h-93v667h106l373 -531v531z" />
<glyph unicode="&#xf1;" horiz-adv-x="585" d="M441 582c-101 -119 -202 100 -304 -19v66c102 119 203 -100 304 19v-66zM174 0h-92v456c4 2 96 52 213 52c126 0 201 -70 201 -186v-322h-92v328c0 47 -13 95 -113 95c-45 0 -86 -8 -117 -18v-405z" />
<glyph unicode="&#xd5;" horiz-adv-x="747" d="M523 742c-101 -119 -202 100 -304 -19v66c102 119 203 -100 304 19v-66zM371 676c141 0 310 -59 310 -342s-169 -342 -310 -342s-310 59 -310 342s169 342 310 342zM371 76c101 0 217 29 217 258s-116 258 -217 258s-217 -29 -217 -258s116 -258 217 -258z" />
<glyph unicode="&#xf5;" horiz-adv-x="564" d="M436 582c-101 -119 -202 100 -304 -19v66c102 119 203 -100 304 19v-66zM284 506c107 0 235 -45 235 -257s-128 -257 -235 -257s-235 45 -235 257s128 257 235 257zM284 73c75 0 143 21 143 176s-68 176 -143 176s-143 -21 -143 -176s68 -176 143 -176z" />
<glyph unicode="&#xc5;" horiz-adv-x="664" d="M332 866c55 0 87 -31 87 -85c0 -55 -32 -86 -87 -86s-87 31 -87 86c0 54 32 85 87 85zM332 736c29 0 39 11 39 45c0 33 -10 45 -39 45s-39 -12 -39 -45c0 -34 10 -45 39 -45zM543 0l-72 188h-278l-72 -188h-100l266 667h91l265 -667h-100zM332 551l-106 -277h212z" />
<glyph unicode="&#xe5;" horiz-adv-x="537" d="M272 535c-55 0 -87 31 -87 86c0 54 32 86 87 86c56 0 87 -32 87 -86c0 -55 -31 -86 -87 -86zM272 666c-29 0 -39 -12 -39 -45c0 -34 10 -45 39 -45s39 11 39 45c0 33 -10 45 -39 45zM257 507c139 0 216 -74 216 -209v-144c0 -38 -14 -162 -206 -162 c-196 0 -211 126 -211 165c0 99 88 158 235 158c32 0 62 -2 91 -6c-4 82 -40 118 -138 118c-57 0 -106 -14 -138 -25v78c46 16 97 27 151 27zM382 155v81c-24 4 -54 6 -87 6c-43 0 -148 -13 -148 -84c0 -57 41 -85 120 -85c76 0 115 27 115 82z" />
<glyph unicode="&#x16e;" horiz-adv-x="721" d="M360 695c-55 0 -87 31 -87 86c0 54 32 86 87 86c56 0 87 -32 87 -86c0 -55 -31 -86 -87 -86zM360 826c-29 0 -39 -12 -39 -45c0 -34 10 -45 39 -45s39 11 39 45c0 33 -10 45 -39 45zM540 667h93v-392c0 -180 -100 -284 -273 -284c-174 0 -273 104 -273 284v392h93v-400 c0 -131 57 -192 180 -192s180 61 180 192v400z" />
<glyph unicode="&#x16f;" horiz-adv-x="590" d="M293 535c-55 0 -87 31 -87 86c0 54 32 86 87 86c56 0 87 -32 87 -86c0 -55 -31 -86 -87 -86zM293 666c-29 0 -39 -12 -39 -45c0 -34 10 -45 39 -45s39 11 39 45c0 33 -10 45 -39 45zM412 499h92v-289c0 -139 -77 -219 -211 -219s-211 80 -211 219v289h91v-296 c0 -91 37 -131 120 -131c82 0 119 40 119 131v296z" />
<glyph unicode="&#x102;" horiz-adv-x="664" d="M332 763c37 0 51 14 51 48h60c0 -66 -41 -106 -111 -106c-69 0 -111 40 -111 106h60c0 -34 15 -48 51 -48zM543 0l-72 188h-278l-72 -188h-100l266 667h91l265 -667h-100zM332 551l-106 -277h212z" />
<glyph unicode="&#x103;" horiz-adv-x="537" d="M273 545c-69 0 -111 40 -111 107h60c0 -35 15 -49 51 -49c37 0 51 14 51 49h60c0 -67 -41 -107 -111 -107zM257 507c139 0 216 -74 216 -209v-144c0 -38 -14 -162 -206 -162c-196 0 -211 126 -211 165c0 99 88 158 235 158c32 0 62 -2 91 -6c-4 82 -40 118 -138 118 c-57 0 -106 -14 -138 -25v78c46 16 97 27 151 27zM382 155v81c-24 4 -54 6 -87 6c-43 0 -148 -13 -148 -84c0 -57 41 -85 120 -85c76 0 115 27 115 82z" />
<glyph unicode="&#x114;" d="M313 705c-69 0 -111 40 -111 107h60c0 -35 15 -49 51 -49c37 0 51 14 51 49h60c0 -67 -41 -107 -111 -107zM522 580h-342v-203h301v-87h-301v-203h342v-87h-435v667h435v-87z" />
<glyph unicode="&#x115;" horiz-adv-x="555" d="M283 545c-69 0 -111 40 -111 107h60c0 -35 15 -49 51 -49c37 0 51 14 51 49h60c0 -67 -41 -107 -111 -107zM504 267c0 -24 -1 -47 -3 -69h-344c14 -104 75 -127 141 -127c76 0 133 17 172 36v-82c-47 -20 -106 -33 -177 -33c-105 0 -230 44 -230 252c0 65 0 264 221 264 c134 0 220 -95 220 -241zM156 281h256c-5 58 -29 145 -128 145c-84 0 -120 -38 -128 -145z" />
<glyph unicode="&#x11e;" horiz-adv-x="677" d="M360 705c-69 0 -111 40 -111 107h60c0 -35 15 -49 51 -49c37 0 51 14 51 49h60c0 -67 -41 -107 -111 -107zM380 370h226v-325c-74 -35 -153 -53 -235 -53c-142 0 -310 59 -310 342c0 282 168 341 310 341c73 0 144 -13 210 -39v-85c-63 26 -130 40 -201 40 c-105 0 -226 -29 -226 -257c0 -229 122 -258 228 -258c46 0 91 7 134 19v188h-136v87z" />
<glyph unicode="&#x11f;" horiz-adv-x="538" d="M280 545c-69 0 -111 40 -111 107h60c0 -35 15 -49 51 -49c37 0 51 14 51 49h60c0 -67 -41 -107 -111 -107zM274 508c119 0 200 -55 200 -158v-371c0 -80 -38 -175 -219 -175c-54 0 -103 8 -148 21v87c42 -13 89 -22 140 -22c136 0 136 56 136 89v44 c-33 -9 -67 -14 -101 -14c-143 0 -222 87 -222 244c0 145 62 255 214 255zM383 111v245c0 18 0 70 -109 70c-57 0 -122 -19 -122 -173c0 -142 62 -161 130 -161c35 0 69 6 101 19z" />
<glyph unicode="&#x12c;" horiz-adv-x="266" d="M133 705c-69 0 -111 40 -111 107h60c0 -35 15 -49 51 -49c37 0 51 14 51 49h60c0 -67 -41 -107 -111 -107zM179 0v667h-92v-667h92z" />
<glyph unicode="&#x12d;" horiz-adv-x="288" d="M144 545c-69 0 -111 40 -111 107h60c0 -35 15 -49 51 -49c37 0 51 14 51 49h60c0 -67 -41 -107 -111 -107zM190 0v499h-92v-499h92z" />
<glyph unicode="&#x16d;" horiz-adv-x="590" d="M293 545c-69 0 -111 40 -111 107h60c0 -35 15 -49 51 -49c37 0 51 14 51 49h60c0 -67 -41 -107 -111 -107zM412 499h92v-289c0 -139 -77 -219 -211 -219s-211 80 -211 219v289h91v-296c0 -91 37 -131 120 -131c82 0 119 40 119 131v296z" />
<glyph unicode="&#x104;" horiz-adv-x="664" d="M610 -95h43c-10 -45 -54 -80 -110 -80c-18 0 -72 0 -72 67c0 60 84 106 88 108h-16l-72 188h-278l-72 -188h-100l266 667h91l265 -667c-41 -23 -92 -60 -92 -94c0 -18 7 -28 20 -28c16 0 30 15 39 27zM226 274h212l-106 277z" />
<glyph unicode="&#x105;" horiz-adv-x="537" d="M257 507c139 0 216 -74 216 -209v-144c0 -32 -10 -127 -132 -154c-41 -23 -91 -60 -91 -94c0 -18 7 -28 20 -28c16 0 30 15 39 27h43c-10 -45 -54 -80 -110 -80c-18 0 -72 0 -72 67c0 47 51 85 75 101c-175 8 -189 126 -189 164c0 99 88 158 235 158c32 0 62 -2 91 -6 c-4 82 -40 118 -138 118c-57 0 -106 -14 -138 -25v78c46 16 97 27 151 27zM382 155v81c-24 4 -54 6 -87 6c-43 0 -148 -13 -148 -84c0 -57 41 -85 120 -85c76 0 115 27 115 82z" />
<glyph unicode="&#x118;" d="M489 -95h43c-10 -45 -54 -80 -110 -80c-18 0 -72 0 -72 67c0 60 84 106 88 108h-351v667h435v-87h-342v-203h301v-87h-301v-203h342v-87c-41 -23 -92 -60 -92 -94c0 -18 7 -28 20 -28c16 0 30 15 39 27z" />
<glyph unicode="&#x119;" horiz-adv-x="555" d="M504 267c0 -24 -1 -47 -3 -69h-344c14 -104 75 -127 141 -127c76 0 133 17 172 36v-82c-46 -28 -112 -83 -112 -119c0 -18 7 -28 20 -28c16 0 30 15 39 27h43c-10 -45 -54 -80 -110 -80c-18 0 -72 0 -72 67c0 51 60 91 81 104c-21 -3 -43 -4 -66 -4 c-105 0 -230 44 -230 252c0 65 0 264 221 264c134 0 220 -95 220 -241zM156 281h256c-5 58 -29 145 -128 145c-84 0 -120 -38 -128 -145z" />
<glyph unicode="&#x12e;" horiz-adv-x="266" d="M146 -95h43c-10 -45 -54 -80 -110 -80c-18 0 -72 0 -72 67c0 60 84 106 88 108h-8v667h92v-667c-41 -23 -92 -60 -92 -94c0 -18 7 -28 20 -28c16 0 30 15 39 27z" />
<glyph unicode="&#x172;" horiz-adv-x="721" d="M540 667h93v-392c0 -151 -70 -248 -195 -276c-40 -23 -90 -59 -90 -93c0 -18 7 -28 20 -28c16 0 30 15 39 27h43c-10 -45 -54 -80 -110 -80c-18 0 -72 0 -72 67c0 46 48 83 73 99c-162 8 -254 110 -254 284v392h93v-400c0 -131 57 -192 180 -192s180 61 180 192v400z" />
<glyph unicode="&#x173;" horiz-adv-x="590" d="M412 499h92v-289c0 -112 -50 -186 -140 -210c-41 -23 -92 -60 -92 -94c0 -18 7 -28 20 -28c16 0 30 15 39 27h43c-10 -45 -54 -80 -110 -80c-18 0 -72 0 -72 67c0 46 50 84 75 100c-118 10 -185 88 -185 218v289h91v-296c0 -91 37 -131 120 -131c82 0 119 40 119 131v296 z" />
<glyph unicode="&#x1cd;" horiz-adv-x="664" d="M332 781l42 65h71l-89 -122h-48l-88 122h70zM543 0l-72 188h-278l-72 -188h-100l266 667h91l265 -667h-100zM332 551l-106 -277h212z" />
<glyph unicode="&#x1ce;" horiz-adv-x="534" d="M257 507c139 0 216 -74 216 -209v-144c0 -38 -14 -162 -206 -162c-196 0 -211 126 -211 165c0 99 88 158 235 158c32 0 62 -2 91 -6c-4 82 -40 118 -138 118c-57 0 -106 -14 -138 -25v78c46 16 97 27 151 27zM382 155v81c-24 4 -54 6 -87 6c-43 0 -148 -13 -148 -84 c0 -57 41 -85 120 -85c76 0 115 27 115 82zM279 621l42 65h70l-88 -122h-48l-89 122h71z" />
<glyph unicode="&#x10c;" horiz-adv-x="628" d="M366 781l42 65h70l-88 -122h-48l-89 122h71zM382 76c72 0 137 17 193 42v-86c-60 -24 -128 -40 -204 -40c-141 0 -310 59 -310 342s169 342 310 342c76 0 144 -16 204 -40v-86c-56 25 -121 42 -193 42c-158 0 -225 -77 -225 -258c0 -180 67 -258 225 -258z" />
<glyph unicode="&#x10d;" horiz-adv-x="472" d="M280 621l42 65h71l-89 -122h-47l-89 122h71zM301 75c52 0 99 13 139 32v-87c-43 -17 -93 -28 -147 -28c-152 0 -235 92 -235 258s83 257 235 257c54 0 104 -11 147 -28v-87c-40 19 -87 33 -139 33c-76 0 -147 -22 -147 -175c0 -154 71 -175 147 -175z" />
<glyph unicode="&#x10e;" horiz-adv-x="670" d="M300 781l42 65h70l-88 -122h-48l-89 122h71zM299 667c206 0 314 -115 314 -334c0 -218 -108 -333 -314 -333h-213v667h213zM284 82c164 0 237 78 237 251c0 174 -73 252 -237 252h-105v-503h105z" />
<glyph unicode="&#x11a;" d="M314 781l42 65h70l-88 -122h-48l-89 122h71zM522 580h-342v-203h301v-87h-301v-203h342v-87h-435v667h435v-87z" />
<glyph unicode="&#x11b;" horiz-adv-x="555" d="M504 267c0 -24 -1 -47 -3 -69h-344c14 -104 75 -127 141 -127c76 0 133 17 172 36v-82c-47 -20 -106 -33 -177 -33c-105 0 -230 44 -230 252c0 65 0 264 221 264c134 0 220 -95 220 -241zM156 281h256c-5 58 -29 145 -128 145c-84 0 -120 -38 -128 -145zM284 621l42 65 h70l-88 -122h-48l-89 122h71z" />
<glyph unicode="&#x1e6;" horiz-adv-x="677" d="M360 781l42 65h70l-88 -122h-48l-89 122h71zM380 370h226v-325c-74 -35 -153 -53 -235 -53c-142 0 -310 59 -310 342c0 282 168 341 310 341c73 0 144 -13 210 -39v-85c-63 26 -130 40 -201 40c-105 0 -226 -29 -226 -257c0 -229 122 -258 228 -258c46 0 91 7 134 19v188 h-136v87z" />
<glyph unicode="&#x1e7;" horiz-adv-x="538" d="M283 621l42 65h70l-88 -122h-48l-89 122h71zM274 508c119 0 200 -55 200 -158v-371c0 -80 -38 -175 -219 -175c-54 0 -103 8 -148 21v87c42 -13 89 -22 140 -22c136 0 136 56 136 89v44c-33 -9 -67 -14 -101 -14c-143 0 -222 87 -222 244c0 145 62 255 214 255zM383 111 v245c0 18 0 70 -109 70c-57 0 -122 -19 -122 -173c0 -142 62 -161 130 -161c35 0 69 6 101 19z" />
<glyph unicode="&#x147;" horiz-adv-x="738" d="M385 781l42 65h70l-88 -122h-48l-89 122h71zM566 667h93v-667h-103l-376 534v-534h-93v667h106l373 -531v531z" />
<glyph unicode="&#x148;" horiz-adv-x="585" d="M289 621l42 65h70l-88 -122h-48l-89 122h71zM174 0h-92v456c4 2 96 52 213 52c126 0 201 -70 201 -186v-322h-92v328c0 47 -13 95 -113 95c-45 0 -86 -8 -117 -18v-405z" />
<glyph unicode="&#x158;" horiz-adv-x="634" d="M298 781l42 65h70l-88 -122h-48l-89 122h71zM424 268l177 -268h-110l-161 253h-150v-253h-93v667h246c146 0 240 -70 240 -202c0 -119 -75 -176 -149 -197zM329 341c128 0 151 61 151 121s-27 122 -155 122h-145v-243h149z" />
<glyph unicode="&#x159;" horiz-adv-x="343" d="M200 621l42 65h70l-88 -122h-48l-89 122h71zM173 394v-394h-92v449c5 2 109 50 243 50v-84c-59 -1 -112 -11 -151 -21z" />
<glyph unicode="&#x160;" horiz-adv-x="564" d="M154 485c0 -116 355 -74 355 -310c0 -114 -90 -183 -241 -183c-73 0 -140 20 -198 49v96c53 -32 118 -56 190 -56c71 0 156 16 156 94c0 173 -355 92 -355 310c0 92 61 190 233 190c71 0 129 -20 172 -42v-92c-35 21 -90 44 -161 44c-69 0 -151 -17 -151 -100zM290 781 l42 65h71l-89 -122h-48l-88 122h70z" />
<glyph unicode="&#x161;" horiz-adv-x="436" d="M223 621l42 65h70l-88 -122h-48l-89 122h71zM229 507c48 0 94 -13 134 -33v-79c-37 17 -79 30 -123 30c-81 0 -99 -30 -99 -64c0 -80 255 -34 255 -222c0 -69 -49 -147 -186 -147c-61 0 -109 16 -144 35v83c32 -18 78 -37 140 -37c68 0 98 29 98 62 c0 112 -254 51 -254 223c0 72 47 149 179 149z" />
<glyph unicode="&#x164;" horiz-adv-x="568" d="M284 781l42 65h70l-88 -122h-48l-89 122h71zM12 667h543v-87h-226v-580h-92v580h-225v87z" />
<glyph unicode="&#x1d3;" horiz-adv-x="721" d="M360 781l42 65h70l-88 -122h-48l-89 122h71zM540 667h93v-392c0 -180 -100 -284 -273 -284c-174 0 -273 104 -273 284v392h93v-400c0 -131 57 -192 180 -192s180 61 180 192v400z" />
<glyph unicode="&#x1d4;" horiz-adv-x="590" d="M293 620l42 65h70l-88 -122h-48l-89 122h71zM412 499h92v-289c0 -139 -77 -219 -211 -219s-211 80 -211 219v289h91v-296c0 -91 37 -131 120 -131c82 0 119 40 119 131v296z" />
<glyph unicode="&#x17d;" horiz-adv-x="609" d="M309 781l42 65h70l-88 -122h-48l-89 122h71zM536 584l-350 -492h350v-92h-472v81l352 493h-342v93h462v-83z" />
<glyph unicode="&#x17e;" horiz-adv-x="470" d="M234 621l42 65h70l-88 -122h-48l-89 122h71zM51 499h365v-84l-253 -323h253v-92h-371v84l254 324h-248v91z" />
<glyph unicode="&#xc7;" horiz-adv-x="628" d="M382 592c-158 0 -225 -77 -225 -258c0 -180 67 -258 225 -258c72 0 137 17 193 42v-86c-52 -21 -111 -36 -176 -39l-67 -121h-92l90 122c-131 12 -269 85 -269 340c0 283 169 342 310 342c76 0 144 -16 204 -40v-86c-56 25 -121 42 -193 42z" />
<glyph unicode="&#xe7;" horiz-adv-x="472" d="M301 425c-76 0 -147 -22 -147 -175c0 -154 71 -175 147 -175c52 0 99 13 139 32v-87c-33 -13 -70 -22 -109 -26l-68 -124h-92l89 124c-131 12 -202 102 -202 256c0 166 83 257 235 257c54 0 104 -11 147 -28v-87c-40 19 -87 33 -139 33z" />
<glyph unicode="&#x15e;" horiz-adv-x="564" d="M154 485c0 -116 355 -74 355 -310c0 -102 -72 -168 -194 -181l-69 -122h-91l88 121c-63 4 -122 22 -173 48v96c53 -32 118 -56 190 -56c71 0 156 16 156 94c0 173 -355 92 -355 310c0 92 61 190 233 190c71 0 129 -20 172 -42v-92c-35 21 -90 44 -161 44 c-69 0 -151 -17 -151 -100z" />
<glyph unicode="&#x15f;" horiz-adv-x="436" d="M396 139c0 -60 -37 -126 -136 -143l-70 -124h-91l88 121c-50 3 -91 17 -121 34v83c32 -18 78 -37 140 -37c68 0 98 29 98 62c0 112 -254 51 -254 223c0 72 47 149 179 149c48 0 94 -13 134 -33v-79c-37 17 -79 30 -123 30c-81 0 -99 -30 -99 -64c0 -80 255 -34 255 -222z " />
<glyph unicode="&#x10a;" horiz-adv-x="628" d="M315 724v85h92v-85h-92zM382 76c72 0 137 17 193 42v-86c-60 -24 -128 -40 -204 -40c-141 0 -310 59 -310 342s169 342 310 342c76 0 144 -16 204 -40v-86c-56 25 -121 42 -193 42c-158 0 -225 -77 -225 -258c0 -180 67 -258 225 -258z" />
<glyph unicode="&#x10b;" horiz-adv-x="472" d="M233 564v85h91v-85h-91zM301 75c52 0 99 13 139 32v-87c-43 -17 -93 -28 -147 -28c-152 0 -235 92 -235 258s83 257 235 257c54 0 104 -11 147 -28v-87c-40 19 -87 33 -139 33c-76 0 -147 -22 -147 -175c0 -154 71 -175 147 -175z" />
<glyph unicode="&#x116;" d="M359 809v-85h-91v85h91zM522 580h-342v-203h301v-87h-301v-203h342v-87h-435v667h435v-87z" />
<glyph unicode="&#x117;" horiz-adv-x="555" d="M329 649v-85h-91v85h91zM504 267c0 -24 -1 -47 -3 -69h-344c14 -104 75 -127 141 -127c76 0 133 17 172 36v-82c-47 -20 -106 -33 -177 -33c-105 0 -230 44 -230 252c0 65 0 264 221 264c134 0 220 -95 220 -241zM156 281h256c-5 58 -29 145 -128 145 c-84 0 -120 -38 -128 -145z" />
<glyph unicode="&#x120;" horiz-adv-x="677" d="M407 809v-85h-91v85h91zM380 370h226v-325c-74 -35 -153 -53 -235 -53c-142 0 -310 59 -310 342c0 282 168 341 310 341c73 0 144 -13 210 -39v-85c-63 26 -130 40 -201 40c-105 0 -226 -29 -226 -257c0 -229 122 -258 228 -258c46 0 91 7 134 19v188h-136v87z" />
<glyph unicode="&#x121;" horiz-adv-x="538" d="M327 649v-85h-91v85h91zM274 508c119 0 200 -55 200 -158v-371c0 -80 -38 -175 -219 -175c-54 0 -103 8 -148 21v87c42 -13 89 -22 140 -22c136 0 136 56 136 89v44c-33 -9 -67 -14 -101 -14c-143 0 -222 87 -222 244c0 145 62 255 214 255zM383 111v245 c0 18 0 70 -109 70c-57 0 -122 -19 -122 -173c0 -142 62 -161 130 -161c35 0 69 6 101 19z" />
<glyph unicode="&#x130;" horiz-adv-x="266" d="M178 809v-85h-91v85h91zM179 0v667h-92v-667h92z" />
<glyph unicode="&#x17b;" horiz-adv-x="609" d="M345 809v-85h-91v85h91zM536 584l-350 -492h350v-92h-472v81l352 493h-342v93h462v-83z" />
<glyph unicode="&#x17c;" horiz-adv-x="470" d="M278 649v-85h-91v85h91zM51 499h365v-84l-253 -323h253v-92h-371v84l254 324h-248v91z" />
<glyph unicode="&#x150;" horiz-adv-x="747" d="M371 676c141 0 310 -59 310 -342s-169 -342 -310 -342s-310 59 -310 342s169 342 310 342zM371 76c101 0 217 29 217 258s-116 258 -217 258s-217 -29 -217 -258s116 -258 217 -258zM271 724l62 117h90l-95 -117h-57zM399 724l62 117h90l-95 -117h-57z" />
<glyph unicode="&#x151;" horiz-adv-x="564" d="M284 506c107 0 235 -45 235 -257s-128 -257 -235 -257s-235 45 -235 257s128 257 235 257zM284 73c75 0 143 21 143 176s-68 176 -143 176s-143 -21 -143 -176s68 -176 143 -176zM182 564l62 117h90l-95 -117h-57zM309 564l62 117h90l-95 -117h-57z" />
<glyph unicode="&#x170;" horiz-adv-x="721" d="M540 667h93v-392c0 -180 -100 -284 -273 -284c-174 0 -273 104 -273 284v392h93v-400c0 -131 57 -192 180 -192s180 61 180 192v400zM260 724l62 117h90l-95 -117h-57zM388 724l62 117h90l-95 -117h-57z" />
<glyph unicode="&#x171;" horiz-adv-x="590" d="M412 499h92v-289c0 -139 -77 -219 -211 -219s-211 80 -211 219v289h91v-296c0 -91 37 -131 120 -131c82 0 119 40 119 131v296zM195 564l62 117h90l-95 -117h-57zM322 564l62 117h90l-95 -117h-57z" />
<glyph unicode="&#x122;" horiz-adv-x="677" d="M312 -134c29 8 39 40 39 85h63c0 -79 -39 -132 -102 -144v59zM380 370h226v-325c-74 -35 -153 -53 -235 -53c-142 0 -310 59 -310 342c0 282 168 341 310 341c73 0 144 -13 210 -39v-85c-63 26 -130 40 -201 40c-105 0 -226 -29 -226 -257c0 -229 122 -258 228 -258 c46 0 91 7 134 19v188h-136v87z" />
<glyph unicode="&#x123;" horiz-adv-x="538" d="M247 564c0 79 39 132 102 144v-59c-29 -8 -38 -40 -38 -85h-64zM274 508c119 0 200 -55 200 -158v-371c0 -80 -38 -175 -219 -175c-54 0 -103 8 -148 21v87c42 -13 89 -22 140 -22c136 0 136 56 136 89v44c-33 -9 -67 -14 -101 -14c-143 0 -222 87 -222 244 c0 145 62 255 214 255zM383 111v245c0 18 0 70 -109 70c-57 0 -122 -19 -122 -173c0 -142 62 -161 130 -161c35 0 69 6 101 19z" />
<glyph unicode="&#x136;" horiz-adv-x="674" d="M301 -49c0 -45 -9 -77 -38 -85v-59c63 12 102 65 102 144h-64zM319 365l308 -365h-115l-254 300l-79 -84v-216h-92v667h92v-323l306 323h117z" />
<glyph unicode="&#x137;" horiz-adv-x="588" d="M260 -49c0 -45 -9 -77 -38 -85v-59c63 12 102 65 102 144h-64zM306 291l246 -291h-122l-185 232l-62 -60v-172h-91v689h91v-399l216 209h124z" />
<glyph unicode="&#x13b;" horiz-adv-x="532" d="M281 -49h64c0 -79 -39 -132 -102 -144v59c29 8 38 40 38 85zM179 87h332v-87h-424v667h92v-580z" />
<glyph unicode="&#x13c;" horiz-adv-x="294" d="M76 -134c29 8 38 40 38 85h64c0 -79 -39 -132 -102 -144v59zM101 689h92v-689h-92v689z" />
<glyph unicode="&#x145;" horiz-adv-x="738" d="M341 -49h63c0 -79 -39 -132 -101 -144v59c29 8 38 40 38 85zM566 667h93v-667h-103l-376 534v-534h-93v667h106l373 -531v531z" />
<glyph unicode="&#x146;" horiz-adv-x="585" d="M262 -49h64c0 -79 -39 -132 -102 -144v59c29 8 38 40 38 85zM174 0h-92v456c4 2 96 52 213 52c126 0 201 -70 201 -186v-322h-92v328c0 47 -13 95 -113 95c-45 0 -86 -8 -117 -18v-405z" />
<glyph unicode="&#x156;" horiz-adv-x="634" d="M298 -49h63c0 -79 -39 -132 -101 -144v59c28 8 38 40 38 85zM424 268l177 -268h-110l-161 253h-150v-253h-93v667h246c146 0 240 -70 240 -202c0 -119 -75 -176 -149 -197zM329 341c128 0 151 61 151 121s-27 122 -155 122h-145v-243h149z" />
<glyph unicode="&#x157;" horiz-adv-x="343" d="M95 -49h63c0 -79 -39 -132 -102 -144v59c29 8 39 40 39 85zM173 394v-394h-92v449c5 2 109 50 243 50v-84c-59 -1 -112 -11 -151 -21z" />
<glyph unicode="&#x218;" horiz-adv-x="564" d="M154 485c0 -116 355 -74 355 -310c0 -114 -90 -183 -241 -183c-73 0 -140 20 -198 49v96c53 -32 118 -56 190 -56c71 0 156 16 156 94c0 173 -355 92 -355 310c0 92 61 190 233 190c71 0 129 -20 172 -42v-92c-35 21 -90 44 -161 44c-69 0 -151 -17 -151 -100zM253 -50 c0 -43 -7 -78 -41 -88v-63c79 14 112 78 112 151h-71z" />
<glyph unicode="&#x219;" horiz-adv-x="436" d="M200 -49h63c0 -79 -39 -132 -102 -144v59c29 8 39 40 39 85zM141 361c0 -80 255 -34 255 -222c0 -69 -49 -147 -186 -147c-61 0 -109 16 -144 35v83c32 -18 78 -37 140 -37c68 0 98 29 98 62c0 112 -254 51 -254 223c0 72 47 149 179 149c48 0 94 -13 134 -33v-79 c-37 17 -79 30 -123 30c-81 0 -99 -30 -99 -64z" />
<glyph unicode="&#x162;" horiz-adv-x="568" d="M250 -49h64c0 -79 -39 -132 -102 -144v59c29 8 38 40 38 85zM12 667h543v-87h-226v-580h-92v580h-225v87z" />
<glyph unicode="&#x163;" horiz-adv-x="374" d="M211 -49h63c0 -79 -39 -132 -102 -144v59c29 8 39 40 39 85zM335 422h-133v-290c0 -43 28 -59 75 -59c26 0 45 7 58 15v-82c-20 -8 -43 -14 -71 -14c-32 0 -153 11 -153 146v284h-87v77h87v149h91v-149h133v-77z" />
<glyph unicode="&#x110;" horiz-adv-x="723" d="M346 667c206 0 314 -115 314 -334c0 -218 -108 -333 -314 -333h-213v296h-80v75h80v296h213zM331 82c164 0 237 78 237 251c0 174 -73 252 -237 252h-105v-214h149v-75h-149v-214h105z" />
<glyph unicode="&#x111;" horiz-adv-x="600" d="M490 633h67v-71h-67v-408c0 -38 -15 -162 -206 -162c-83 0 -221 34 -221 263c0 208 125 252 229 252c37 0 72 -5 107 -15v70h-112v71h112v56h91v-56zM399 147v258c-34 14 -70 21 -107 21c-71 0 -138 -21 -138 -170c0 -163 69 -183 130 -183c76 0 115 25 115 74z" />
<glyph unicode="&#x126;" horiz-adv-x="760" d="M711 554v-72h-79v-482h-92v290h-320v-290h-92v482h-80v72h80v113h92v-113h320v113h92v-113h79zM540 377v105h-320v-105h320z" />
<glyph unicode="&#x127;" horiz-adv-x="606" d="M338 507c124 0 195 -77 195 -213v-294h-92v297c0 109 -60 122 -112 122c-48 0 -92 -12 -123 -24v-395h-92v558h-68v72h68v59h92v-59h127v-72h-127v-76c36 14 81 25 132 25z" />
<glyph unicode="&#x141;" horiz-adv-x="532" d="M179 87h332v-87h-424v286l-70 -44v73l70 43v309h92v-251l140 88v-73l-140 -88v-256z" />
<glyph unicode="&#x142;" horiz-adv-x="302" d="M193 451l85 53v-72l-85 -54v-378h-92v321l-70 -44v73l70 44v295h92v-238z" />
<glyph unicode="&#x166;" horiz-adv-x="568" d="M555 580h-226v-211h136v-71h-136v-298h-92v298h-136v71h136v211h-225v87h543v-87z" />
<glyph unicode="&#x167;" horiz-adv-x="374" d="M335 422h-133v-113h114v-72h-114v-105c0 -43 28 -59 75 -59c26 0 45 7 58 15v-82c-20 -8 -43 -14 -71 -14c-32 0 -153 11 -153 146v99h-68v72h68v113h-87v77h87v149h91v-149h133v-77z" />
<glyph unicode="&#x10f;" horiz-adv-x="660" d="M563 689h72c0 -73 -34 -136 -113 -151v63c35 10 41 45 41 88zM63 256c0 207 125 251 229 251c37 0 72 -5 107 -15v197h91v-535c0 -38 -15 -162 -206 -162c-83 0 -221 34 -221 264zM154 256c0 -162 69 -183 130 -183c76 0 115 25 115 75v257c-34 14 -70 21 -107 21 c-71 0 -138 -21 -138 -170z" />
<glyph unicode="&#x13d;" horiz-adv-x="532" d="M281 667h63c0 -79 -39 -132 -101 -144v59c29 8 38 40 38 85zM179 87h332v-87h-424v667h92v-580z" />
<glyph unicode="&#x13e;" horiz-adv-x="294" d="M265 689h64c0 -79 -39 -132 -102 -144v59c29 8 38 40 38 85zM101 689h92v-689h-92v689z" />
<glyph unicode="&#x149;" horiz-adv-x="581" d="M70 664h64c0 -79 -39 -132 -102 -144v58c29 9 38 40 38 86zM169 0h-92v456c4 2 96 52 213 52c126 0 201 -70 201 -186v-322h-92v328c0 47 -13 95 -113 95c-45 0 -86 -8 -117 -18v-405z" />
<glyph unicode="&#x165;" horiz-adv-x="374" d="M321 712h64c0 -79 -39 -132 -102 -144v59c29 8 38 39 38 85zM335 422h-133v-290c0 -43 28 -59 75 -59c26 0 45 7 58 15v-82c-20 -8 -43 -14 -71 -14c-32 0 -153 11 -153 146v284h-87v77h87v149h91v-149h133v-77z" />
<glyph unicode="&#x138;" horiz-adv-x="588" d="M306 291l246 -291h-122l-185 232l-62 -60v-172h-91v499h91v-209l216 209h124z" />
<glyph unicode="&#x13f;" horiz-adv-x="532" d="M451 376v-85h-91v85h91zM179 87h332v-87h-424v667h92v-580z" />
<glyph unicode="&#x140;" horiz-adv-x="298" d="M342 377v-85h-91v85h91zM101 689h92v-689h-92v689z" />
<glyph unicode="&#x14a;" horiz-adv-x="738" d="M566 667h93v-672c0 -112 -58 -167 -177 -167v78c71 0 84 34 86 77l-388 551v-534h-93v667h106l373 -531v531z" />
<glyph unicode="&#x14b;" horiz-adv-x="585" d="M295 508c126 0 201 -70 201 -186v-327c0 -112 -58 -167 -177 -167v78c77 0 85 41 85 89v333c0 47 -13 95 -113 95c-45 0 -86 -8 -117 -18v-405h-92v456c4 2 96 52 213 52z" />
<glyph unicode="&#x169;" horiz-adv-x="590" d="M445 582c-101 -119 -202 100 -304 -19v66c102 119 203 -100 304 19v-66zM412 499h92v-289c0 -139 -77 -219 -211 -219s-211 80 -211 219v289h91v-296c0 -91 37 -131 120 -131c82 0 119 40 119 131v296z" />
<glyph horiz-adv-x="234" d="M111 674h55v-359h-50v310l-63 -36v52z" />
<glyph horiz-adv-x="328" d="M276 575c0 -76 -76 -157 -136 -210h134v-50h-221v40c68 52 174 147 174 219c0 48 -44 58 -80 58c-39 0 -70 -14 -88 -27v48c23 13 55 26 95 26c89 0 122 -54 122 -104z" />
<glyph horiz-adv-x="323" d="M220 507c28 -12 60 -38 60 -87c0 -53 -35 -109 -134 -109c-38 0 -69 9 -93 21v49c21 -12 51 -24 88 -24c41 0 89 11 89 62c0 52 -51 63 -94 63h-30v45h29c35 0 77 9 77 52s-42 52 -77 52c-34 0 -60 -10 -78 -20v48c21 11 50 20 84 20c89 0 121 -52 121 -100 c0 -37 -21 -59 -42 -72z" />
<glyph horiz-adv-x="328" d="M243 473h51v-46h-51v-112h-50v112h-164v46l158 201h56v-201zM88 473h105v130z" />
<glyph horiz-adv-x="328" d="M73 674h199v-46h-155l-9 -91c16 4 35 6 55 6c83 0 127 -40 127 -116s-44 -116 -127 -116c-48 0 -81 12 -106 27v54c17 -16 48 -33 101 -33c68 0 82 27 82 68c0 42 -15 69 -87 69c-29 0 -53 -5 -73 -13l-25 26z" />
<glyph horiz-adv-x="342" d="M220 679c21 0 40 -4 56 -8v-45c-13 3 -30 6 -48 6c-64 0 -105 -37 -118 -101c0 0 29 18 74 18c92 0 120 -59 120 -115c0 -61 -38 -123 -124 -123c-82 0 -124 57 -124 169c0 179 115 199 164 199zM180 504c-41 0 -64 -18 -74 -27c2 -121 51 -121 74 -121c67 0 74 55 74 78 c0 46 -25 70 -74 70z" />
<glyph horiz-adv-x="326" d="M40 674h249v-47l-150 -312h-55l152 309h-196v50z" />
<glyph horiz-adv-x="337" d="M169 483c-35 0 -76 -10 -76 -59c0 -21 7 -68 76 -68s76 47 76 68c0 49 -41 59 -76 59zM106 584c0 -17 6 -56 63 -56s63 39 63 56c0 32 -21 49 -63 49s-63 -17 -63 -49zM242 509c24 -12 53 -37 53 -85c0 -56 -39 -113 -126 -113s-126 57 -126 113c0 39 24 69 53 84 c-20 14 -40 37 -40 75c0 46 29 95 113 95c83 0 113 -49 113 -95c0 -40 -20 -62 -40 -74z" />
<glyph horiz-adv-x="341" d="M133 311c-21 0 -40 3 -55 8v45c13 -4 29 -7 47 -7c65 0 105 37 119 102c0 0 -29 -19 -75 -19c-91 0 -120 60 -120 115c0 62 39 124 124 124c83 0 124 -57 124 -170c0 -179 -115 -198 -164 -198zM173 486c41 0 65 17 74 26c-1 121 -50 121 -74 121c-67 0 -74 -54 -74 -78 c0 -45 26 -69 74 -69z" />
<glyph horiz-adv-x="377" d="M189 679c65 0 143 -32 143 -184s-78 -184 -143 -184s-143 32 -143 184s78 184 143 184zM189 356c43 0 93 16 93 139c0 122 -50 138 -93 138s-93 -16 -93 -138c0 -123 50 -139 93 -139z" />
<glyph horiz-adv-x="234" d="M111 360h55v-359h-50v310l-63 -37v53z" />
<glyph horiz-adv-x="328" d="M276 261c0 -76 -76 -158 -136 -210h134v-50h-221v40c68 51 174 147 174 219c0 48 -44 58 -80 58c-39 0 -70 -15 -88 -27v47c23 14 55 26 95 26c89 0 122 -53 122 -103z" />
<glyph horiz-adv-x="323" d="M220 193c28 -13 60 -38 60 -87c0 -53 -35 -109 -134 -109c-38 0 -69 9 -93 21v49c21 -12 51 -25 88 -25c41 0 89 11 89 63s-51 63 -94 63h-30v44h29c35 0 77 9 77 53c0 43 -42 52 -77 52c-34 0 -60 -10 -78 -21v49c21 10 50 19 84 19c89 0 121 -51 121 -99 c0 -37 -21 -59 -42 -72z" />
<glyph horiz-adv-x="328" d="M243 158h51v-45h-51v-112h-50v112h-164v45l158 202h56v-202zM88 158h105v130z" />
<glyph horiz-adv-x="326" d="M73 360h199v-47h-155l-9 -91c16 4 35 7 55 7c83 0 127 -40 127 -116s-44 -116 -127 -116c-48 0 -81 11 -106 26v55c17 -17 48 -33 101 -33c68 0 82 27 82 68s-15 69 -87 69c-29 0 -53 -6 -73 -13l-25 26z" />
<glyph horiz-adv-x="342" d="M220 364c21 0 40 -3 56 -7v-46c-13 4 -30 7 -48 7c-64 0 -105 -37 -118 -102c0 0 29 19 74 19c92 0 120 -60 120 -115c0 -62 -38 -123 -124 -123c-82 0 -124 56 -124 169c0 179 115 198 164 198zM180 189c-41 0 -64 -17 -74 -26c2 -121 51 -121 74 -121c67 0 74 55 74 78 c0 45 -25 69 -74 69z" />
<glyph horiz-adv-x="326" d="M40 360h249v-47l-150 -312h-55l152 309h-196v50z" />
<glyph horiz-adv-x="337" d="M169 169c-35 0 -76 -10 -76 -60c0 -20 7 -67 76 -67s76 47 76 67c0 50 -41 60 -76 60zM106 270c0 -17 6 -56 63 -56s63 39 63 56c0 32 -21 48 -63 48s-63 -16 -63 -48zM242 195c24 -13 53 -38 53 -85c0 -56 -39 -113 -126 -113s-126 57 -126 113c0 39 24 68 53 84 c-20 14 -40 37 -40 74c0 47 29 96 113 96c83 0 113 -49 113 -96c0 -39 -20 -61 -40 -73z" />
<glyph horiz-adv-x="341" d="M133 -3c-21 0 -40 3 -55 7v46c13 -4 29 -7 47 -7c65 0 105 37 119 101c0 0 -29 -18 -75 -18c-91 0 -120 59 -120 115c0 61 39 123 124 123c83 0 124 -57 124 -169c0 -179 -115 -198 -164 -198zM173 171c41 0 65 18 74 27c-1 121 -50 121 -74 121c-67 0 -74 -55 -74 -78 c0 -46 26 -70 74 -70z" />
<glyph horiz-adv-x="377" d="M189 364c65 0 143 -32 143 -184c0 -151 -78 -183 -143 -183s-143 32 -143 183c0 152 78 184 143 184zM189 42c43 0 93 16 93 138c0 123 -50 139 -93 139s-93 -16 -93 -139c0 -122 50 -138 93 -138z" />
<glyph unicode="&#xe194;" horiz-adv-x="778" d="M421 528c89 0 136 -46 136 -123s-49 -122 -136 -122h-85v-144h-55v389h140zM417 331c76 0 87 37 87 74s-11 74 -87 74h-81v-148h81zM389 675c189 0 342 -153 342 -342c0 -188 -153 -341 -342 -341c-188 0 -341 153 -341 341c0 189 153 342 341 342zM389 36 c165 0 298 133 298 297c0 165 -133 298 -298 298c-164 0 -297 -133 -297 -298c0 -164 133 -297 297 -297z" />
<glyph unicode="&#x2120;" horiz-adv-x="722" d="M602 667h50v-333h-46v263l-114 -150l-113 150v-263h-46v333h50l109 -144zM106 576c0 -58 178 -37 178 -155c0 -57 -45 -91 -121 -91c-36 0 -70 10 -99 24v48c27 -16 59 -28 95 -28s78 8 78 47c0 87 -177 46 -177 155c0 46 30 95 116 95c36 0 65 -10 86 -21v-46 c-17 11 -45 22 -80 22s-76 -8 -76 -50z" />
<glyph unicode="&#x2153;" horiz-adv-x="722" d="M607 193c28 -13 60 -38 60 -87c0 -53 -36 -109 -135 -109c-37 0 -68 9 -92 21v49c21 -12 51 -25 88 -25c40 0 89 11 89 63s-51 63 -94 63h-31v44h30c35 0 77 9 77 53c0 43 -42 52 -77 52c-34 0 -60 -10 -79 -21v49c22 10 50 19 84 19c90 0 122 -51 122 -99 c0 -37 -21 -59 -42 -72zM110 674h54v-359h-50v310l-62 -36v52zM507 685h64l-437 -707h-63z" />
<glyph unicode="&#xbe;" horiz-adv-x="812" d="M233 507c28 -12 60 -38 60 -87c0 -53 -35 -109 -134 -109c-37 0 -68 9 -93 21v49c21 -12 51 -24 88 -24c41 0 89 11 89 62c0 52 -51 63 -94 63h-30v45h29c35 0 78 9 78 52s-43 52 -78 52c-33 0 -60 -10 -78 -20v48c22 11 50 20 84 20c89 0 121 -52 121 -100 c0 -37 -21 -59 -42 -72zM714 158h51v-45h-51v-112h-50v112h-164v45l157 202h57v-202zM559 158h105v130zM617 685h63l-436 -707h-64z" />
<glyph unicode="&#x215b;" horiz-adv-x="723" d="M110 674h54v-359h-50v310l-62 -36v52zM544 169c35 0 77 -10 77 -60c0 -20 -8 -67 -77 -67c-68 0 -76 47 -76 67c0 50 42 60 76 60zM481 270c0 32 21 48 63 48s64 -16 64 -48c0 -17 -6 -56 -64 -56c-57 0 -63 39 -63 56zM618 195c20 12 40 34 40 73c0 47 -30 96 -114 96 c-83 0 -113 -49 -113 -96c0 -37 20 -60 41 -74c-29 -16 -54 -45 -54 -84c0 -56 39 -113 126 -113c88 0 127 57 127 113c0 47 -30 72 -53 85zM513 685h63l-437 -707h-63z" />
<glyph unicode="&#x215c;" horiz-adv-x="814" d="M234 507c28 -12 60 -38 60 -87c0 -53 -36 -109 -134 -109c-38 0 -69 9 -93 21v49c21 -12 51 -24 88 -24c41 0 89 11 89 62c0 52 -51 63 -94 63h-30v45h29c35 0 77 9 77 52s-42 52 -77 52c-34 0 -60 -10 -79 -20v48c22 11 51 20 85 20c89 0 121 -52 121 -100 c0 -37 -21 -59 -42 -72zM636 169c35 0 76 -10 76 -60c0 -20 -7 -67 -76 -67s-76 47 -76 67c0 50 41 60 76 60zM573 270c0 32 21 48 63 48s63 -16 63 -48c0 -17 -6 -56 -63 -56s-63 39 -63 56zM709 195c20 12 40 34 40 73c0 47 -30 96 -113 96c-84 0 -113 -49 -113 -96 c0 -37 20 -60 40 -74c-29 -16 -53 -45 -53 -84c0 -56 39 -113 126 -113s126 57 126 113c0 47 -29 72 -53 85zM599 685h63l-437 -707h-63z" />
<glyph unicode="&#x215d;" horiz-adv-x="838" d="M99 674h199v-46h-156l-9 -91c17 4 35 6 55 6c83 0 127 -40 127 -116s-44 -116 -127 -116c-47 0 -81 12 -105 27v54c17 -16 48 -33 101 -33c68 0 82 27 82 68c0 42 -15 69 -87 69c-30 0 -54 -5 -73 -13l-26 26zM650 169c35 0 76 -10 76 -60c0 -20 -7 -67 -76 -67 s-76 47 -76 67c0 50 41 60 76 60zM587 270c0 32 21 48 63 48s63 -16 63 -48c0 -17 -6 -56 -63 -56s-63 39 -63 56zM723 195c20 12 40 34 40 73c0 47 -30 96 -113 96c-84 0 -113 -49 -113 -96c0 -37 20 -60 40 -74c-29 -16 -53 -45 -53 -84c0 -56 39 -113 126 -113 s126 57 126 113c0 47 -29 72 -53 85zM613 685h63l-437 -707h-63z" />
<glyph unicode="&#x215e;" horiz-adv-x="763" d="M54 674h250v-47l-150 -312h-56l152 309h-196v50zM585 169c34 0 76 -10 76 -60c0 -20 -8 -67 -76 -67c-69 0 -77 47 -77 67c0 50 42 60 77 60zM521 270c0 32 22 48 64 48c41 0 63 -16 63 -48c0 -17 -6 -56 -63 -56c-58 0 -64 39 -64 56zM658 195c20 12 40 34 40 73 c0 47 -30 96 -113 96c-84 0 -114 -49 -114 -96c0 -37 20 -60 41 -74c-29 -16 -54 -45 -54 -84c0 -56 39 -113 127 -113c87 0 126 57 126 113c0 47 -30 72 -53 85zM539 685h64l-437 -707h-63z" />
<glyph unicode="&#xbc;" horiz-adv-x="707" d="M110 674h54v-359h-50v310l-62 -36v52zM604 158h51v-45h-51v-112h-50v112h-164v45l158 202h56v-202zM449 158h105v130zM507 685h64l-437 -707h-63z" />
<glyph unicode="&#xbd;" horiz-adv-x="724" d="M659 261c0 -76 -76 -158 -136 -210h135v-50h-221v40c67 51 173 147 173 219c0 48 -43 58 -80 58c-39 0 -69 -15 -88 -27v47c23 14 55 26 95 26c90 0 122 -53 122 -103zM110 674h54v-359h-50v310l-62 -36v52zM507 685h64l-437 -707h-63z" />
<glyph unicode="&#x2080;" horiz-adv-x="377" d="M189 214c65 0 143 -32 143 -184s-78 -184 -143 -184s-143 32 -143 184s78 184 143 184zM189 -108c43 0 93 15 93 138s-50 139 -93 139s-93 -16 -93 -139s50 -138 93 -138z" />
<glyph unicode="&#x2081;" horiz-adv-x="234" d="M111 209h55v-358h-50v309l-63 -36v52z" />
<glyph unicode="&#x2082;" horiz-adv-x="328" d="M276 110c0 -76 -76 -157 -136 -210h134v-49h-221v39c68 52 174 147 174 220c0 48 -44 58 -80 58c-39 0 -70 -15 -88 -28v48c23 13 55 26 95 26c89 0 122 -54 122 -104z" />
<glyph unicode="&#x2083;" horiz-adv-x="323" d="M220 43c28 -13 60 -38 60 -88c0 -52 -35 -109 -134 -109c-38 0 -69 10 -93 21v49c21 -12 51 -24 88 -24c41 0 89 11 89 63s-51 63 -94 63h-30v44h29c35 0 77 9 77 52c0 44 -42 53 -77 53c-34 0 -60 -11 -78 -21v48c21 11 50 20 84 20c89 0 121 -52 121 -100 c0 -37 -21 -58 -42 -71z" />
<glyph unicode="&#x2084;" horiz-adv-x="328" d="M243 8h51v-46h-51v-111h-50v111h-164v46l158 201h56v-201zM88 8h105v130z" />
<glyph unicode="&#x2085;" horiz-adv-x="327" d="M73 209h199v-46h-155l-9 -91c16 4 35 7 55 7c83 0 127 -41 127 -117s-44 -116 -127 -116c-48 0 -81 12 -106 27v54c17 -16 48 -33 101 -33c68 0 82 27 82 68c0 42 -15 70 -87 70c-29 0 -53 -6 -73 -13l-25 26z" />
<glyph unicode="&#x2086;" horiz-adv-x="342" d="M220 214c21 0 40 -4 56 -8v-45c-13 4 -30 7 -48 7c-64 0 -105 -38 -118 -102c0 0 29 18 74 18c92 0 120 -59 120 -115c0 -61 -38 -123 -124 -123c-82 0 -124 57 -124 169c0 179 115 199 164 199zM180 39c-41 0 -64 -17 -74 -27c2 -120 51 -120 74 -120c67 0 74 54 74 78 c0 45 -25 69 -74 69z" />
<glyph unicode="&#x2087;" horiz-adv-x="324" d="M40 209h249v-47l-150 -311h-55l152 309h-196v49z" />
<glyph unicode="&#x2088;" horiz-adv-x="337" d="M169 18c-35 0 -76 -10 -76 -59c0 -20 7 -67 76 -67s76 47 76 67c0 49 -41 59 -76 59zM106 119c0 -17 6 -56 63 -56s63 39 63 56c0 32 -21 49 -63 49s-63 -17 -63 -49zM242 44c24 -12 53 -37 53 -84c0 -57 -39 -114 -126 -114s-126 57 -126 114c0 38 24 68 53 83 c-20 14 -40 37 -40 75c0 46 29 96 113 96c83 0 113 -50 113 -96c0 -39 -20 -61 -40 -74z" />
<glyph unicode="&#x2089;" horiz-adv-x="342" d="M133 -154c-21 0 -40 3 -55 8v45c13 -4 29 -7 47 -7c65 0 105 38 119 102c0 0 -29 -18 -75 -18c-91 0 -120 59 -120 115c0 61 39 123 124 123c83 0 124 -57 124 -169c0 -179 -115 -199 -164 -199zM173 21c41 0 65 17 74 27c-1 120 -50 120 -74 120c-67 0 -74 -54 -74 -78 c0 -45 26 -69 74 -69z" />
<glyph unicode="&#x2070;" horiz-adv-x="377" d="M189 826c65 0 143 -31 143 -183s-78 -184 -143 -184s-143 32 -143 184s78 183 143 183zM189 504c43 0 93 16 93 139c0 122 -50 138 -93 138s-93 -16 -93 -138c0 -123 50 -139 93 -139z" />
<glyph unicode="&#xb9;" horiz-adv-x="240" d="M111 822h55v-359h-50v310l-63 -36v52z" />
<glyph unicode="&#xb2;" horiz-adv-x="328" d="M276 723c0 -76 -76 -157 -136 -210h134v-50h-221v40c68 51 174 147 174 219c0 48 -44 58 -80 58c-39 0 -70 -14 -88 -27v47c23 14 55 26 95 26c89 0 122 -53 122 -103z" />
<glyph unicode="&#xb3;" horiz-adv-x="323" d="M220 655c28 -12 60 -38 60 -87c0 -53 -35 -109 -134 -109c-38 0 -69 9 -93 21v49c21 -12 51 -24 88 -24c41 0 89 10 89 62s-51 63 -94 63h-30v45h29c35 0 77 9 77 52s-42 52 -77 52c-34 0 -60 -10 -78 -20v48c21 11 50 19 84 19c89 0 121 -51 121 -99 c0 -37 -21 -59 -42 -72z" />
<glyph unicode="&#x2074;" horiz-adv-x="328" d="M243 621h51v-46h-51v-112h-50v112h-164v46l158 201h56v-201zM88 621h105v130z" />
<glyph unicode="&#x2075;" horiz-adv-x="328" d="M73 822h199v-46h-155l-9 -91c16 4 35 6 55 6c83 0 127 -40 127 -116s-44 -116 -127 -116c-48 0 -81 12 -106 27v54c17 -16 48 -33 101 -33c68 0 82 27 82 68c0 42 -15 69 -87 69c-29 0 -53 -5 -73 -13l-25 26z" />
<glyph unicode="&#x2076;" horiz-adv-x="342" d="M220 826c21 0 40 -3 56 -7v-45c-13 3 -30 6 -48 6c-64 0 -105 -37 -118 -101c0 0 29 18 74 18c92 0 120 -59 120 -115c0 -61 -38 -123 -124 -123c-82 0 -124 57 -124 169c0 179 115 198 164 198zM180 652c-41 0 -64 -18 -74 -27c2 -121 51 -121 74 -121c67 0 74 55 74 78 c0 46 -25 70 -74 70z" />
<glyph unicode="&#x2077;" horiz-adv-x="326" d="M40 822h249v-47l-150 -312h-55l152 309h-196v50z" />
<glyph unicode="&#x2078;" horiz-adv-x="337" d="M169 631c-35 0 -76 -10 -76 -59c0 -21 7 -68 76 -68s76 47 76 68c0 49 -41 59 -76 59zM106 732c0 -17 6 -56 63 -56s63 39 63 56c0 32 -21 49 -63 49s-63 -17 -63 -49zM242 657c24 -12 53 -37 53 -85c0 -56 -39 -113 -126 -113s-126 57 -126 113c0 39 24 69 53 84 c-20 14 -40 37 -40 75c0 46 29 95 113 95c83 0 113 -49 113 -95c0 -40 -20 -62 -40 -74z" />
<glyph unicode="&#x2079;" horiz-adv-x="342" d="M133 459c-21 0 -40 3 -55 7v46c13 -4 29 -7 47 -7c65 0 105 37 119 102c0 0 -29 -19 -75 -19c-91 0 -120 60 -120 115c0 62 39 123 124 123c83 0 124 -56 124 -169c0 -179 -115 -198 -164 -198zM173 634c41 0 65 17 74 26c-1 121 -50 121 -74 121c-67 0 -74 -54 -74 -78 c0 -45 26 -69 74 -69z" />
<glyph unicode="&#xf6d0;" horiz-adv-x="403" d="M319 796v-60h-233v60h233z" />
<glyph unicode="&#xf6cf;" horiz-adv-x="392" d="M60 724l62 117h90l-95 -117h-57zM187 724l62 117h90l-95 -117h-57z" />
<glyph unicode="&#xf6ca;" horiz-adv-x="427" d="M214 781l42 65h70l-88 -122h-48l-89 122h71z" />
<glyph unicode="&#xf6c9;" horiz-adv-x="257" d="M60 724l62 117h90l-95 -117h-57z" />
<glyph unicode="&#xf6ce;" horiz-adv-x="240" d="M198 724h-57l-95 117h90z" />
<glyph unicode="&#xf6cb;" horiz-adv-x="398" d="M318 808v-85h-91v85h91zM170 808v-85h-91v85h91z" />
<glyph horiz-adv-x="660" d="M330 675c121 0 266 -59 266 -342c0 -282 -145 -341 -266 -341s-265 59 -265 341c0 283 144 342 265 342zM330 591c-80 0 -172 -29 -172 -258c0 -54 5 -97 14 -131l283 336c-34 44 -81 53 -125 53zM330 76c81 0 173 29 173 257c0 55 -5 99 -14 133l-284 -336 c34 -45 81 -54 125 -54z" />
<glyph unicode="&#xfd;" horiz-adv-x="524" d="M228 564l62 117h90l-95 -117h-57zM395 499h98l-205 -552c-44 -119 -108 -144 -155 -144c-23 0 -47 3 -70 8v82c19 -5 38 -8 56 -8c50 0 82 60 100 115l-188 499h98l134 -374z" />
<glyph unicode="&#xdd;" horiz-adv-x="623" d="M274 724l62 117h90l-95 -117h-57zM611 667l-254 -368v-299h-92v298l-253 369h112l187 -273l187 273h113z" />
<glyph unicode="&#xd7;" horiz-adv-x="513" d="M433 434l-137 -178l137 -178h-79l-99 126l-98 -126h-80l138 178l-138 178h80l98 -126l99 126h79z" />
<glyph unicode="&#x125;" d="M139 789l-42 -65h-70l88 122h48l89 -122h-71zM318 507c124 0 195 -77 195 -213v-294h-92v297c0 109 -60 122 -112 122c-48 0 -92 -12 -123 -24v-395h-92v689h92v-207c36 14 81 25 132 25z" />
<glyph unicode="&#x12f;" horiz-adv-x="266" d="M85 673h98v-97h-98v97zM147 -95h43c-10 -45 -54 -80 -110 -80c-18 0 -72 0 -72 67c0 60 84 106 88 108h-8v499h92v-499c-41 -23 -92 -60 -92 -94c0 -18 7 -28 20 -28c16 0 30 15 39 27z" />
<glyph unicode="&#x134;" horiz-adv-x="455" d="M319 789l-42 -65h-70l88 122h48l89 -122h-71zM274 667h92v-464c0 -184 -122 -212 -196 -212c-56 0 -103 17 -140 41v97c32 -26 75 -47 131 -47c68 0 113 19 113 115v470z" />
<glyph unicode="&#x135;" horiz-adv-x="257" d="M134 629l-42 -65h-70l88 122h48l89 -122h-71zM89 -29v528h91v-528c0 -112 -58 -167 -177 -167v78c77 0 86 41 86 89z" />
<glyph unicode="&#x14e;" horiz-adv-x="747" d="M371 705c-69 0 -111 40 -111 107h60c0 -35 15 -49 51 -49c37 0 51 14 51 49h60c0 -67 -41 -107 -111 -107zM371 676c141 0 310 -59 310 -342s-169 -342 -310 -342s-310 59 -310 342s169 342 310 342zM371 76c101 0 217 29 217 258s-116 258 -217 258s-217 -29 -217 -258 s116 -258 217 -258z" />
<glyph unicode="&#x14f;" horiz-adv-x="564" d="M284 545c-69 0 -111 40 -111 107h60c0 -35 15 -49 51 -49c37 0 51 14 51 49h60c0 -67 -41 -107 -111 -107zM284 506c107 0 235 -45 235 -257s-128 -257 -235 -257s-235 45 -235 257s128 257 235 257zM284 73c75 0 143 21 143 176s-68 176 -143 176s-143 -21 -143 -176 s68 -176 143 -176z" />
<glyph unicode="&#x168;" horiz-adv-x="721" d="M512 742c-101 -119 -202 100 -304 -19v66c102 119 203 -100 304 19v-66zM540 667h93v-392c0 -180 -100 -284 -273 -284c-174 0 -273 104 -273 284v392h93v-400c0 -131 57 -192 180 -192s180 61 180 192v400z" />
<glyph unicode="&#x16c;" horiz-adv-x="721" d="M360 705c-69 0 -111 40 -111 107h60c0 -35 15 -49 51 -49c37 0 51 14 51 49h60c0 -67 -41 -107 -111 -107zM540 667h93v-392c0 -180 -100 -284 -273 -284c-174 0 -273 104 -273 284v392h93v-400c0 -131 57 -192 180 -192s180 61 180 192v400z" />
<glyph unicode="&#x175;" horiz-adv-x="809" d="M404 629l-42 -65h-70l88 122h48l89 -122h-71zM669 499h101l-165 -499h-91l-109 347l-110 -347h-91l-165 499h101l112 -369l110 369h85l111 -369z" />
<glyph unicode="&#x176;" horiz-adv-x="623" d="M311 789l-42 -65h-70l88 122h48l89 -122h-71zM611 667l-254 -368v-299h-92v298l-253 369h112l187 -273l187 273h113z" />
<glyph unicode="&#x1fc;" horiz-adv-x="992" d="M523 724l62 117h90l-95 -117h-57zM924 580h-342v-203h301v-87h-301v-203h342v-87h-435v202h-235l-126 -202h-103l419 667h480v-87zM309 289h180v287z" />
<glyph unicode="&#x1fd;" horiz-adv-x="880" d="M405 564l62 117h90l-95 -117h-57zM819 266c0 -24 -1 -47 -3 -69h-344c14 -104 75 -127 141 -127c77 0 133 18 172 37v-83c-47 -20 -106 -33 -177 -33c-59 0 -125 14 -171 64c-28 -34 -79 -63 -172 -63c-196 0 -211 126 -211 165c0 99 88 158 235 158c32 0 62 -2 91 -6 c-4 82 -40 118 -138 118c-57 0 -106 -14 -138 -25v78c46 16 97 27 151 27c79 0 138 -24 174 -70c32 41 85 70 170 70c134 0 220 -95 220 -241zM380 155v81c-24 4 -54 6 -87 6c-43 0 -148 -13 -148 -84c0 -57 41 -85 120 -85c76 0 115 27 115 82zM471 280h256 c-5 58 -29 145 -128 145c-84 0 -120 -38 -128 -145z" />
<glyph unicode="&#x1fe;" horiz-adv-x="747" d="M331 724l62 117h90l-95 -117h-57zM699 667l-82 -97c39 -52 64 -127 64 -236c0 -283 -169 -342 -310 -342c-66 0 -137 13 -195 55l-40 -47h-93l82 98c-39 52 -64 127 -64 236c0 283 169 342 310 342c66 0 137 -13 195 -55l40 46h93zM154 334c0 -74 12 -126 31 -164 l325 385c-40 30 -91 37 -139 37c-101 0 -217 -29 -217 -258zM588 334c0 73 -12 126 -31 164l-325 -385c40 -31 91 -37 139 -37c101 0 217 29 217 258z" />
<glyph unicode="&#x1ff;" horiz-adv-x="564" d="M250 564l62 117h90l-95 -117h-57zM541 499l-66 -79c27 -39 44 -94 44 -171c0 -212 -128 -257 -235 -257c-47 0 -98 9 -140 36l-24 -28h-93l66 78c-27 39 -44 94 -44 171c0 212 128 257 235 257c47 0 97 -9 139 -36l25 29h93zM141 249c0 -41 5 -73 13 -97l215 254 c-24 15 -54 19 -85 19c-75 0 -143 -21 -143 -176zM427 249c0 42 -5 74 -14 98l-215 -255c24 -15 55 -19 86 -19c75 0 143 21 143 176z" />
<glyph unicode="&#x237;" horiz-adv-x="257" d="M180 499v-528c0 -112 -58 -167 -177 -167v78c77 0 86 41 86 89v528h91z" />
<glyph unicode="&#x1e81;" horiz-adv-x="809" d="M428 564h-57l-95 117h90zM669 499h101l-165 -499h-91l-109 347l-110 -347h-91l-165 499h101l112 -369l110 369h85l111 -369z" />
<glyph unicode="&#x1e80;" horiz-adv-x="958" d="M503 724h-57l-95 117h90zM846 667h97l-214 -667h-95l-156 501l-157 -501h-95l-214 667h97l165 -532l164 532h79l165 -532z" />
<glyph unicode="&#x1e82;" horiz-adv-x="958" d="M451 724l62 117h90l-95 -117h-57zM12 667h97l164 -532l165 532h79l164 -532l165 532h97l-214 -667h-95l-157 501l-156 -501h-95z" />
<glyph unicode="&#x1e83;" horiz-adv-x="809" d="M381 564l62 117h90l-95 -117h-57zM39 499h101l111 -369l111 369h85l110 -369l112 369h101l-165 -499h-91l-110 347l-109 -347h-91z" />
<glyph unicode="&#x1e85;" horiz-adv-x="809" d="M524 649v-85h-91v85h91zM376 649v-85h-91v85h91zM669 499h101l-165 -499h-91l-109 347l-110 -347h-91l-165 499h101l112 -369l110 369h85l111 -369z" />
<glyph unicode="&#x1ef2;" horiz-adv-x="623" d="M192 841h89l63 -117h-57zM611 667l-254 -368v-299h-92v298l-253 369h112l187 -273l187 273h113z" />
<glyph unicode="&#x1ef3;" horiz-adv-x="524" d="M143 681h89l63 -117h-57zM395 499h98l-205 -552c-44 -119 -108 -144 -155 -144c-23 0 -47 3 -70 8v82c19 -5 38 -8 56 -8c50 0 82 60 100 115l-188 499h98l134 -374z" />
<glyph unicode="&#x192;" horiz-adv-x="375" d="M322 609c-47 0 -92 0 -92 -104v-23h129v-81h-129v-337c0 -123 -55 -186 -166 -186c-21 0 -39 3 -54 7v79c10 -2 22 -4 37 -4c47 0 92 0 92 104v337h-94v81h94v23c0 123 55 186 166 186c21 0 39 -3 54 -7v-79c-10 2 -22 4 -37 4z" />
<glyph unicode="&#xac;" horiz-adv-x="622" d="M97 334h428v-176h-74v100h-354v76z" />
<glyph unicode="&#x222b;" horiz-adv-x="342" d="M290 691c15 0 28 -2 39 -4v-80c-6 1 -13 2 -22 2c-47 0 -92 0 -92 -104v-441c0 -123 -55 -186 -166 -186c-14 0 -27 1 -39 4v79c7 0 14 -1 22 -1c47 0 92 0 92 104v441c0 123 55 186 166 186z" />
<glyph unicode="&#x2202;" horiz-adv-x="590" d="M221 675c92 0 305 -36 305 -369c0 -208 -78 -314 -231 -314c-159 0 -230 115 -230 229c0 103 53 214 223 214c85 0 139 -35 139 -35c-25 120 -101 189 -220 189c-22 0 -42 -2 -59 -5v84c22 4 46 7 73 7zM295 76c44 0 135 0 138 225c-18 17 -61 49 -138 49 c-90 0 -137 -44 -137 -129c0 -43 13 -145 137 -145z" />
<glyph unicode="&#x2211;" horiz-adv-x="562" d="M501 667v-77h-333l164 -256l-164 -257h333v-77h-424v80l1 1l162 253l-163 255v78h424z" />
<glyph unicode="&#x220f;" horiz-adv-x="719" d="M33 517h653v-77h-132v-572h-76v572h-237v-572h-76v572h-132v77z" />
<glyph unicode="&#x3c0;" horiz-adv-x="622" d="M33 499h556v-75h-108v-424h-76v424h-189v-424h-77v424h-106v75z" />
<glyph unicode="&#x221a;" horiz-adv-x="731" d="M630 667h77l-260 -667h-73l-129 319h-151v65h208l109 -288z" />
<glyph unicode="&#x21a;" horiz-adv-x="568" d="M250 -49h64c0 -79 -39 -132 -102 -144v59c29 8 38 40 38 85zM12 667h543v-87h-226v-580h-92v580h-225v87z" />
<glyph unicode="&#x21b;" horiz-adv-x="374" d="M211 -49h63c0 -79 -39 -132 -102 -144v59c29 8 39 40 39 85zM335 422h-133v-290c0 -43 28 -59 75 -59c26 0 45 7 58 15v-82c-20 -8 -43 -14 -71 -14c-32 0 -153 11 -153 146v284h-87v77h87v149h91v-149h133v-77z" />
<glyph unicode="&#x2116;" horiz-adv-x="1103" d="M503 667h89v-667h-89l-326 516l-1 -516h-89v667h98l318 -514v514zM686 44v80h334v-80h-334zM853 551c115 0 179 -69 179 -195s-64 -195 -179 -195s-179 69 -179 195s64 195 179 195zM853 235c57 0 95 21 95 121s-38 121 -95 121s-95 -21 -95 -121s38 -121 95 -121z" />
<glyph unicode="&#x309;" horiz-adv-x="0" d="M-231 676c0 19 -25 24 -41 24c-12 0 -22 -1 -31 -2v46c10 2 21 3 33 3c50 0 91 -20 91 -68s-49 -55 -49 -55v-23h-40v55c20 2 37 8 37 20z" />
<glyph unicode="&#x31b;" horiz-adv-x="0" d="M-195 620l56 -88s-40 -25 -82 -52c-43 -27 -76 -39 -106 -39c-31 0 -48 16 -48 16v48s16 -16 44 -16s44 10 77 29l-29 46z" />
<glyph unicode="&#x323;" horiz-adv-x="0" d="M-178 -50v-85h-91v85h91z" />
<glyph unicode="&#x1eaf;" horiz-adv-x="534" d="M241 661l62 117h90l-95 -117h-57zM274 539c-69 0 -111 40 -111 107h60c0 -35 15 -49 51 -49c37 0 51 14 51 49h60c0 -67 -41 -107 -111 -107zM257 507c139 0 216 -74 216 -209v-144c0 -38 -14 -162 -206 -162c-196 0 -211 126 -211 165c0 99 88 158 235 158 c32 0 62 -2 91 -6c-4 82 -40 118 -138 118c-57 0 -106 -14 -138 -25v78c46 16 97 27 151 27zM382 155v81c-24 4 -54 6 -87 6c-43 0 -148 -13 -148 -84c0 -57 41 -85 120 -85c76 0 115 27 115 82z" />
<glyph unicode="&#x1eb7;" horiz-adv-x="534" d="M257 507c139 0 216 -74 216 -209v-144c0 -38 -14 -162 -206 -162c-196 0 -211 126 -211 165c0 99 88 158 235 158c32 0 62 -2 91 -6c-4 82 -40 118 -138 118c-57 0 -106 -14 -138 -25v78c46 16 97 27 151 27zM382 155v81c-24 4 -54 6 -87 6c-43 0 -148 -13 -148 -84 c0 -57 41 -85 120 -85c76 0 115 27 115 82zM320 -50v-85h-91v85h91zM274 539c-69 0 -111 40 -111 107h60c0 -35 15 -49 51 -49c37 0 51 14 51 49h60c0 -67 -41 -107 -111 -107z" />
<glyph unicode="&#x1ea5;" horiz-adv-x="534" d="M342 640l62 117h90l-95 -117h-57zM275 614l-42 -65h-70l88 122h48l89 -122h-71zM257 507c139 0 216 -74 216 -209v-144c0 -38 -14 -162 -206 -162c-196 0 -211 126 -211 165c0 99 88 158 235 158c32 0 62 -2 91 -6c-4 82 -40 118 -138 118c-57 0 -106 -14 -138 -25v78 c46 16 97 27 151 27zM382 155v81c-24 4 -54 6 -87 6c-43 0 -148 -13 -148 -84c0 -57 41 -85 120 -85c76 0 115 27 115 82z" />
<glyph unicode="&#x1eb1;" horiz-adv-x="534" d="M307 661h-57l-95 117h90zM274 539c-69 0 -111 40 -111 107h60c0 -35 15 -49 51 -49c37 0 51 14 51 49h60c0 -67 -41 -107 -111 -107zM257 507c139 0 216 -74 216 -209v-144c0 -38 -14 -162 -206 -162c-196 0 -211 126 -211 165c0 99 88 158 235 158c32 0 62 -2 91 -6 c-4 82 -40 118 -138 118c-57 0 -106 -14 -138 -25v78c46 16 97 27 151 27zM382 155v81c-24 4 -54 6 -87 6c-43 0 -148 -13 -148 -84c0 -57 41 -85 120 -85c76 0 115 27 115 82z" />
<glyph unicode="&#x1ea7;" horiz-adv-x="534" d="M208 640h-57l-95 117h90zM276 614l-42 -65h-70l88 122h48l89 -122h-71zM258 507c139 0 216 -74 216 -209v-144c0 -38 -14 -162 -206 -162c-196 0 -211 126 -211 165c0 99 88 158 235 158c32 0 62 -2 91 -6c-4 82 -40 118 -138 118c-57 0 -106 -14 -138 -25v78 c46 16 97 27 151 27zM383 155v81c-24 4 -54 6 -87 6c-43 0 -148 -13 -148 -84c0 -57 41 -85 120 -85c76 0 115 27 115 82z" />
<glyph unicode="&#x1ea3;" horiz-adv-x="534" d="M257 507c139 0 216 -74 216 -209v-144c0 -38 -14 -162 -206 -162c-196 0 -211 126 -211 165c0 99 88 158 235 158c32 0 62 -2 91 -6c-4 82 -40 118 -138 118c-57 0 -106 -14 -138 -25v78c46 16 97 27 151 27zM382 155v81c-24 4 -54 6 -87 6c-43 0 -148 -13 -148 -84 c0 -57 41 -85 120 -85c76 0 115 27 115 82zM279 639c0 19 -24 24 -41 24c-12 0 -22 -1 -31 -2v46c10 2 21 3 33 3c50 0 92 -20 92 -68s-50 -55 -50 -55v-23h-40v55c21 2 37 8 37 20z" />
<glyph unicode="&#x1eb3;" horiz-adv-x="534" d="M274 539c-69 0 -111 40 -111 107h60c0 -35 15 -49 51 -49c37 0 51 14 51 49h60c0 -67 -41 -107 -111 -107zM257 507c139 0 216 -74 216 -209v-144c0 -38 -14 -162 -206 -162c-196 0 -211 126 -211 165c0 99 88 158 235 158c32 0 62 -2 91 -6c-4 82 -40 118 -138 118 c-57 0 -106 -14 -138 -25v78c46 16 97 27 151 27zM382 155v81c-24 4 -54 6 -87 6c-43 0 -148 -13 -148 -84c0 -57 41 -85 120 -85c76 0 115 27 115 82zM274 539c-69 0 -111 40 -111 107h60c0 -35 15 -49 51 -49c37 0 51 14 51 49h60c0 -67 -41 -107 -111 -107zM255 805 c50 0 91 -20 91 -68s-49 -55 -49 -55v-23h-40v55c20 2 37 8 37 20c0 19 -25 24 -41 24c-12 0 -22 -1 -31 -2v46c10 2 21 3 33 3z" />
<glyph unicode="&#x1eb5;" horiz-adv-x="534" d="M257 507c139 0 216 -74 216 -209v-144c0 -38 -14 -162 -206 -162c-196 0 -211 126 -211 165c0 99 88 158 235 158c32 0 62 -2 91 -6c-4 82 -40 118 -138 118c-57 0 -106 -14 -138 -25v78c46 16 97 27 151 27zM382 155v81c-24 4 -54 6 -87 6c-43 0 -148 -13 -148 -84 c0 -57 41 -85 120 -85c76 0 115 27 115 82zM274 539c-69 0 -111 40 -111 107h60c0 -35 15 -49 51 -49c37 0 51 14 51 49h60c0 -67 -41 -107 -111 -107zM426 715c-101 -119 -202 100 -304 -19v66c102 119 203 -100 304 19v-66z" />
<glyph unicode="&#x1eab;" horiz-adv-x="534" d="M434 712c-101 -119 -202 100 -304 -19v66c102 119 203 -100 304 19v-66zM275 606l-42 -65h-70l88 122h48l89 -122h-71zM257 507c139 0 216 -74 216 -209v-144c0 -38 -14 -162 -206 -162c-196 0 -211 126 -211 165c0 99 88 158 235 158c32 0 62 -2 91 -6 c-4 82 -40 118 -138 118c-57 0 -106 -14 -138 -25v78c46 16 97 27 151 27zM382 155v81c-24 4 -54 6 -87 6c-43 0 -148 -13 -148 -84c0 -57 41 -85 120 -85c76 0 115 27 115 82z" />
<glyph unicode="&#x1ea1;" horiz-adv-x="534" d="M257 507c139 0 216 -74 216 -209v-144c0 -38 -14 -162 -206 -162c-196 0 -211 126 -211 165c0 99 88 158 235 158c32 0 62 -2 91 -6c-4 82 -40 118 -138 118c-57 0 -106 -14 -138 -25v78c46 16 97 27 151 27zM382 155v81c-24 4 -54 6 -87 6c-43 0 -148 -13 -148 -84 c0 -57 41 -85 120 -85c76 0 115 27 115 82zM320 -50v-85h-91v85h91z" />
<glyph unicode="&#x1ead;" horiz-adv-x="534" d="M257 507c139 0 216 -74 216 -209v-144c0 -38 -14 -162 -206 -162c-196 0 -211 126 -211 165c0 99 88 158 235 158c32 0 62 -2 91 -6c-4 82 -40 118 -138 118c-57 0 -106 -14 -138 -25v78c46 16 97 27 151 27zM382 155v81c-24 4 -54 6 -87 6c-43 0 -148 -13 -148 -84 c0 -57 41 -85 120 -85c76 0 115 27 115 82zM320 -50v-85h-91v85h91zM274 612l-42 -65h-70l88 122h48l89 -122h-71z" />
<glyph unicode="&#x20ab;" horiz-adv-x="413" d="M338 622h44v-49h-44v-267c0 -25 -10 -107 -136 -107c-55 0 -146 23 -146 174c0 137 82 166 151 166c24 0 48 -3 71 -10v44h-74v49h74v37h60v-37zM278 302v170c-23 9 -47 14 -71 14c-47 0 -91 -14 -91 -113c0 -107 46 -120 86 -120c50 0 76 16 76 49zM355 119v49h-299v-49 h299z" />
<glyph unicode="&#x1ebf;" horiz-adv-x="555" d="M352 638l62 117h90l-95 -117h-57zM284 612l-42 -65h-70l88 122h48l89 -122h-71zM504 267c0 -24 -1 -47 -3 -69h-344c14 -104 75 -127 141 -127c76 0 133 17 172 36v-82c-47 -20 -106 -33 -177 -33c-105 0 -230 44 -230 252c0 65 0 264 221 264c134 0 220 -95 220 -241z M156 281h256c-5 58 -29 145 -128 145c-84 0 -120 -38 -128 -145z" />
<glyph unicode="&#x1ec1;" horiz-adv-x="555" d="M217 638h-57l-95 117h90zM284 612l-42 -65h-70l88 122h48l89 -122h-71zM504 267c0 -24 -1 -47 -3 -69h-344c14 -104 75 -127 141 -127c76 0 133 17 172 36v-82c-47 -20 -106 -33 -177 -33c-105 0 -230 44 -230 252c0 65 0 264 221 264c134 0 220 -95 220 -241zM156 281 h256c-5 58 -29 145 -128 145c-84 0 -120 -38 -128 -145z" />
<glyph unicode="&#x1ebb;" horiz-adv-x="555" d="M504 267c0 -24 -1 -47 -3 -69h-344c14 -104 75 -127 141 -127c76 0 133 17 172 36v-82c-47 -20 -106 -33 -177 -33c-105 0 -230 44 -230 252c0 65 0 264 221 264c134 0 220 -95 220 -241zM156 281h256c-5 58 -29 145 -128 145c-84 0 -120 -38 -128 -145zM304 639 c0 19 -24 24 -41 24c-12 0 -22 -1 -31 -2v46c10 2 21 3 33 3c50 0 92 -20 92 -68s-50 -55 -50 -55v-23h-40v55c21 2 37 8 37 20z" />
<glyph unicode="&#x1ec3;" horiz-adv-x="555" d="M504 267c0 -24 -1 -47 -3 -69h-344c14 -104 75 -127 141 -127c76 0 133 17 172 36v-82c-47 -20 -106 -33 -177 -33c-105 0 -230 44 -230 252c0 65 0 264 221 264c134 0 220 -95 220 -241zM156 281h256c-5 58 -29 145 -128 145c-84 0 -120 -38 -128 -145zM284 612l-42 -65 h-70l88 122h48l89 -122h-71zM368 772c50 0 91 -20 91 -68s-49 -55 -49 -55v-23h-40v55c20 2 37 8 37 20c0 19 -24 24 -41 24c-12 0 -22 -1 -31 -2v46c10 2 21 3 33 3z" />
<glyph unicode="&#x1ebd;" horiz-adv-x="555" d="M504 267c0 -24 -1 -47 -3 -69h-344c14 -104 75 -127 141 -127c76 0 133 17 172 36v-82c-47 -20 -106 -33 -177 -33c-105 0 -230 44 -230 252c0 65 0 264 221 264c134 0 220 -95 220 -241zM156 281h256c-5 58 -29 145 -128 145c-84 0 -120 -38 -128 -145zM443 582 c-101 -119 -202 100 -304 -19v66c102 119 203 -100 304 19v-66z" />
<glyph unicode="&#x1ec5;" horiz-adv-x="555" d="M443 712c-101 -119 -202 100 -304 -19v66c102 119 203 -100 304 19v-66zM284 606l-42 -65h-70l88 122h48l89 -122h-71zM504 267c0 -24 -1 -47 -3 -69h-344c14 -104 75 -127 141 -127c76 0 133 17 172 36v-82c-47 -20 -106 -33 -177 -33c-105 0 -230 44 -230 252 c0 65 0 264 221 264c134 0 220 -95 220 -241zM156 281h256c-5 58 -29 145 -128 145c-84 0 -120 -38 -128 -145z" />
<glyph unicode="&#x1eb9;" horiz-adv-x="555" d="M338 -50v-85h-91v85h91zM504 267c0 -24 -1 -47 -3 -69h-344c14 -104 75 -127 141 -127c76 0 133 17 172 36v-82c-47 -20 -106 -33 -177 -33c-105 0 -230 44 -230 252c0 65 0 264 221 264c134 0 220 -95 220 -241zM156 281h256c-5 58 -29 145 -128 145 c-84 0 -120 -38 -128 -145z" />
<glyph unicode="&#x1ec9;" horiz-adv-x="288" d="M214 642c0 -48 -49 -55 -49 -55v-23h-40v54c20 2 37 9 37 21c0 18 -25 24 -41 24c-12 0 -22 -1 -31 -3v46c10 3 21 4 33 4c50 0 91 -21 91 -68zM190 0h-92v499h92v-499z" />
<glyph unicode="&#x1ecb;" horiz-adv-x="288" d="M189 -50v-85h-91v85h91zM95 673h98v-97h-98v97zM98 0v499h92v-499h-92z" />
<glyph unicode="&#x1a1;" horiz-adv-x="671" d="M680 435c0 0 -39 -25 -82 -52c-36 -22 -64 -34 -90 -38c7 -27 11 -59 11 -96c0 -212 -128 -257 -235 -257s-235 45 -235 257s128 257 235 257c77 0 164 -23 207 -114c26 1 43 11 74 29l-29 46l88 56zM284 73c75 0 143 21 143 176s-68 176 -143 176s-143 -21 -143 -176 s68 -176 143 -176z" />
<glyph unicode="&#x1ed1;" horiz-adv-x="568" d="M351 638l62 117h90l-95 -117h-57zM283 612l-42 -65h-70l88 122h48l89 -122h-71zM284 506c107 0 235 -45 235 -257s-128 -257 -235 -257s-235 45 -235 257s128 257 235 257zM284 73c75 0 143 21 143 176s-68 176 -143 176s-143 -21 -143 -176s68 -176 143 -176z" />
<glyph unicode="&#x1edb;" horiz-adv-x="671" d="M680 435c0 0 -39 -25 -82 -52c-36 -22 -64 -34 -90 -38c7 -27 11 -59 11 -96c0 -212 -128 -257 -235 -257s-235 45 -235 257s128 257 235 257c77 0 164 -23 207 -114c26 1 43 11 74 29l-29 46l88 56zM284 73c75 0 143 21 143 176s-68 176 -143 176s-143 -21 -143 -176 s68 -176 143 -176zM400 681l-95 -117h-57l63 117h89z" />
<glyph unicode="&#x1ed3;" horiz-adv-x="568" d="M216 638h-57l-95 117h90zM284 612l42 -65h70l-88 122h-48l-89 -122h71zM284 506c107 0 235 -45 235 -257s-128 -257 -235 -257s-235 45 -235 257s128 257 235 257zM284 73c75 0 143 21 143 176s-68 176 -143 176s-143 -21 -143 -176s68 -176 143 -176z" />
<glyph unicode="&#x1edd;" horiz-adv-x="671" d="M680 435c0 0 -39 -25 -82 -52c-36 -22 -64 -34 -90 -38c7 -27 11 -59 11 -96c0 -212 -128 -257 -235 -257s-235 45 -235 257s128 257 235 257c77 0 164 -23 207 -114c26 1 43 11 74 29l-29 46l88 56zM284 73c75 0 143 21 143 176s-68 176 -143 176s-143 -21 -143 -176 s68 -176 143 -176zM168 681h89l63 -117h-57z" />
<glyph unicode="&#x1ecf;" horiz-adv-x="568" d="M306 640c0 18 -24 24 -41 24c-12 0 -22 -1 -31 -3v46c10 3 21 4 33 4c50 0 92 -21 92 -69c0 -47 -50 -54 -50 -54v-24h-39v55c20 2 36 8 36 21zM284 506c107 0 235 -45 235 -257s-128 -257 -235 -257s-235 45 -235 257s128 257 235 257zM284 73c75 0 143 21 143 176 s-68 176 -143 176s-143 -21 -143 -176s68 -176 143 -176z" />
<glyph unicode="&#x1ed5;" horiz-adv-x="568" d="M283 612l-42 -65h-70l88 122h48l89 -122h-71zM367 772c50 0 92 -20 92 -68s-50 -55 -50 -55v-23h-40v55c21 2 37 8 37 20c0 19 -24 24 -41 24c-12 0 -22 -1 -31 -2v46c10 2 21 3 33 3zM284 506c107 0 235 -45 235 -257s-128 -257 -235 -257s-235 45 -235 257 s128 257 235 257zM284 73c75 0 143 21 143 176s-68 176 -143 176s-143 -21 -143 -176s68 -176 143 -176z" />
<glyph unicode="&#x1edf;" horiz-adv-x="671" d="M680 435c0 0 -39 -25 -82 -52c-36 -22 -64 -34 -90 -38c7 -27 11 -59 11 -96c0 -212 -128 -257 -235 -257s-235 45 -235 257s128 257 235 257c77 0 164 -23 207 -114c26 1 43 11 74 29l-29 46l88 56zM284 73c75 0 143 21 143 176s-68 176 -143 176s-143 -21 -143 -176 s68 -176 143 -176zM357 642c0 -48 -50 -55 -50 -55v-23h-39v55c20 2 36 8 36 20c0 19 -24 24 -41 24c-12 0 -22 -1 -31 -2v46c10 2 21 3 33 3c50 0 92 -20 92 -68z" />
<glyph unicode="&#x1ed7;" horiz-adv-x="568" d="M443 712c-101 -119 -202 100 -304 -19v66c102 119 203 -100 304 19v-66zM283 606l-42 -65h-70l88 122h48l89 -122h-71zM284 506c107 0 235 -45 235 -257s-128 -257 -235 -257s-235 45 -235 257s128 257 235 257zM284 73c75 0 143 21 143 176s-68 176 -143 176 s-143 -21 -143 -176s68 -176 143 -176z" />
<glyph unicode="&#x1ee1;" horiz-adv-x="671" d="M680 435c0 0 -39 -25 -82 -52c-36 -22 -64 -34 -90 -38c7 -27 11 -59 11 -96c0 -212 -128 -257 -235 -257s-235 45 -235 257s128 257 235 257c77 0 164 -23 207 -114c26 1 43 11 74 29l-29 46l88 56zM284 73c75 0 143 21 143 176s-68 176 -143 176s-143 -21 -143 -176 s68 -176 143 -176zM436 582c-101 -119 -202 100 -304 -19v66c102 119 203 -100 304 19v-66z" />
<glyph unicode="&#x1ee3;" horiz-adv-x="671" d="M329 -50v-85h-91v85h91zM680 435c0 0 -39 -25 -82 -52c-36 -22 -64 -34 -90 -38c7 -27 11 -59 11 -96c0 -212 -128 -257 -235 -257s-235 45 -235 257s128 257 235 257c77 0 164 -23 207 -114c26 1 43 11 74 29l-29 46l88 56zM284 73c75 0 143 21 143 176 s-68 176 -143 176s-143 -21 -143 -176s68 -176 143 -176z" />
<glyph unicode="&#x1b0;" horiz-adv-x="694" d="M643 535l56 -88s-39 -25 -82 -52s-75 -39 -106 -39h-7v-146c0 -139 -77 -219 -211 -219s-211 80 -211 219v289h91v-296c0 -91 37 -131 120 -131c82 0 119 40 119 131v296h92v-95h3c28 0 45 10 77 29l-29 46z" />
<glyph unicode="&#x1ee9;" horiz-adv-x="694" d="M643 535l56 -88s-39 -25 -82 -52s-75 -39 -106 -39h-7v-146c0 -139 -77 -219 -211 -219s-211 80 -211 219v289h91v-296c0 -91 37 -131 120 -131c82 0 119 40 119 131v296h92v-95h3c28 0 45 10 77 29l-29 46zM412 681l-95 -117h-57l63 117h89z" />
<glyph unicode="&#x1eeb;" horiz-adv-x="694" d="M643 535l56 -88s-39 -25 -82 -52s-75 -39 -106 -39h-7v-146c0 -139 -77 -219 -211 -219s-211 80 -211 219v289h91v-296c0 -91 37 -131 120 -131c82 0 119 40 119 131v296h92v-95h3c28 0 45 10 77 29l-29 46zM174 681h89l63 -117h-57z" />
<glyph unicode="&#x1ee7;" horiz-adv-x="587" d="M276 710c50 0 92 -21 92 -68c0 -48 -50 -55 -50 -55v-23h-40v54c21 2 37 8 37 21c0 18 -24 24 -41 24c-12 0 -22 -1 -31 -3v46c10 3 21 4 33 4zM412 499h92v-289c0 -139 -77 -219 -211 -219s-211 80 -211 219v289h91v-296c0 -91 37 -131 120 -131c82 0 119 40 119 131 v296z" />
<glyph unicode="&#x1eed;" horiz-adv-x="694" d="M643 535l56 -88s-39 -25 -82 -52s-75 -39 -106 -39h-7v-146c0 -139 -77 -219 -211 -219s-211 80 -211 219v289h91v-296c0 -91 37 -131 120 -131c82 0 119 40 119 131v296h92v-95h3c28 0 45 10 77 29l-29 46zM274 710c50 0 92 -20 92 -68s-50 -55 -50 -55v-23h-40v55 c21 2 37 8 37 20c0 19 -24 24 -41 24c-12 0 -22 -1 -31 -2v46c10 2 21 3 33 3z" />
<glyph unicode="&#x1eef;" horiz-adv-x="694" d="M643 535l56 -88s-39 -25 -82 -52s-75 -39 -106 -39h-7v-146c0 -139 -77 -219 -211 -219s-211 80 -211 219v289h91v-296c0 -91 37 -131 120 -131c82 0 119 40 119 131v296h92v-95h3c28 0 45 10 77 29l-29 46zM447 582c-101 -119 -202 100 -304 -19v66 c102 119 203 -100 304 19v-66z" />
<glyph unicode="&#x1ee5;" horiz-adv-x="590" d="M338 -50v-85h-91v85h91zM412 499h92v-289c0 -139 -77 -219 -211 -219s-211 80 -211 219v289h91v-296c0 -91 37 -131 120 -131c82 0 119 40 119 131v296z" />
<glyph unicode="&#x1ef1;" horiz-adv-x="694" d="M338 -50v-85h-91v85h91zM643 535l56 -88s-39 -25 -82 -52s-75 -39 -106 -39h-7v-146c0 -139 -77 -219 -211 -219s-211 80 -211 219v289h91v-296c0 -91 37 -131 120 -131c82 0 119 40 119 131v296h92v-95h3c28 0 45 10 77 29l-29 46z" />
<glyph unicode="&#x1ef7;" horiz-adv-x="524" d="M279 639c0 19 -24 24 -41 24c-12 0 -22 -1 -30 -2v46c9 2 20 3 33 3c49 0 91 -20 91 -68s-50 -55 -50 -55v-23h-39v55c20 2 36 8 36 20zM395 499h98l-205 -552c-44 -119 -108 -144 -155 -144c-23 0 -47 3 -70 8v82c19 -5 38 -8 56 -8c50 0 82 60 100 115l-188 499h98 l134 -374z" />
<glyph unicode="&#x1ef9;" horiz-adv-x="522" d="M418 582c-101 -119 -202 100 -304 -19v66c102 119 203 -100 304 19v-66zM395 499h98l-205 -552c-44 -119 -108 -144 -155 -144c-23 0 -47 3 -70 8v82c19 -5 38 -8 56 -8c50 0 82 60 100 115l-188 499h98l134 -374z" />
<glyph unicode="&#x1ef5;" horiz-adv-x="524" d="M463 -50v-85h-91v85h91zM395 499h98l-205 -552c-44 -119 -108 -144 -155 -144c-23 0 -47 3 -70 8v82c19 -5 38 -8 56 -8c50 0 82 60 100 115l-188 499h98l134 -374z" />
<glyph unicode="&#x1ea9;" horiz-adv-x="534" d="M257 507c139 0 216 -74 216 -209v-144c0 -38 -14 -162 -206 -162c-196 0 -211 126 -211 165c0 99 88 158 235 158c32 0 62 -2 91 -6c-4 82 -40 118 -138 118c-57 0 -106 -14 -138 -25v78c46 16 97 27 151 27zM382 155v81c-24 4 -54 6 -87 6c-43 0 -148 -13 -148 -84 c0 -57 41 -85 120 -85c76 0 115 27 115 82zM275 614l-42 -65h-70l88 122h48l89 -122h-71zM358 774c50 0 92 -20 92 -68s-50 -55 -50 -55v-23h-39v55c20 2 36 8 36 20c0 19 -24 24 -41 24c-12 0 -22 -1 -31 -2v46c10 2 21 3 33 3z" />
<glyph unicode="&#x1ec7;" horiz-adv-x="555" d="M504 267c0 -24 -1 -47 -3 -69h-344c14 -104 75 -127 141 -127c76 0 133 17 172 36v-82c-47 -20 -106 -33 -177 -33c-105 0 -230 44 -230 252c0 65 0 264 221 264c134 0 220 -95 220 -241zM156 281h256c-5 58 -29 145 -128 145c-84 0 -120 -38 -128 -145zM335 -50v-85h-91 v85h91zM283 612l-42 -65h-70l88 122h48l89 -122h-71z" />
<glyph unicode="&#x1ed9;" horiz-adv-x="568" d="M329 -50v-85h-91v85h91zM283 612l-42 -65h-70l88 122h48l89 -122h-71zM284 506c107 0 235 -45 235 -257s-128 -257 -235 -257s-235 45 -235 257s128 257 235 257zM284 73c75 0 143 21 143 176s-68 176 -143 176s-143 -21 -143 -176s68 -176 143 -176z" />
<glyph unicode="&#x1eae;" horiz-adv-x="665" d="M299 821l62 117h90l-95 -117h-57zM332 699c-69 0 -111 40 -111 107h60c0 -35 15 -49 51 -49c37 0 51 14 51 49h60c0 -67 -41 -107 -111 -107zM378 667l265 -667h-100l-72 188h-278l-72 -188h-100l266 667h91zM226 274h212l-106 277z" />
<glyph unicode="&#x1eb6;" horiz-adv-x="665" d="M377 -50v-85h-91v85h91zM332 699c-69 0 -111 40 -111 107h60c0 -35 15 -49 51 -49c37 0 51 14 51 49h60c0 -67 -41 -107 -111 -107zM378 667l265 -667h-100l-72 188h-278l-72 -188h-100l266 667h91zM226 274h212l-106 277z" />
<glyph unicode="&#x1ea4;" horiz-adv-x="664" d="M400 798l62 117h90l-95 -117h-57zM332 772l-42 -65h-70l88 122h48l89 -122h-71zM378 667l265 -667h-100l-72 188h-278l-72 -188h-100l266 667h91zM226 274h212l-106 277z" />
<glyph unicode="&#x1eb0;" horiz-adv-x="664" d="M365 821h-57l-95 117h90zM332 699c69 0 111 40 111 107h-60c0 -35 -15 -49 -51 -49c-37 0 -51 14 -51 49h-60c0 -67 41 -107 111 -107zM21 0l265 667h91l266 -667h-100l-72 188h-278l-72 -188h-100zM226 274h212l-106 277z" />
<glyph unicode="&#x1ea6;" horiz-adv-x="664" d="M264 798h-57l-95 117h90zM332 772l42 -65h70l-88 122h-48l-89 -122h71zM21 0l265 667h91l266 -667h-100l-72 188h-278l-72 -188h-100zM226 274h212l-106 277z" />
<glyph unicode="&#x1ea2;" horiz-adv-x="664" d="M351 799c0 18 -24 24 -40 24c-12 0 -23 -1 -31 -3v46c10 3 21 4 33 4c49 0 91 -21 91 -68c0 -48 -50 -55 -50 -55v-23h-39v54c20 2 36 8 36 21zM378 667l265 -667h-100l-72 188h-278l-72 -188h-100l266 667h91zM226 274h212l-106 277z" />
<glyph unicode="&#x1eb2;" horiz-adv-x="665" d="M332 699c-69 0 -111 40 -111 107h60c0 -35 15 -49 51 -49c37 0 51 14 51 49h60c0 -67 -41 -107 -111 -107zM313 965c49 0 91 -20 91 -68s-50 -55 -50 -55v-23h-39v55c20 2 36 8 36 20c0 19 -24 24 -40 24c-12 0 -23 -1 -31 -2v46c10 2 21 3 33 3zM378 667l265 -667h-100 l-72 188h-278l-72 -188h-100l266 667h91zM226 274h212l-106 277z" />
<glyph unicode="&#x1ea8;" horiz-adv-x="665" d="M332 772l-42 -65h-70l88 122h48l89 -122h-71zM416 932c49 0 91 -20 91 -68s-50 -55 -50 -55v-23h-39v55c20 2 36 8 36 20c0 19 -24 24 -40 24c-12 0 -23 -1 -31 -2v46c10 2 21 3 33 3zM378 667l265 -667h-100l-72 188h-278l-72 -188h-100l266 667h91zM226 274h212 l-106 277z" />
<glyph unicode="&#x1eb4;" horiz-adv-x="665" d="M332 699c-69 0 -111 40 -111 107h60c0 -35 15 -49 51 -49c37 0 51 14 51 49h60c0 -67 -41 -107 -111 -107zM484 875c-101 -119 -202 100 -304 -19v66c102 119 203 -100 304 19v-66zM378 667l265 -667h-100l-72 188h-278l-72 -188h-100l266 667h91zM226 274h212l-106 277z " />
<glyph unicode="&#x1eaa;" horiz-adv-x="665" d="M491 872c-101 -119 -202 100 -304 -19v66c102 119 203 -100 304 19v-66zM331 766l-42 -65h-70l88 122h48l89 -122h-71zM378 667l265 -667h-100l-72 188h-278l-72 -188h-100l266 667h91zM226 274h212l-106 277z" />
<glyph unicode="&#x1ea0;" horiz-adv-x="664" d="M377 -50v-85h-91v85h91zM378 667l265 -667h-100l-72 188h-278l-72 -188h-100l266 667h91zM226 274h212l-106 277z" />
<glyph unicode="&#x1eac;" horiz-adv-x="665" d="M377 -50v-85h-91v85h91zM331 772l-42 -65h-70l88 122h48l89 -122h-71zM378 667l265 -667h-100l-72 188h-278l-72 -188h-100l266 667h91zM226 274h212l-106 277z" />
<glyph unicode="&#x1ebe;" d="M381 798l62 117h90l-95 -117h-57zM314 772l-42 -65h-70l88 122h48l89 -122h-71zM522 580h-342v-203h301v-87h-301v-203h342v-87h-435v667h435v-87z" />
<glyph unicode="&#x1ec0;" d="M252 798h-57l-95 117h90zM319 772l42 -65h70l-88 122h-48l-89 -122h71zM522 580h-342v-203h301v-87h-301v-203h342v-87h-435v667h435v-87z" />
<glyph unicode="&#x1eba;" d="M289 870c50 0 92 -21 92 -68c0 -48 -50 -55 -50 -55v-23h-40v54c21 2 37 8 37 21c0 18 -24 24 -41 24c-12 0 -22 -1 -31 -3v46c10 3 21 4 33 4zM522 580h-342v-203h301v-87h-301v-203h342v-87h-435v667h435v-87z" />
<glyph unicode="&#x1ec2;" d="M310 772l-42 -65h-70l88 122h48l89 -122h-71zM394 932c50 0 91 -20 91 -68s-49 -55 -49 -55v-23h-40v55c20 2 37 8 37 20c0 19 -24 24 -41 24c-12 0 -22 -1 -31 -2v46c10 2 21 3 33 3zM522 580h-342v-203h301v-87h-301v-203h342v-87h-435v667h435v-87z" />
<glyph unicode="&#x1ebc;" d="M462 742c-101 -119 -202 100 -304 -19v66c102 119 203 -100 304 19v-66zM522 580h-342v-203h301v-87h-301v-203h342v-87h-435v667h435v-87z" />
<glyph unicode="&#x1ec4;" d="M467 872c-101 -119 -202 100 -304 -19v66c102 119 203 -100 304 19v-66zM308 766l-42 -65h-70l88 122h48l89 -122h-71zM522 580h-342v-203h301v-87h-301v-203h342v-87h-435v667h435v-87z" />
<glyph unicode="&#x1eb8;" d="M364 -50v-85h-91v85h91zM522 580h-342v-203h301v-87h-301v-203h342v-87h-435v667h435v-87z" />
<glyph unicode="&#x1ec6;" d="M364 -50v-85h-91v85h91zM318 772l-42 -65h-70l88 122h48l89 -122h-71zM522 580h-342v-203h301v-87h-301v-203h342v-87h-435v667h435v-87z" />
<glyph unicode="&#x1ec8;" horiz-adv-x="266" d="M203 802c0 -48 -49 -55 -49 -55v-23h-40v54c20 2 37 8 37 21c0 18 -25 24 -41 24c-12 0 -22 -1 -31 -3v46c10 3 21 4 33 4c50 0 91 -21 91 -68zM179 0h-92v667h92v-667z" />
<glyph unicode="&#x1eca;" horiz-adv-x="266" d="M178 -50v-85h-91v85h91zM179 0h-92v667h92v-667z" />
<glyph unicode="&#x1ef6;" horiz-adv-x="623" d="M290 870c49 0 91 -21 91 -68c0 -48 -50 -55 -50 -55v-23h-39v54c20 2 36 8 36 21c0 18 -24 24 -41 24c-12 0 -22 -1 -30 -3v46c9 3 20 4 33 4zM611 667l-254 -368v-299h-92v298l-253 369h112l187 -273l187 273h113z" />
<glyph unicode="&#x1ef8;" horiz-adv-x="624" d="M467 742c-101 -119 -202 100 -304 -19v66c102 119 203 -100 304 19v-66zM611 667l-254 -368v-299h-92v298l-253 369h112l187 -273l187 273h113z" />
<glyph unicode="&#x1ef4;" horiz-adv-x="623" d="M357 -50v-85h-91v85h91zM611 667l-254 -368v-299h-92v298l-253 369h112l187 -273l187 273h113z" />
<glyph unicode="&#x1a0;" horiz-adv-x="786" d="M815 604c0 0 -40 -25 -83 -52c-32 -21 -59 -32 -83 -37c20 -46 32 -106 32 -181c0 -283 -169 -342 -310 -342s-310 59 -310 342s169 342 310 342c90 0 191 -24 253 -115c27 0 44 10 76 29l-29 46l87 56zM371 76c101 0 217 29 217 258s-116 258 -217 258 s-217 -29 -217 -258s116 -258 217 -258z" />
<glyph unicode="&#x1ed0;" horiz-adv-x="747" d="M438 798l62 117h90l-95 -117h-57zM370 772l-42 -65h-70l88 122h48l89 -122h-71zM371 676c141 0 310 -59 310 -342s-169 -342 -310 -342s-310 59 -310 342s169 342 310 342zM371 76c101 0 217 29 217 258s-116 258 -217 258s-217 -29 -217 -258s116 -258 217 -258z" />
<glyph unicode="&#x1eda;" horiz-adv-x="786" d="M815 604c0 0 -40 -25 -83 -52c-32 -21 -59 -32 -83 -37c20 -46 32 -106 32 -181c0 -283 -169 -342 -310 -342s-310 59 -310 342s169 342 310 342c90 0 191 -24 253 -115c27 0 44 10 76 29l-29 46l87 56zM371 76c101 0 217 29 217 258s-116 258 -217 258 s-217 -29 -217 -258s116 -258 217 -258zM487 841l-95 -117h-57l63 117h89z" />
<glyph unicode="&#x1ed2;" horiz-adv-x="747" d="M304 798h-57l-95 117h90zM371 772l42 -65h70l-88 122h-48l-89 -122h71zM61 334c0 283 169 342 310 342s310 -59 310 -342s-169 -342 -310 -342s-310 59 -310 342zM154 334c0 -229 116 -258 217 -258s217 29 217 258s-116 258 -217 258s-217 -29 -217 -258z" />
<glyph unicode="&#x1edc;" horiz-adv-x="786" d="M255 841h89l63 -117h-57zM815 604c0 0 -40 -25 -83 -52c-32 -21 -59 -32 -83 -37c20 -46 32 -106 32 -181c0 -283 -169 -342 -310 -342s-310 59 -310 342s169 342 310 342c90 0 191 -24 253 -115c27 0 44 10 76 29l-29 46l87 56zM371 76c101 0 217 29 217 258 s-116 258 -217 258s-217 -29 -217 -258s116 -258 217 -258z" />
<glyph unicode="&#x1ece;" horiz-adv-x="747" d="M393 799c0 18 -24 24 -41 24c-12 0 -22 -1 -31 -3v46c10 3 21 4 33 4c50 0 92 -21 92 -68c0 -48 -50 -55 -50 -55v-23h-39v54c20 2 36 8 36 21zM371 676c141 0 310 -59 310 -342s-169 -342 -310 -342s-310 59 -310 342s169 342 310 342zM371 76c101 0 217 29 217 258 s-116 258 -217 258s-217 -29 -217 -258s116 -258 217 -258z" />
<glyph unicode="&#x1ed4;" horiz-adv-x="747" d="M370 772l-42 -65h-70l88 122h48l89 -122h-71zM454 932c50 0 92 -20 92 -68s-50 -55 -50 -55v-23h-39v55c20 2 36 8 36 20c0 19 -24 24 -41 24c-12 0 -22 -1 -31 -2v46c10 2 21 3 33 3zM371 676c141 0 310 -59 310 -342s-169 -342 -310 -342s-310 59 -310 342 s169 342 310 342zM371 76c101 0 217 29 217 258s-116 258 -217 258s-217 -29 -217 -258s116 -258 217 -258z" />
<glyph unicode="&#x1ede;" horiz-adv-x="786" d="M444 802c0 -48 -50 -55 -50 -55v-23h-39v54c20 2 36 8 36 21c0 18 -24 24 -41 24c-12 0 -22 -1 -31 -3v46c10 3 21 4 34 4c49 0 91 -21 91 -68zM815 604c0 0 -40 -25 -83 -52c-32 -21 -59 -32 -83 -37c20 -46 32 -106 32 -181c0 -283 -169 -342 -310 -342 s-310 59 -310 342s169 342 310 342c90 0 191 -24 253 -115c27 0 44 10 76 29l-29 46l87 56zM371 76c101 0 217 29 217 258s-116 258 -217 258s-217 -29 -217 -258s116 -258 217 -258z" />
<glyph unicode="&#x1ed6;" horiz-adv-x="747" d="M530 872c-101 -119 -202 100 -304 -19v66c102 119 203 -100 304 19v-66zM370 766l-42 -65h-70l88 122h48l89 -122h-71zM371 676c141 0 310 -59 310 -342s-169 -342 -310 -342s-310 59 -310 342s169 342 310 342zM371 76c101 0 217 29 217 258s-116 258 -217 258 s-217 -29 -217 -258s116 -258 217 -258z" />
<glyph unicode="&#x1ee0;" horiz-adv-x="786" d="M523 742c-101 -119 -202 100 -304 -19v66c102 119 203 -100 304 19v-66zM815 604c0 0 -40 -25 -83 -52c-32 -21 -59 -32 -83 -37c20 -46 32 -106 32 -181c0 -283 -169 -342 -310 -342s-310 59 -310 342s169 342 310 342c90 0 191 -24 253 -115c27 0 44 10 76 29l-29 46 l87 56zM371 76c101 0 217 29 217 258s-116 258 -217 258s-217 -29 -217 -258s116 -258 217 -258z" />
<glyph unicode="&#x1ed8;" horiz-adv-x="747" d="M416 -50v-85h-91v85h91zM370 772l-42 -65h-70l88 122h48l89 -122h-71zM371 676c141 0 310 -59 310 -342s-169 -342 -310 -342s-310 59 -310 342s169 342 310 342zM371 76c101 0 217 29 217 258s-116 258 -217 258s-217 -29 -217 -258s116 -258 217 -258z" />
<glyph unicode="&#x1ee2;" horiz-adv-x="786" d="M416 -50v-85h-91v85h91zM815 604c0 0 -40 -25 -83 -52c-32 -21 -59 -32 -83 -37c20 -46 32 -106 32 -181c0 -283 -169 -342 -310 -342s-310 59 -310 342s169 342 310 342c90 0 191 -24 253 -115c27 0 44 10 76 29l-29 46l87 56zM371 76c101 0 217 29 217 258 s-116 258 -217 258s-217 -29 -217 -258s116 -258 217 -258z" />
<glyph unicode="&#x1af;" horiz-adv-x="802" d="M776 703l56 -88s-40 -25 -82 -52c-43 -27 -76 -39 -106 -39c-4 0 -8 0 -11 1v-250c0 -180 -100 -284 -273 -284c-174 0 -273 104 -273 284v392h93v-400c0 -131 57 -192 180 -192s180 61 180 192v400h93v-95h7c28 0 44 10 77 29l-29 46z" />
<glyph unicode="&#x1ee8;" horiz-adv-x="802" d="M479 841l-95 -117h-57l63 117h89zM776 703l56 -88s-40 -25 -82 -52c-43 -27 -76 -39 -106 -39c-4 0 -8 0 -11 1v-250c0 -180 -100 -284 -273 -284c-174 0 -273 104 -273 284v392h93v-400c0 -131 57 -192 180 -192s180 61 180 192v400h93v-95h7c28 0 44 10 77 29l-29 46z " />
<glyph unicode="&#x1eea;" horiz-adv-x="802" d="M241 841h89l63 -117h-57zM776 703l56 -88s-40 -25 -82 -52c-43 -27 -76 -39 -106 -39c-4 0 -8 0 -11 1v-250c0 -180 -100 -284 -273 -284c-174 0 -273 104 -273 284v392h93v-400c0 -131 57 -192 180 -192s180 61 180 192v400h93v-95h7c28 0 44 10 77 29l-29 46z" />
<glyph unicode="&#x1ee6;" horiz-adv-x="721" d="M343 870c50 0 92 -21 92 -68c0 -48 -50 -55 -50 -55v-23h-40v54c21 2 37 8 37 21c0 18 -24 24 -41 24c-12 0 -22 -1 -31 -3v46c10 3 21 4 33 4zM540 667h93v-392c0 -180 -100 -284 -273 -284c-174 0 -273 104 -273 284v392h93v-400c0 -131 57 -192 180 -192 s180 61 180 192v400z" />
<glyph unicode="&#x1eec;" horiz-adv-x="802" d="M341 870c50 0 92 -20 92 -68s-50 -55 -50 -55v-23h-40v55c21 2 37 8 37 20c0 19 -24 24 -41 24c-12 0 -22 -1 -31 -2v46c10 2 21 3 33 3zM776 703l56 -88s-40 -25 -82 -52c-43 -27 -76 -39 -106 -39c-4 0 -8 0 -11 1v-250c0 -180 -100 -284 -273 -284 c-174 0 -273 104 -273 284v392h93v-400c0 -131 57 -192 180 -192s180 61 180 192v400h93v-95h7c28 0 44 10 77 29l-29 46z" />
<glyph unicode="&#x1eee;" horiz-adv-x="802" d="M514 742c-101 -119 -202 100 -304 -19v66c102 119 203 -100 304 19v-66zM776 703l56 -88s-40 -25 -82 -52c-43 -27 -76 -39 -106 -39c-4 0 -8 0 -11 1v-250c0 -180 -100 -284 -273 -284c-174 0 -273 104 -273 284v392h93v-400c0 -131 57 -192 180 -192s180 61 180 192 v400h93v-95h7c28 0 44 10 77 29l-29 46z" />
<glyph unicode="&#x1ee4;" horiz-adv-x="721" d="M405 -50v-85h-91v85h91zM540 667h93v-392c0 -180 -100 -284 -273 -284c-174 0 -273 104 -273 284v392h93v-400c0 -131 57 -192 180 -192s180 61 180 192v400z" />
<glyph unicode="&#x1ef0;" horiz-adv-x="802" d="M405 -50v-85h-91v85h91zM776 703l56 -88s-40 -25 -82 -52c-43 -27 -76 -39 -106 -39c-4 0 -8 0 -11 1v-250c0 -180 -100 -284 -273 -284c-174 0 -273 104 -273 284v392h93v-400c0 -131 57 -192 180 -192s180 61 180 192v400h93v-95h7c28 0 44 10 77 29l-29 46z" />
<glyph unicode="&#x221e;" horiz-adv-x="741" d="M536 526c58 0 144 -41 144 -153s-86 -153 -144 -153c-75 0 -131 55 -168 104c-37 -49 -92 -104 -168 -104c-57 0 -143 41 -143 153s86 153 143 153c76 0 132 -55 168 -104c37 49 93 104 168 104zM205 274c54 0 99 53 130 99c-31 46 -76 99 -130 99c-4 0 -83 -1 -83 -99 s79 -99 83 -99zM532 274c3 0 83 1 83 99s-80 99 -83 99c-54 0 -100 -53 -130 -99c30 -46 76 -99 130 -99z" />
<glyph unicode="&#x2206;" horiz-adv-x="739" d="M403 667l308 -667h-684l307 667h69zM155 82h427l-214 464z" />
<glyph unicode="&#x25ca;" horiz-adv-x="636" d="M319 704l255 -370l-255 -370l-255 370zM319 80l175 254l-175 255l-175 -255z" />
<glyph horiz-adv-x="670" d="M299 667c206 0 314 -115 314 -334c0 -218 -108 -333 -314 -333h-213v667h213zM284 82c164 0 237 78 237 251c0 174 -73 252 -237 252h-105v-503h105zM299 705c-69 0 -111 40 -111 107h60c0 -35 15 -49 51 -49c37 0 51 14 51 49h60c0 -67 -41 -107 -111 -107z" />
<glyph unicode="&#x226;" horiz-adv-x="664" d="M377 809v-85h-91v85h91zM378 667l265 -667h-100l-72 188h-278l-72 -188h-100l266 667h91zM226 274h212l-106 277z" />
<glyph unicode="&#x1e1e;" horiz-adv-x="549" d="M352 809v-85h-91v85h91zM87 667h420v-87h-327v-203h288v-87h-288v-290h-93v667z" />
<glyph unicode="&#x1ecc;" horiz-adv-x="747" d="M416 -50v-85h-91v85h91zM371 676c141 0 310 -59 310 -342s-169 -342 -310 -342s-310 59 -310 342s169 342 310 342zM371 76c101 0 217 29 217 258s-116 258 -217 258s-217 -29 -217 -258s116 -258 217 -258z" />
<glyph unicode="&#x1ecd;" horiz-adv-x="568" d="M329 -50v-85h-91v85h91zM284 506c107 0 235 -45 235 -257s-128 -257 -235 -257s-235 45 -235 257s128 257 235 257zM284 73c75 0 143 21 143 176s-68 176 -143 176s-143 -21 -143 -176s68 -176 143 -176z" />
<glyph unicode="&#xde;" d="M292 567c148 0 233 -77 233 -210s-85 -210 -233 -210h-113v-147h-93v667h93v-100h113zM433 356v1v1c0 63 -18 127 -149 127h-105v-256h105c131 0 149 64 149 127z" />
<glyph unicode="&#xfe;" horiz-adv-x="558" d="M281 500c104 0 229 -44 229 -251s-125 -251 -229 -251c-37 0 -72 5 -107 15v-197h-91v866h91v-197c35 10 70 15 107 15zM281 79c71 0 138 21 138 170s-67 170 -138 170c-37 0 -73 -7 -107 -21v-298c34 -14 70 -21 107 -21z" />
<glyph unicode="&#xf0;" horiz-adv-x="592" d="M425 594c53 -54 94 -143 94 -288c0 -208 -78 -314 -231 -314c-159 0 -230 115 -230 229c0 103 53 214 223 214c85 0 139 -35 139 -35c-13 62 -40 111 -79 143l-106 -64l-33 55l74 44c-23 8 -49 11 -77 11s-54 -4 -76 -9v84c26 7 57 11 91 11c39 0 100 -6 157 -39l87 53 l33 -55zM288 76c44 0 135 0 138 225c-18 17 -61 49 -138 49c-90 0 -137 -44 -137 -129c0 -43 13 -145 137 -145z" />
<glyph unicode="&#xd0;" horiz-adv-x="723" d="M346 667c206 0 314 -115 314 -334c0 -218 -108 -333 -314 -333h-213v296h-80v75h80v296h213zM331 82c164 0 237 78 237 251c0 174 -73 252 -237 252h-105v-214h149v-75h-149v-214h105z" />
</font>
</defs>
</svg>
