<svg width="514" height="514" viewBox="0 0 514 514" xmlns="http://www.w3.org/2000/svg">
    <title>
        ipfs-logo-on
    </title>
    <g fill-rule="nonzero" fill="none">
        <path fill="#4A9EA1" d="M36.298 385l221.7 128 221.7-128V129L257.998 1.01l-221.7 128z"/>
        <path d="M235.113 31.84l-160.74 92.806a38.396 38.396 0 0 1 0 8.59l160.75 92.805c13.554-10 32.043-10 45.597 0l160.75-92.807a38.343 38.343 0 0 1-.001-8.588L280.729 31.84c-13.554 10.001-32.044 10.001-45.599 0h-.017zm221.79 127.03l-160.92 93.84c1.884 16.739-7.361 32.751-22.799 39.489l.18 184.58a38.386 38.386 0 0 1 7.439 4.294l160.75-92.805c-1.884-16.739 7.36-32.752 22.799-39.49v-185.61a38.397 38.397 0 0 1-7.44-4.294l-.009-.004zm-397.81 1.031a38.387 38.387 0 0 1-7.438 4.296v185.61c15.438 6.738 24.683 22.75 22.799 39.489l160.74 92.806a38.4 38.4 0 0 1 7.44-4.295v-185.61c-15.439-6.738-24.684-22.75-22.8-39.49l-160.74-92.81-.001.005z" fill="#63D3D7"/>
        <g fill="#000">
            <path fill-opacity=".251" d="M258 513l221.7-128V129L258 257z"/>
            <path fill-opacity=".039" d="M258 513V257L36.3 129v256z"/>
            <path fill-opacity=".13" d="M36.298 129l221.7 128 221.7-128-221.7-128z"/>
        </g>
    </g>
</svg>
